<svg width="512" height="364" viewBox="0 0 512 364" fill="none" xmlns="http://www.w3.org/2000/svg">
<path d="M506.436 81.4676C506.436 81.4676 501.52 46.811 486.382 31.5936C467.212 11.5654 445.781 11.4672 435.951 10.2892C365.565 5.18395 259.887 5.18396 259.887 5.18396H259.69C259.69 5.18396 154.012 5.18395 83.6254 10.2892C73.7949 11.4672 52.3644 11.5654 33.195 31.5936C18.0559 46.811 13.239 81.4676 13.239 81.4676C13.239 81.4676 8.12711 122.211 8.12711 162.856V200.949C8.12711 241.595 13.1407 282.338 13.1407 282.338C13.1407 282.338 18.0559 316.995 33.0966 332.212C52.2661 352.24 77.4322 351.553 88.6393 353.713C128.944 357.542 259.788 358.719 259.788 358.719C259.788 358.719 365.565 358.524 435.951 353.516C445.781 352.338 467.212 352.24 486.382 332.212C501.52 316.995 506.436 282.338 506.436 282.338C506.436 282.338 511.449 241.693 511.449 200.949V162.856C511.449 122.211 506.436 81.4676 506.436 81.4676ZM207.784 247.191V105.914L343.74 176.797L207.784 247.191Z" fill="white"/>
</svg>
