<svg width="512" height="512" viewBox="0 0 512 512" fill="none" xmlns="http://www.w3.org/2000/svg">
<path fill-rule="evenodd" clip-rule="evenodd" d="M508.559 256C508.559 397.385 395.887 512 256.898 512C117.91 512 5.2373 397.385 5.2373 256C5.2373 114.615 117.91 0 256.898 0C395.887 0 508.559 114.615 508.559 256ZM265.916 188.991C241.439 199.347 192.518 220.783 119.154 253.298C107.241 258.117 100.999 262.832 100.432 267.441C99.4712 275.232 109.062 278.299 122.122 282.477C123.9 283.046 125.74 283.634 127.627 284.258C140.476 288.507 157.761 293.478 166.747 293.675C174.897 293.854 183.995 290.436 194.038 283.42C262.585 236.352 297.969 212.561 300.191 212.048C301.758 211.686 303.929 211.232 305.401 212.562C306.873 213.892 306.728 216.412 306.572 217.088C305.622 221.209 267.974 256.813 248.491 275.238C242.417 280.982 238.11 285.056 237.229 285.987C235.255 288.072 233.245 290.043 231.312 291.938C219.375 303.644 210.423 312.423 231.808 326.758C242.085 333.647 250.308 339.344 258.512 345.027C267.471 351.234 276.408 357.425 287.971 365.135C290.916 367.099 293.729 369.139 296.47 371.126C306.896 378.688 316.264 385.481 327.837 384.397C334.562 383.768 341.508 377.336 345.036 358.152C353.373 312.813 369.76 214.58 373.547 174.101C373.88 170.554 373.462 166.015 373.127 164.023C372.792 162.03 372.091 159.191 369.545 157.09C366.53 154.601 361.876 154.077 359.794 154.114C350.328 154.283 335.806 159.42 265.916 188.991Z" fill="white"/>
</svg>
