<svg width="504" height="512" viewBox="0 0 504 512" fill="none" xmlns="http://www.w3.org/2000/svg">
<mask id="mask0_3902_222" style="mask-type:luminance" maskUnits="userSpaceOnUse" x="0" y="0" width="504" height="512">
<path d="M503.322 0H0V512H503.322V0Z" fill="white"/>
</mask>
<g mask="url(#mask0_3902_222)">
<path d="M251.661 46.1C318.902 46.1 326.864 46.4 353.309 47.6C377.885 48.7 391.156 52.9 400.004 56.4C411.702 61 420.156 66.6 428.905 75.5C437.752 84.5 443.159 93.0004 447.681 104.9C451.122 113.9 455.251 127.5 456.333 152.4C457.512 179.4 457.807 187.5 457.807 255.8C457.807 324.2 457.512 332.3 456.333 359.2C455.251 384.2 451.122 397.7 447.681 406.7C443.159 418.6 437.654 427.2 428.905 436.1C420.058 445.1 411.702 450.6 400.004 455.2C391.156 458.7 377.786 462.9 353.309 464C326.766 465.2 318.803 465.5 251.661 465.5C184.421 465.5 176.458 465.2 150.013 464C125.437 462.9 112.166 458.7 103.319 455.2C91.6202 450.6 83.1661 445 74.417 436.1C65.5695 427.1 60.1627 418.6 55.6407 406.7C52.2 397.7 48.0712 384.1 46.9898 359.2C45.8101 332.2 45.5153 324.1 45.5153 255.8C45.5153 187.4 45.8101 179.3 46.9898 152.4C48.0712 127.4 52.2 113.9 55.6407 104.9C60.1627 93.0004 65.6678 84.4 74.417 75.5C83.2644 66.5 91.6202 61 103.319 56.4C112.166 52.9 125.535 48.7 150.013 47.6C176.458 46.4 184.421 46.1 251.661 46.1ZM251.661 0C183.339 0 174.786 0.3 147.949 1.5C121.21 2.7 102.827 7.1 86.902 13.4C70.2882 20 56.2305 28.7 42.2712 43C28.2136 57.2 19.661 71.5 13.1729 88.2997C6.97962 104.6 2.65423 123.2 1.47458 150.4C0.294912 177.8 0 186.5 0 256C0 325.5 0.294912 334.2 1.47458 361.5C2.65423 388.7 6.97962 407.4 13.1729 423.6C19.661 440.5 28.2136 454.8 42.2712 469C56.2305 483.2 70.2882 492 86.803 498.5C102.827 504.8 121.112 509.2 147.851 510.4C174.688 511.6 183.24 511.9 251.563 511.9C319.885 511.9 328.438 511.6 355.275 510.4C382.014 509.2 400.397 504.8 416.322 498.5C432.837 492 446.895 483.2 460.855 469C474.814 454.8 483.464 440.5 489.855 423.7C496.047 407.4 500.373 388.8 501.553 361.6C502.732 334.3 503.027 325.6 503.027 256.1C503.027 186.6 502.732 177.9 501.553 150.6C500.373 123.4 496.047 104.7 489.855 88.5001C483.661 71.5 475.108 57.2 461.051 43C447.091 28.8 433.034 20 416.519 13.5C400.495 7.2 382.211 2.8 355.471 1.6C328.536 0.3 319.983 0 251.661 0Z" fill="white"/>
<path d="M251.661 124.5C180.292 124.5 122.39 183.4 122.39 256C122.39 328.6 180.292 387.5 251.661 387.5C323.03 387.5 380.932 328.6 380.932 256C380.932 183.4 323.03 124.5 251.661 124.5ZM251.661 341.3C205.36 341.3 167.807 303.1 167.807 256C167.807 208.9 205.36 170.7 251.661 170.7C297.963 170.7 335.515 208.9 335.515 256C335.515 303.1 297.963 341.3 251.661 341.3Z" fill="white"/>
<path d="M416.224 119.3C416.224 136.299 402.658 149.999 386.044 149.999C369.332 149.999 355.864 136.199 355.864 119.3C355.864 102.299 369.43 88.599 386.044 88.599C402.658 88.599 416.224 102.399 416.224 119.3Z" fill="white"/>
</g>
</svg>
