<svg width="2917" height="2827" viewBox="0 0 2917 2827" fill="none" xmlns="http://www.w3.org/2000/svg">
<style>
  @keyframes spin-cw {
    from { transform: rotate(0deg); }
    to { transform: rotate(360deg); }
  }
  @keyframes spin-ccw {
    from { transform: rotate(0deg); }
    to { transform: rotate(-360deg); }
  }
  .gear-big {
    animation: spin-cw 15s linear infinite;
    transform-origin: 1969px 462px;
  }
  .gear-small {
    animation: spin-ccw 10s linear infinite;
    transform-origin: 2565px 1103px;
  }
</style>
<path d="M1706.92 79.0153C1706.92 79.0153 2698.57 122.111 2754.83 994.248C2811.1 1866.39 3071.32 2696.19 2438.35 2745.72C1805.38 2795.26 321.419 2891.47 110.429 2371.89C-100.56 1852.31 -206.055 -103.944 1706.92 79.0153Z" fill="#F4F7FA"/>
<path d="M1978.36 1084.47C1990.55 1068.04 2002.57 1021.54 2000.7 1008.13C1988.3 918.878 1975.93 750.261 1903.55 688.335C1891.19 677.759 1829.98 719.584 1812.19 716.57C1766.69 733.764 1751.98 742.551 1700.69 737.65C1549.3 723.18 1537.86 412.676 1307.13 538.954C1138.13 631.451 1076.04 787.24 884.171 575.018C692.298 362.796 160.671 165.065 95.0331 520.255C57.3632 724.101 353.985 765.979 421.209 954.264C485.09 1133.18 635.997 1178.38 834.897 1119.02C1033.8 1059.66 1023.37 1183.64 1103.39 1333.61C1199.51 1513.76 1431.51 1322.45 1531.08 1224.98C1611.27 1146.5 1868.4 1000.75 1978.36 1084.47Z" fill="url(#paint0_linear_42_688)"/>
<mask id="mask0_42_688" style="mask-type:luminance" maskUnits="userSpaceOnUse" x="91" y="324" width="2033" height="1085">
<path d="M1917.72 638.189C1983.94 762.255 2056.43 885.774 2123.78 1010.35C2072.97 1072.46 2011.69 1144.29 1928.58 1088.82C1813.03 1011.71 1610.44 1146.13 1530.74 1224.98C1432.09 1322.57 1199.27 1513.69 1103.35 1333.6C1023.5 1183.68 1033.75 1059.64 834.881 1119.02C636.014 1178.4 485.12 1133.16 421.202 954.254C353.938 765.978 57.4359 724.15 95.0299 520.249C160.537 164.962 692.565 362.944 884.06 574.969C1075.56 786.994 1139.26 631.979 1306.83 538.818C1535.6 411.632 1554.21 725.427 1698.32 736.376C1811.29 744.959 1839.26 692.916 1917.72 638.189Z" fill="white"/>
</mask>
<g mask="url(#mask0_42_688)">
<path d="M1956.27 855.742L1954.77 851.658C1325.5 1081.94 627.787 913.908 88.4015 402.185L85.4047 405.341C341.036 647.86 643.973 819.377 961.465 901.347C1295.25 987.526 1639.25 971.754 1956.27 855.742Z" fill="#FCFDFE"/>
<path d="M1134.75 1413.07C1214.39 1248 1415.31 1037.11 1582.64 942.959L1580.5 939.168C1412.52 1033.69 1210.8 1245.43 1130.83 1411.18L1134.75 1413.07Z" fill="#FCFDFE"/>
<path d="M1832.22 899.532L1831.92 895.192C1732.36 902.171 1633.1 858.552 1536.9 765.549C1466.36 697.355 1399.07 604.69 1336.91 490.121L1333.08 492.198C1395.46 607.154 1463.01 700.176 1533.87 768.677C1631 862.575 1731.38 906.601 1832.22 899.532Z" fill="#FCFDFE"/>
<path d="M916.853 887.962L916.771 883.611C728.441 887.115 567.617 1002.75 465.864 1099.13L468.858 1102.29C570.051 1006.43 729.917 891.438 916.853 887.962Z" fill="#FCFDFE"/>
<path d="M517.931 724.293L520.714 720.948C357.619 585.194 307.747 368.107 292.535 250.788L288.219 251.347C303.515 369.299 353.694 587.588 517.931 724.293Z" fill="#FCFDFE"/>
</g>
<mask id="mask1_42_688" style="mask-type:luminance" maskUnits="userSpaceOnUse" x="623" y="54" width="1973" height="2244">
<path d="M2292.52 2297.22C2394.87 2232.59 2496 2165.49 2595.82 2095.97C2598.31 2096.78 2528.7 1842.88 2360.33 1768.18C2029.61 1625.47 2083.99 1341.72 2069.95 1194.1C2058.32 982.304 1925.4 777.538 1743.99 907.34C1565.18 1029.13 1358.12 641.658 1254.92 318.194C1217.01 155.302 994.531 35.8863 834.66 56.9213C669.847 74.7703 567.645 233.069 656.19 552.005C742.993 928.249 1088.6 1025.15 1259.3 1157.41C1427.09 1287.16 1273.87 1520.22 1513.44 1594.88C1718.13 1664.85 1943.87 1680.31 1951.73 1878.68C1956.9 2075.96 2033.81 2205.03 2292.52 2297.22Z" fill="white"/>
</mask>
<g mask="url(#mask1_42_688)">
<path d="M2292.52 2297.22C2394.87 2232.59 2496 2165.49 2595.82 2095.97C2598.31 2096.78 2528.7 1842.88 2360.33 1768.18C2029.61 1625.47 2083.99 1341.72 2069.95 1194.1C2057.69 982.745 1934.93 802.406 1749.23 881.246C1541.5 964.685 1354.35 642.582 1254.92 318.193C1217.01 155.301 994.531 35.8853 834.66 56.9203C669.847 74.7693 567.645 233.068 656.19 552.004C742.993 928.248 1088.6 1025.15 1259.3 1157.41C1427.09 1287.16 1273.87 1520.22 1513.44 1594.88C1718.13 1664.85 1943.87 1680.31 1951.73 1878.68C1956.9 2075.96 2033.81 2205.03 2292.52 2297.22Z" fill="url(#paint1_linear_42_688)"/>
</g>
<mask id="mask2_42_688" style="mask-type:luminance" maskUnits="userSpaceOnUse" x="623" y="54" width="1973" height="2244">
<path d="M2292.52 2297.22C2394.87 2232.59 2496 2165.49 2595.82 2095.97C2598.31 2096.78 2528.7 1842.88 2360.33 1768.18C2029.61 1625.47 2083.99 1341.72 2069.95 1194.1C2058.32 982.304 1925.4 777.538 1743.99 907.34C1565.18 1029.13 1358.12 641.658 1254.92 318.194C1217.01 155.302 994.531 35.8863 834.66 56.9213C669.847 74.7703 567.645 233.069 656.19 552.005C742.993 928.249 1088.6 1025.15 1259.3 1157.41C1427.09 1287.16 1273.87 1520.22 1513.44 1594.88C1718.13 1664.85 1943.87 1680.31 1951.73 1878.68C1956.9 2075.96 2033.81 2205.03 2292.52 2297.22Z" fill="white"/>
</mask>
<g mask="url(#mask2_42_688)">
<path d="M2450.7 2243.96C2449.8 2241.83 2123.21 1787.37 1726.58 1379.82C1666.72 1311.99 1604.37 1244.41 1544.08 1179.04C1208.29 815.044 891.133 471.231 840.009 -44.7507L832.834 -44.0417C884.199 474.346 1202.16 819.02 1538.78 1183.93C1599.05 1249.27 1661.37 1316.82 1721.3 1384.72C2120.06 1794.48 2442.5 2244.1 2444.19 2247.03L2450.7 2243.96Z" fill="#BEB8F2"/>
<path d="M1235.29 840.671L1238.24 834.088C1056.11 752.594 823.433 625.157 698.432 556.696C597.263 501.288 596.995 501.441 593.876 503.468L595.825 506.498L595.552 510.027C600.202 511.116 642.024 534.02 694.97 563.017C820.061 631.529 1052.9 759.056 1235.29 840.671Z" fill="#BEB8F2"/>
<path d="M1117.57 669.647C1074.14 503.855 1092.55 373.826 1115.63 293.94C1140.78 206.921 1178.06 155.508 1183.75 151.659L1182.18 149.342L1182.97 144.874C1180.84 144.5 1179.17 145.805 1176.83 148.341C1143.41 184.674 1034.23 379.938 1110.59 671.472L1117.57 669.647Z" fill="#BEB8F2"/>
<path d="M1968.95 1654.39L1975.15 1650.71C1801.19 1357.65 1883.36 975.862 1926.76 825.316C1929.09 817.229 1929.83 814.61 1929.97 813.35L1922.8 812.575L1926.39 812.962L1922.81 812.55C1922.68 813.442 1921.36 818.019 1919.83 823.318C1888.53 931.889 1869.53 1039.86 1863.35 1144.22C1851.48 1344.71 1887.01 1516.35 1968.95 1654.39Z" fill="#BEB8F2"/>
<path d="M1852.47 1524.38L1856.54 1518.42C1631.6 1364.75 1348.81 1471.79 1344.54 1474.27C1344.52 1474.28 1344.51 1474.29 1344.5 1474.3L1343.41 1478.47L1347.1 1480.71L1346.77 1477.15L1348.44 1480.29C1351.03 1479.06 1629.78 1372.24 1852.47 1524.38Z" fill="#BEB8F2"/>
<path d="M2396.16 2170.23C2366.02 2108.48 2341.05 1991.47 2393.17 1784.72C2396.13 1772.99 2396.13 1772.99 2395.13 1771.39L2389.02 1775.23L2392.07 1773.31L2388.5 1773.27C2388.41 1774.11 2387.37 1778.21 2386.18 1782.95C2333.52 1991.82 2359.02 2110.56 2389.67 2173.39L2396.16 2170.23Z" fill="#BEB8F2"/>
<path d="M2309.46 2067.36L2314.98 2062.72C2232.88 1965.11 2040.3 1952.47 1932.81 1953.62C1929.4 1953.66 1927.21 1953.69 1926.4 1953.64L1925.99 1960.84C1926.86 1960.89 1929.22 1960.87 1932.89 1960.83C2039.1 1959.69 2229.27 1972.02 2309.46 2067.36Z" fill="#BEB8F2"/>
</g>
<path d="M2729.49 2470.07C2784.71 2473.3 2829.86 2434.7 2829.86 2384.01V556.962C2829.86 506.27 2784.71 466.667 2729.49 468.671L122.728 563.263C80.4937 564.795 46.2747 601.872 46.2747 645.917V2233.43C46.2747 2277.47 80.4937 2315.31 122.728 2317.77L2729.49 2470.07Z" fill="url(#paint2_linear_42_688)"/>
<path d="M1029.98 2672.3C1071.65 2657.8 1102.79 2620.7 1111.57 2575.1L1172.22 2260.2L1690.97 2279.53L1754.81 2607.58C1763.75 2653.53 1727.96 2699.62 1686.74 2716.54L1469.7 2805.63C1429.33 2822.2 1385.94 2828.8 1342.82 2824.93L884.146 2783.77C870.738 2782.56 859.983 2771.5 858.422 2757.32C856.861 2743.13 847.467 2727.2 860.253 2722.75L1029.98 2672.3Z" fill="url(#paint3_linear_42_688)"/>
<path d="M1024.85 2653.15C1066.48 2638.83 1097.59 2602.2 1106.36 2557.17L1166.94 2246.23L1673.04 2265.34L1736.82 2589.26C1745.76 2634.63 1722.12 2680.12 1680.94 2696.83L1464.13 2784.81C1423.8 2801.17 1380.45 2807.68 1337.37 2803.86L879.162 2763.21C865.767 2762.02 855.023 2751.1 853.464 2737.1C851.905 2723.09 859.963 2709.86 872.736 2705.47L1024.85 2653.15Z" fill="url(#paint4_linear_42_688)"/>
<path d="M2708.85 2470.07C2764.07 2473.3 2809.22 2434.7 2809.22 2384.01V556.962C2809.22 506.27 2764.07 466.667 2708.85 468.671L102.088 563.263C59.8528 564.795 25.6341 601.872 25.6341 645.917V2233.43C25.6341 2277.47 59.8528 2315.31 102.088 2317.77L2708.85 2470.07Z" fill="url(#paint5_linear_42_688)"/>
<path d="M102.088 600.602L2708.85 511.264C2738.38 510.252 2762.38 531.381 2762.38 558.459V1979.93V2381.47C2762.38 2408.55 2738.38 2429.15 2708.85 2427.48L102.088 2280.43C79.4544 2279.16 61.1466 2258.97 61.1466 2235.35V1872.55V644.783C61.1466 621.158 79.4544 601.378 102.088 600.602Z" fill="url(#paint6_linear_42_688)"/>
<path d="M2708.85 2272.15C2720.35 2272.71 2729.71 2264.6 2729.71 2254.06V559.503C2729.71 548.969 2720.35 540.704 2708.85 541.082L102.088 626.742C93.2616 627.032 86.0855 634.77 86.0855 643.987V2126.76C86.0855 2135.98 93.2616 2143.83 102.088 2144.26L2708.85 2272.15Z" fill="white"/>
<path d="M190.863 2052.89L2594.5 2158.45V794.338L190.863 844.789V2052.89Z" fill="url(#paint7_linear_42_688)"/>
<path d="M190.863 803.519L2594.5 747.738V631.237L190.863 700.342V803.519Z" fill="url(#paint8_linear_42_688)"/>
<path d="M373.421 747.188C373.421 754.555 379.222 760.381 386.384 760.199C393.551 760.018 399.364 753.891 399.364 746.514C399.364 739.137 393.551 733.311 386.384 733.502C379.223 733.694 373.421 739.821 373.421 747.188Z" fill="white"/>
<path d="M320.224 748.57C320.224 755.917 325.993 761.726 333.113 761.546C340.239 761.366 346.02 755.256 346.02 747.9C346.02 740.544 340.239 734.735 333.113 734.925C325.993 735.115 320.224 741.223 320.224 748.57Z" fill="white"/>
<path d="M267.328 749.944C267.328 757.269 273.064 763.063 280.145 762.884C287.231 762.705 292.979 756.613 292.979 749.278C292.979 741.942 287.23 736.149 280.145 736.338C273.064 736.527 267.328 742.618 267.328 749.944Z" fill="white"/>
<g opacity="0.68">
<path d="M677.343 1835.18L2542.08 1893.73V829.773L677.343 865.859V1835.18Z" fill="white"/>
</g>
<path opacity="0.68" d="M216.537 1147.65L644.73 1145.64V866.49L216.537 874.777V1147.65Z" fill="white"/>
<path d="M216.538 1197.64L644.731 1196.77V1175.87L216.538 1177.21V1197.64Z" fill="white"/>
<path d="M375.861 1232.91L644.731 1232.88V1211.97L375.861 1212.3V1232.91Z" fill="white"/>
<path opacity="0.68" d="M216.537 1547.95L644.73 1555.13V1275.99L216.537 1275.08V1547.95Z" fill="white"/>
<path d="M216.538 1597.94L644.731 1606.27V1585.36L216.538 1577.51V1597.94Z" fill="white"/>
<path d="M375.861 1636.63L644.731 1642.37V1621.47L375.861 1616.03V1636.63Z" fill="white"/>
<path opacity="0.68" d="M216.537 1948.25L644.73 1964.63V1685.48L216.537 1675.38V1948.25Z" fill="white"/>
<path d="M216.538 1998.24L644.731 2015.76V1994.86L216.538 1977.81V1998.24Z" fill="white"/>
<path d="M375.861 2040.35L644.731 2051.87V2030.96L375.861 2019.75V2040.35Z" fill="white"/>
<path d="M1251.63 1965.71L2542.08 2013.6V1943.66L1251.63 1900.07V1965.71Z" fill="white"/>
<path d="M677.343 1944.39L861.458 1951.23V1886.89L677.343 1880.67V1944.39Z" fill="white"/>
<path d="M889.899 1952.28L1078.16 1959.27V1894.21L889.899 1887.85V1952.28Z" fill="white"/>
<path d="M1951.69 2073.84L2542.08 2098.13V2063.16L1951.69 2039.85V2073.84Z" fill="white"/>
<path d="M2646.03 2649.2L2658.2 2636.44C2677.61 2616.11 2676.06 2584.1 2654.73 2565.01L1818.59 1816.67L1742.27 1903.47L2572.66 2651.32C2593.83 2670.39 2626.68 2669.47 2646.03 2649.2Z" fill="url(#paint9_linear_42_688)"/>
<path d="M977.364 1095.32C1188.26 835.73 1562.23 793.816 1812.22 1010.74C2066.79 1231.64 2087.32 1628.02 1858.84 1886.71C1635.72 2139.31 1263.43 2158.72 1026.41 1938.89C793.484 1722.87 771.265 1349.01 977.364 1095.32ZM1786.13 1821.43C1976.42 1604.51 1959.04 1273.21 1746.8 1088.01C1537.76 905.606 1223.8 939.272 1045.89 1156.84C871.384 1370.23 889.947 1685.65 1086.93 1867.41C1286.82 2051.86 1599.59 2034.07 1786.13 1821.43Z" fill="url(#paint10_linear_42_688)"/>
<path opacity="0.3" d="M1818.59 1816.67L1925.2 1912.08C1915.35 1955.63 1921.39 1986.01 1931.65 2007.56C1970.25 2088.64 2080.29 2070.78 2168.84 2185.94C2213.27 2243.73 2193.1 2258.02 2238.16 2304.86C2312.63 2382.29 2376.89 2352.7 2442.4 2422.12C2508.65 2492.33 2484.1 2566.26 2531.39 2585.13C2551.62 2593.21 2583.68 2590.64 2637.24 2549.36L2654.73 2565.01C2676.06 2584.1 2677.61 2616.1 2658.2 2636.44L2646.03 2649.19C2626.68 2669.47 2593.83 2670.39 2572.66 2651.32L1742.27 1903.47L1818.59 1816.67Z" fill="url(#paint11_linear_42_688)"/>
<path d="M946.802 1111.8C1157.7 852.206 1531.67 810.291 1781.66 1027.21C2036.23 1248.11 2056.76 1644.5 1828.28 1903.18C1605.15 2155.79 1232.86 2175.2 995.844 1955.37C762.922 1739.34 740.702 1365.48 946.802 1111.8ZM1755.57 1837.9C1945.85 1620.99 1928.48 1289.68 1716.24 1104.48C1507.2 922.082 1193.24 955.747 1015.32 1173.31C840.821 1386.71 859.384 1702.13 1056.36 1883.89C1256.26 2068.34 1569.03 2050.55 1755.57 1837.9Z" fill="url(#paint12_linear_42_688)"/>
<path d="M970.995 1133.52C1170.26 888.807 1523.01 849.878 1758.47 1054.6C1998 1262.86 2017.42 1636.16 1802.52 1880.06C1592.37 2118.55 1241.13 2137.45 1017.2 1930.14C796.933 1726.22 776.01 1372.97 970.995 1133.52ZM1755.57 1837.9C1945.85 1620.99 1928.48 1289.68 1716.24 1104.48C1507.2 922.082 1193.24 955.747 1015.32 1173.31C840.821 1386.71 859.384 1702.13 1056.36 1883.89C1256.26 2068.34 1569.03 2050.55 1755.57 1837.9Z" fill="url(#paint13_linear_42_688)"/>
<g class="gear-big">
<path d="M1710.31 689.995C1677.03 706.882 1635.23 691.363 1616.95 655.331C1598.66 619.299 1610.81 576.399 1644.09 559.512C1645.81 558.636 1647.57 557.902 1649.34 557.198C1643.16 537.261 1638.5 517.168 1635.38 497.068C1633.47 497.063 1631.56 497.03 1629.61 496.856C1591.65 493.465 1561.53 458.576 1562.33 418.927C1563.13 379.278 1594.56 349.884 1632.52 353.275C1634.5 353.454 1636.45 353.766 1638.39 354.111C1642.36 334.463 1647.8 315.27 1654.66 296.695C1652.91 295.673 1651.17 294.617 1649.47 293.428C1617 270.668 1606.62 225.756 1626.3 193.115C1645.98 160.474 1688.25 152.465 1720.73 175.224C1722.39 176.391 1723.96 177.65 1725.5 178.929C1738.33 164.751 1752.41 151.611 1767.63 139.62C1766.56 137.865 1765.51 136.087 1764.57 134.22C1746.28 98.1884 1722.38 58.8293 1755.92 42.4643C1833.5 4.60833 1866.78 37.0324 1885.07 73.0644C1886.02 74.9314 1886.84 76.8264 1887.62 78.7254C1906.29 73.5174 1925.2 69.9173 1944.22 67.9323C1944.1 65.9293 1944.01 63.9224 1944.05 61.8904C1944.85 22.2434 1933.09 0.785359 1971.2 0.0513592C2054.29 -1.54964 2082.32 34.5233 2081.52 74.1693C2081.48 76.2423 2081.3 78.2683 2081.1 80.2813C2100.14 85.7123 2118.84 92.6563 2137.04 101.052C2137.91 99.2843 2138.81 97.5263 2139.83 95.8183C2159.51 63.1773 2201.78 55.1683 2234.26 77.9303C2266.73 100.691 2277.11 145.602 2257.43 178.243C2256.43 179.916 2255.32 181.479 2254.2 183.022C2268.58 197.41 2282.05 213.031 2294.49 229.789C2296.1 228.78 2297.73 227.793 2299.46 226.918C2332.73 210.031 2374.53 225.55 2392.82 261.582C2411.1 297.614 2398.95 340.514 2365.68 357.401C2363.95 358.277 2362.19 359.011 2360.43 359.715C2366.6 379.652 2371.26 399.745 2374.38 419.845C2376.29 419.851 2378.21 419.883 2380.15 420.056C2418.11 423.448 2448.23 458.337 2447.43 497.987C2446.63 537.636 2415.21 567.027 2377.24 563.636C2375.26 563.459 2373.31 563.147 2371.37 562.801C2367.41 582.449 2361.97 601.641 2355.11 620.217C2356.86 621.239 2358.59 622.295 2360.29 623.484C2392.76 646.244 2403.14 691.156 2383.46 723.797C2363.79 756.439 2298.67 771.593 2266.19 748.833C2264.53 747.666 2285.81 739.262 2284.26 737.984C2271.43 752.163 2257.36 765.302 2242.14 777.294C2243.2 779.049 2244.25 780.826 2245.2 782.693C2263.49 818.725 2251.33 861.625 2218.06 878.512C2184.78 895.4 2142.98 879.881 2124.69 843.849C2123.75 841.983 2122.93 840.087 2122.15 838.188C2103.48 843.396 2084.57 846.997 2065.55 848.981C2065.66 850.984 2065.76 852.991 2065.72 855.024C2064.91 894.671 2033.49 924.064 1995.53 920.674C1957.57 917.283 1927.44 882.393 1928.25 842.745C1928.29 840.673 1928.46 838.647 1928.67 836.634C1909.63 831.203 1890.93 824.26 1872.72 815.863C1871.86 817.631 1870.96 819.389 1869.93 821.094C1850.26 853.735 1807.98 861.746 1775.51 838.984C1743.03 816.222 1732.66 771.312 1752.33 738.669C1753.34 736.999 1754.44 735.435 1755.57 733.892C1741.19 719.505 1727.72 703.883 1715.28 687.126C1713.66 688.134 1712.03 689.12 1710.31 689.995ZM2125.1 695.334C2245.92 634.018 2290.04 478.259 2223.65 347.435C2157.25 216.611 2005.49 160.264 1884.67 221.579C1763.85 282.894 1719.73 438.653 1786.12 569.477C1852.51 700.301 2004.27 756.649 2125.1 695.334Z" fill="#26264F"/>
<path d="M1629.61 496.856C1591.65 493.464 1561.53 458.574 1562.33 418.926C1563.13 379.278 1594.56 349.884 1632.52 353.276C1634.5 353.453 1636.45 353.768 1638.39 354.112C1642.36 334.464 1647.8 315.272 1654.66 296.696C1652.91 295.675 1651.17 294.618 1649.47 293.428C1617 270.668 1576.83 215.681 1599.75 185.231C1643.25 127.439 1688.25 152.466 1720.73 175.225C1722.39 176.392 1723.95 177.651 1725.5 178.928C1738.33 164.749 1752.4 151.611 1767.63 139.619C1766.56 137.864 1765.51 136.087 1764.56 134.221C1754.61 114.611 1753.74 92.9923 1760.32 74.6143C1791.68 129.833 1822.61 185.284 1853 241.037C1756.61 311.642 1725.9 450.813 1786.12 569.478C1837.15 670.035 1938.62 726.512 2037.7 719.456C2042.12 730.919 2046.46 742.446 2051.19 753.798C2064.03 784.608 2078.62 814.783 2093.22 844.919C2084.03 846.65 2074.8 848.011 2065.55 848.979C2065.67 850.983 2065.76 852.99 2065.72 855.021C2064.92 894.67 2040.84 928.351 1972.04 924.69C1933.98 922.665 1927.45 882.391 1928.25 842.742C1928.29 840.671 1928.46 838.645 1928.67 836.632C1909.63 831.201 1890.93 824.257 1872.73 815.86C1871.86 817.629 1870.96 819.385 1869.93 821.091C1850.26 853.733 1782.02 867.591 1749.55 844.83C1717.07 822.068 1732.66 771.31 1752.33 738.669C1753.34 736.997 1754.44 735.433 1755.57 733.89C1741.19 719.503 1727.72 703.881 1715.28 687.125C1713.67 688.135 1712.03 689.121 1710.31 689.994C1677.03 706.884 1635.23 691.362 1616.95 655.33C1598.66 619.3 1610.81 576.398 1644.09 559.512C1645.81 558.636 1647.57 557.902 1649.34 557.199C1643.16 537.262 1638.5 517.168 1635.38 497.07C1633.47 497.062 1631.56 497.029 1629.61 496.856Z" fill="#26264F"/>
<path d="M1674.52 694.058C1641.24 710.946 1599.44 695.427 1581.16 659.394C1562.87 623.362 1575.02 580.463 1608.3 563.575C1610.03 562.7 1611.79 561.965 1613.55 561.261C1607.37 541.324 1602.71 521.231 1599.59 501.131C1597.69 501.126 1595.77 501.093 1593.83 500.919C1555.87 497.528 1525.74 462.639 1526.55 422.99C1527.35 383.34 1558.77 353.948 1596.73 357.339C1598.72 357.517 1600.67 357.83 1602.6 358.175C1606.57 338.527 1612.01 319.335 1618.87 300.759C1617.12 299.737 1615.38 298.681 1613.69 297.492C1581.21 274.732 1570.84 229.82 1590.51 197.178C1610.19 164.537 1652.46 156.527 1684.94 179.287C1686.6 180.454 1688.17 181.714 1689.72 182.991C1702.55 168.813 1716.62 155.674 1731.84 143.682C1730.77 141.927 1729.73 140.149 1728.78 138.283C1710.49 102.251 1722.65 59.3513 1755.92 42.4643C1789.2 25.5763 1831 41.0964 1849.28 77.1274C1850.23 78.9944 1851.05 80.8893 1851.83 82.7893C1870.5 77.5813 1889.41 73.9803 1908.43 71.9953C1908.31 69.9913 1908.22 67.9853 1908.26 65.9533C1909.06 26.3053 1940.49 -3.08664 1978.45 0.304357C2016.41 3.69436 2046.53 38.5853 2045.73 78.2323C2045.69 80.3043 2045.52 82.3304 2045.31 84.3434C2064.35 89.7754 2083.05 96.7183 2101.25 105.115C2102.12 103.346 2103.02 101.589 2104.04 99.8814C2123.72 67.2404 2166 59.2313 2198.47 81.9923C2230.95 104.754 2241.32 149.665 2221.65 182.306C2220.64 183.978 2219.53 185.542 2218.41 187.085C2232.79 201.472 2246.26 217.093 2258.7 233.851C2260.31 232.842 2261.94 231.855 2263.67 230.981C2296.95 214.093 2338.75 229.613 2357.03 265.644C2375.32 301.676 2363.17 344.576 2329.89 361.463C2328.16 362.338 2326.41 363.073 2324.64 363.776C2330.82 383.713 2335.48 403.806 2338.6 423.906C2340.5 423.912 2342.42 423.944 2344.36 424.116C2382.32 427.509 2412.45 462.398 2411.64 502.046C2410.84 541.695 2379.42 571.086 2341.46 567.696C2339.47 567.519 2337.52 567.207 2335.59 566.861C2331.62 586.508 2326.18 605.701 2319.32 624.277C2321.07 625.298 2322.81 626.354 2324.5 627.545C2356.98 650.304 2367.35 695.217 2347.68 727.858C2328 760.5 2285.73 768.509 2253.25 745.75C2251.59 744.582 2250.02 743.324 2248.48 742.045C2235.64 756.224 2221.57 769.363 2206.35 781.354C2207.42 783.109 2208.47 784.887 2209.41 786.754C2227.7 822.785 2215.55 865.685 2182.27 882.573C2148.99 899.46 2107.19 883.941 2088.91 847.909C2087.96 846.043 2087.14 844.147 2086.36 842.248C2067.69 847.456 2048.78 851.056 2029.76 853.041C2029.88 855.044 2029.97 857.051 2029.93 859.083C2029.13 898.73 1997.7 928.124 1959.74 924.733C1921.78 921.342 1891.66 886.451 1892.46 846.804C1892.5 844.732 1892.67 842.706 1892.88 840.694C1873.84 835.263 1855.14 828.32 1836.94 819.922C1836.07 821.69 1835.17 823.448 1834.14 825.152C1814.47 857.793 1772.19 865.805 1739.72 843.043C1707.24 820.281 1696.87 775.371 1716.54 742.728C1717.55 741.057 1718.66 739.493 1719.78 737.951C1705.4 723.564 1691.93 707.942 1679.49 691.184C1677.88 692.196 1676.24 693.183 1674.52 694.058ZM2089.31 699.396C2210.13 638.08 2254.25 482.322 2187.86 351.498C2121.46 220.675 1969.7 164.327 1848.88 225.643C1728.06 286.959 1683.94 442.717 1750.33 573.541C1816.72 704.365 1968.49 760.711 2089.31 699.396Z" fill="url(#paint14_linear_42_688)"/>
</g>
<g class="gear-small">
<path d="M2374.7 1270.91C2350.26 1283.32 2319.55 1271.92 2306.12 1245.45C2292.68 1218.98 2301.61 1187.47 2326.06 1175.06C2327.32 1174.42 2328.62 1173.88 2329.91 1173.36C2325.37 1158.71 2321.95 1143.95 2319.66 1129.19C2318.26 1129.18 2316.85 1129.16 2315.42 1129.03C2287.54 1126.54 2265.41 1100.91 2266 1071.78C2266.58 1042.66 2289.67 1021.07 2317.56 1023.56C2319.01 1023.69 2320.44 1023.92 2321.87 1024.17C2324.78 1009.74 2328.78 995.637 2333.82 981.992C2332.53 981.241 2331.26 980.465 2330.01 979.592C2306.15 962.873 2298.53 929.88 2312.99 905.902C2327.44 881.924 2358.5 876.04 2382.35 892.759C2383.57 893.616 2384.72 894.541 2385.86 895.481C2395.28 885.066 2405.62 875.413 2416.81 866.604C2416.02 865.315 2415.25 864.009 2414.56 862.637C2401.12 836.168 2383.57 807.254 2408.2 795.233C2465.2 767.424 2489.65 791.243 2503.08 817.712C2503.77 819.083 2504.37 820.476 2504.95 821.871C2518.66 818.045 2532.56 815.4 2546.53 813.942C2546.44 812.47 2546.37 810.996 2546.4 809.503C2546.99 780.378 2538.35 764.615 2566.35 764.076C2627.39 762.9 2647.98 789.399 2647.39 818.523C2647.36 820.046 2647.23 821.534 2647.08 823.013C2661.07 827.003 2674.8 832.103 2688.17 838.272C2688.81 836.973 2689.47 835.682 2690.23 834.427C2704.68 810.449 2735.73 804.566 2759.59 821.287C2783.45 838.007 2791.07 870.999 2776.62 894.977C2775.88 896.206 2775.06 897.354 2774.24 898.487C2784.8 909.056 2794.7 920.532 2803.84 932.842C2805.02 932.101 2806.22 931.376 2807.49 930.733C2831.93 918.327 2862.64 929.728 2876.07 956.197C2889.5 982.666 2880.58 1014.18 2856.13 1026.59C2854.86 1027.23 2853.57 1027.77 2852.27 1028.29C2856.81 1042.93 2860.23 1057.69 2862.53 1072.46C2863.93 1072.46 2865.33 1072.49 2866.76 1072.61C2894.65 1075.1 2916.78 1100.73 2916.19 1129.86C2915.6 1158.99 2892.51 1180.58 2864.63 1178.09C2863.17 1177.96 2861.74 1177.73 2860.32 1177.47C2857.4 1191.91 2853.41 1206.01 2848.37 1219.65C2849.65 1220.4 2850.93 1221.18 2852.17 1222.05C2876.03 1238.77 2883.65 1271.76 2869.2 1295.74C2854.74 1319.72 2806.91 1330.85 2783.05 1314.13C2781.83 1313.28 2797.46 1307.1 2796.32 1306.16C2786.9 1316.58 2776.56 1326.23 2765.38 1335.04C2766.16 1336.33 2766.93 1337.63 2767.63 1339.01C2781.06 1365.47 2772.13 1396.99 2747.69 1409.39C2723.24 1421.8 2692.54 1410.4 2679.1 1383.93C2678.41 1382.56 2677.81 1381.17 2677.23 1379.77C2663.52 1383.6 2649.63 1386.24 2635.65 1387.7C2635.74 1389.17 2635.81 1390.65 2635.78 1392.14C2635.19 1421.26 2612.11 1442.86 2584.22 1440.37C2556.33 1437.87 2534.2 1412.24 2534.79 1383.12C2534.83 1381.6 2534.95 1380.11 2535.1 1378.63C2521.12 1374.64 2507.38 1369.54 2494.01 1363.37C2493.37 1364.67 2492.71 1365.96 2491.96 1367.21C2477.5 1391.19 2446.45 1397.08 2422.59 1380.36C2398.74 1363.63 2391.11 1330.64 2405.57 1306.66C2406.31 1305.44 2407.12 1304.29 2407.94 1303.16C2397.38 1292.59 2387.49 1281.11 2378.35 1268.8C2377.17 1269.55 2375.97 1270.27 2374.7 1270.91ZM2679.4 1274.83C2768.16 1229.79 2800.57 1115.37 2751.8 1019.27C2703.03 923.163 2591.54 881.771 2502.79 926.813C2414.03 971.855 2381.62 1086.28 2430.39 1182.38C2479.16 1278.48 2590.65 1319.88 2679.4 1274.83Z" fill="#26264F"/>
<path d="M2315.42 1129.03C2287.54 1126.54 2265.41 1100.91 2266 1071.78C2266.59 1042.66 2289.67 1021.07 2317.56 1023.56C2319.01 1023.69 2320.45 1023.92 2321.87 1024.17C2324.78 1009.74 2328.78 995.64 2333.82 981.994C2332.53 981.244 2331.26 980.467 2330.01 979.593C2306.16 962.874 2276.65 922.48 2293.48 900.111C2325.44 857.657 2358.5 876.042 2382.35 892.761C2383.57 893.618 2384.72 894.543 2385.86 895.482C2395.29 885.066 2405.62 875.415 2416.81 866.606C2416.02 865.317 2415.25 864.012 2414.56 862.641C2407.25 848.235 2406.6 832.354 2411.44 818.854C2434.47 859.418 2457.2 900.153 2479.52 941.108C2408.71 992.975 2386.15 1095.21 2430.39 1182.38C2467.88 1256.25 2542.42 1297.74 2615.2 1292.56C2618.45 1300.98 2621.64 1309.44 2625.11 1317.78C2634.54 1340.42 2645.26 1362.58 2655.99 1384.72C2649.24 1385.99 2642.46 1386.99 2635.66 1387.7C2635.74 1389.17 2635.81 1390.65 2635.78 1392.14C2635.19 1421.27 2617.51 1446.01 2566.96 1443.32C2539.01 1441.83 2534.21 1412.25 2534.8 1383.12C2534.83 1381.6 2534.95 1380.11 2535.11 1378.63C2521.12 1374.64 2507.38 1369.54 2494.01 1363.37C2493.37 1364.67 2492.71 1365.96 2491.96 1367.22C2477.5 1391.2 2427.38 1401.38 2403.52 1384.66C2379.66 1367.93 2391.12 1330.65 2405.57 1306.67C2406.31 1305.44 2407.12 1304.29 2407.94 1303.16C2397.38 1292.59 2387.49 1281.12 2378.35 1268.81C2377.16 1269.55 2375.97 1270.27 2374.7 1270.91C2350.25 1283.32 2319.55 1271.92 2306.12 1245.45C2292.68 1218.98 2301.61 1187.47 2326.06 1175.06C2327.32 1174.42 2328.61 1173.88 2329.91 1173.36C2325.37 1158.72 2321.95 1143.96 2319.66 1129.19C2318.26 1129.18 2316.85 1129.16 2315.42 1129.03Z" fill="#26264F"/>
<path d="M2348.41 1273.9C2323.97 1286.3 2293.26 1274.9 2279.83 1248.43C2266.39 1221.96 2275.32 1190.45 2299.77 1178.04C2301.03 1177.4 2302.32 1176.86 2303.62 1176.34C2299.08 1161.7 2295.66 1146.94 2293.37 1132.17C2291.97 1132.17 2290.56 1132.14 2289.13 1132.02C2261.24 1129.52 2239.12 1103.9 2239.71 1074.77C2240.29 1045.64 2263.38 1024.05 2291.27 1026.54C2292.72 1026.67 2294.15 1026.9 2295.58 1027.16C2298.49 1012.72 2302.49 998.624 2307.53 984.978C2306.24 984.227 2304.97 983.452 2303.72 982.578C2279.86 965.859 2272.24 932.866 2286.7 908.888C2301.15 884.91 2332.21 879.026 2356.06 895.746C2357.28 896.603 2358.43 897.528 2359.57 898.467C2368.99 888.052 2379.33 878.4 2390.52 869.591C2389.73 868.302 2388.96 866.996 2388.26 865.625C2374.83 839.156 2383.76 807.642 2408.2 795.236C2432.65 782.83 2463.35 794.231 2476.79 820.7C2477.48 822.071 2478.08 823.464 2478.66 824.859C2492.37 821.033 2506.26 818.388 2520.24 816.93C2520.15 815.458 2520.08 813.984 2520.11 812.491C2520.7 783.366 2543.79 761.774 2571.67 764.265C2599.56 766.755 2621.69 792.386 2621.1 821.511C2621.07 823.033 2620.94 824.521 2620.79 826C2634.78 829.99 2648.51 835.091 2661.88 841.26C2662.52 839.961 2663.18 838.67 2663.93 837.415C2678.39 813.437 2709.44 807.553 2733.3 824.274C2757.16 840.995 2764.78 873.987 2750.32 897.965C2749.58 899.193 2748.77 900.342 2747.95 901.475C2758.51 912.044 2768.41 923.519 2777.55 935.83C2778.73 935.089 2779.93 934.364 2781.2 933.722C2805.64 921.316 2836.35 932.717 2849.78 959.186C2863.21 985.655 2854.29 1017.17 2829.84 1029.58C2828.57 1030.22 2827.28 1030.76 2825.99 1031.28C2830.52 1045.92 2833.95 1060.68 2836.24 1075.45C2837.64 1075.45 2839.05 1075.48 2840.47 1075.6C2868.36 1078.09 2890.49 1103.72 2889.9 1132.85C2889.31 1161.98 2866.23 1183.57 2838.34 1181.08C2836.88 1180.95 2835.45 1180.72 2834.03 1180.46C2831.11 1194.9 2827.12 1208.99 2822.08 1222.64C2823.36 1223.39 2824.64 1224.17 2825.89 1225.04C2849.74 1241.76 2857.36 1274.75 2842.91 1298.73C2828.46 1322.71 2797.4 1328.59 2773.55 1311.87C2772.32 1311.02 2771.17 1310.09 2770.04 1309.15C2760.61 1319.57 2750.27 1329.22 2739.09 1338.03C2739.87 1339.32 2740.64 1340.62 2741.34 1342C2754.77 1368.47 2745.85 1399.98 2721.4 1412.39C2696.95 1424.79 2666.25 1413.39 2652.82 1386.92C2652.12 1385.55 2651.52 1384.16 2650.94 1382.76C2637.23 1386.59 2623.34 1389.23 2609.37 1390.69C2609.45 1392.16 2609.52 1393.64 2609.49 1395.13C2608.9 1424.26 2585.82 1445.85 2557.93 1443.36C2530.04 1440.87 2507.92 1415.24 2508.51 1386.11C2508.54 1384.59 2508.66 1383.1 2508.81 1381.62C2494.83 1377.63 2481.09 1372.53 2467.72 1366.36C2467.08 1367.66 2466.42 1368.95 2465.67 1370.2C2451.21 1394.18 2420.16 1400.07 2396.3 1383.35C2372.45 1366.63 2364.82 1333.64 2379.28 1309.66C2380.02 1308.43 2380.83 1307.28 2381.65 1306.15C2371.09 1295.58 2361.2 1284.1 2352.05 1271.79C2350.88 1272.53 2349.68 1273.25 2348.41 1273.9ZM2653.11 1277.82C2741.87 1232.78 2774.28 1118.36 2725.51 1022.25C2676.74 926.149 2565.25 884.756 2476.5 929.798C2387.74 974.841 2355.33 1089.26 2404.1 1185.36C2452.87 1281.47 2564.36 1322.86 2653.11 1277.82Z" fill="url(#paint15_linear_42_688)"/>
</g>
<path d="M223.91 1742.48L139.395 2690.83C138.116 2705.19 148.088 2717.96 161.579 2719.2L618.835 2766.3C646.192 2767.75 660.668 2752.91 661.897 2738L743.011 1753.37C744.209 1738.83 730.622 1725.13 703.594 1724.14L250.533 1717.48C237.128 1717.22 225.159 1728.47 223.91 1742.48Z" fill="url(#paint16_linear_42_688)"/>
<path d="M203.139 1740.12L117.861 2694.15C116.569 2708.6 126.594 2721.44 140.163 2722.7L614.623 2766.48C629.17 2767.82 642.109 2756.64 643.349 2741.64L725.184 1751.06C726.392 1736.44 715.544 1724.25 701.104 1723.98L229.921 1714.98C216.439 1714.72 204.398 1726.03 203.139 1740.12Z" fill="url(#paint17_linear_42_688)"/>
<path d="M213.684 1792.77L134.814 2677.04C133.612 2690.52 142.984 2702.5 155.664 2703.65L601.742 2744.15C615.279 2745.38 627.321 2734.95 628.479 2720.98L704.354 1804.9C705.484 1791.26 695.389 1779.85 681.944 1779.54L238.719 1769.34C226.115 1769.05 214.859 1779.59 213.684 1792.77Z" fill="white"/>
<path d="M213.683 1792.77C214.859 1779.59 226.114 1769.05 238.718 1769.34L681.942 1779.54C695.387 1779.85 705.483 1791.26 704.352 1804.9L693.493 1936.01L201.965 1924.14L213.683 1792.77Z" fill="url(#paint18_linear_42_688)"/>
<path d="M450.336 1748.19C449.907 1753.16 453.476 1757.28 458.311 1757.38C463.149 1757.49 467.42 1753.54 467.848 1748.56C468.276 1743.58 464.699 1739.46 459.862 1739.36C455.028 1739.26 450.764 1743.21 450.336 1748.19Z" fill="url(#paint19_linear_42_688)"/>
<path d="M389.029 2287.25L610.807 2298.2L641.427 1984.75L418.414 1979.06L389.029 2287.25Z" fill="url(#paint20_linear_42_688)"/>
<path d="M224.549 2279.12L354.833 2285.56L384.031 1978.19L253.035 1974.84L224.549 2279.12Z" fill="url(#paint21_linear_42_688)"/>
<path d="M201.591 2524.36L586.135 2550.77L606.824 2338.98L220.842 2318.71L201.591 2524.36Z" fill="url(#paint22_linear_42_688)"/>
<path d="M189.606 2652.37L573.258 2682.6L582.525 2587.73L198.231 2560.24L189.606 2652.37Z" fill="url(#paint23_linear_42_688)"/>
<g opacity="0.48">
<path d="M317.14 2395.05C363.136 2234.34 497.245 2250.41 537.351 2105.2C570.29 1985.93 494.339 1923.06 540.41 1823.21C562.078 1776.25 600.039 1744.5 639.404 1722.8L701.104 1723.98C715.545 1724.25 726.392 1736.44 725.184 1751.06L643.35 2741.64C642.11 2756.64 629.17 2767.82 614.623 2766.48L225.608 2730.58C250.482 2699.03 274.085 2660.41 290.465 2614.02C325.138 2515.83 291.705 2483.91 317.14 2395.05Z" fill="white"/>
</g>
<defs>
<linearGradient id="paint0_linear_42_688" x1="154.686" y1="881.557" x2="3770.38" y2="794.443" gradientUnits="userSpaceOnUse">
<stop stop-color="#FFC444"/>
<stop offset="0.9964" stop-color="#F36F56"/>
</linearGradient>
<linearGradient id="paint1_linear_42_688" x1="855.82" y1="105.802" x2="2318.25" y2="2244.47" gradientUnits="userSpaceOnUse">
<stop stop-color="#AA80F9"/>
<stop offset="0.9964" stop-color="#6165D7"/>
</linearGradient>
<linearGradient id="paint2_linear_42_688" x1="2539.01" y1="1508.99" x2="2076.73" y2="1460.7" gradientUnits="userSpaceOnUse">
<stop offset="0.0036" stop-color="#26264F"/>
<stop offset="1" stop-color="#444B8C"/>
</linearGradient>
<linearGradient id="paint3_linear_42_688" x1="1553.58" y1="2921.26" x2="1455.64" y2="2780.97" gradientUnits="userSpaceOnUse">
<stop stop-color="#444B8C"/>
<stop offset="0.9964" stop-color="#26264F"/>
</linearGradient>
<linearGradient id="paint4_linear_42_688" x1="1257.09" y1="2885.3" x2="1406.99" y2="2071.57" gradientUnits="userSpaceOnUse">
<stop stop-color="#444B8C"/>
<stop offset="0.9964" stop-color="#26264F"/>
</linearGradient>
<linearGradient id="paint5_linear_42_688" x1="887.315" y1="638.941" x2="137.181" y2="-431.674" gradientUnits="userSpaceOnUse">
<stop stop-color="#444B8C"/>
<stop offset="0.9964" stop-color="#26264F"/>
</linearGradient>
<linearGradient id="paint6_linear_42_688" x1="1213.12" y1="766.06" x2="2151.44" y2="3746.29" gradientUnits="userSpaceOnUse">
<stop stop-color="#444B8C"/>
<stop offset="0.9964" stop-color="#26264F"/>
</linearGradient>
<linearGradient id="paint7_linear_42_688" x1="1162.26" y1="948.49" x2="2041.92" y2="2762.33" gradientUnits="userSpaceOnUse">
<stop offset="0.0036" stop-color="#E38DDD"/>
<stop offset="1" stop-color="#9571F6"/>
</linearGradient>
<linearGradient id="paint8_linear_42_688" x1="1394.55" y1="732.844" x2="1446.46" y2="1162.51" gradientUnits="userSpaceOnUse">
<stop stop-color="#FF9085"/>
<stop offset="1" stop-color="#FB6FBB"/>
</linearGradient>
<linearGradient id="paint9_linear_42_688" x1="2671.8" y1="2240.85" x2="1742.27" y2="2240.85" gradientUnits="userSpaceOnUse">
<stop stop-color="#FFC444"/>
<stop offset="0.9964" stop-color="#F36F56"/>
</linearGradient>
<linearGradient id="paint10_linear_42_688" x1="2017.55" y1="1481.09" x2="836.169" y2="1481.09" gradientUnits="userSpaceOnUse">
<stop stop-color="#FFC444"/>
<stop offset="0.9964" stop-color="#F36F56"/>
</linearGradient>
<linearGradient id="paint11_linear_42_688" x1="2671.8" y1="2240.85" x2="1742.27" y2="2240.85" gradientUnits="userSpaceOnUse">
<stop stop-color="#FFC444"/>
<stop offset="0.9964" stop-color="#F36F56"/>
</linearGradient>
<linearGradient id="paint12_linear_42_688" x1="1003.64" y1="2015.01" x2="1541.77" y2="1305.26" gradientUnits="userSpaceOnUse">
<stop stop-color="#FFC444"/>
<stop offset="0.9964" stop-color="#F36F56"/>
</linearGradient>
<linearGradient id="paint13_linear_42_688" x1="1951.74" y1="1497.96" x2="837.362" y2="1497.96" gradientUnits="userSpaceOnUse">
<stop stop-color="#FFC444"/>
<stop offset="0.9964" stop-color="#F36F56"/>
</linearGradient>
<linearGradient id="paint14_linear_42_688" x1="2411.66" y1="462.52" x2="1526.53" y2="462.52" gradientUnits="userSpaceOnUse">
<stop stop-color="#AA80F9"/>
<stop offset="0.9964" stop-color="#6165D7"/>
</linearGradient>
<linearGradient id="paint15_linear_42_688" x1="2889.91" y1="1103.81" x2="2239.7" y2="1103.81" gradientUnits="userSpaceOnUse">
<stop stop-color="#AA80F9"/>
<stop offset="0.9964" stop-color="#6165D7"/>
</linearGradient>
<linearGradient id="paint16_linear_42_688" x1="760.903" y1="2229.86" x2="122.897" y2="2253.61" gradientUnits="userSpaceOnUse">
<stop stop-color="#444B8C"/>
<stop offset="0.9964" stop-color="#26264F"/>
</linearGradient>
<linearGradient id="paint17_linear_42_688" x1="490.062" y1="2393.08" x2="392.815" y2="2151.7" gradientUnits="userSpaceOnUse">
<stop stop-color="#444B8C"/>
<stop offset="0.9964" stop-color="#26264F"/>
</linearGradient>
<linearGradient id="paint18_linear_42_688" x1="582.656" y1="2047.58" x2="250.607" y2="1565.82" gradientUnits="userSpaceOnUse">
<stop stop-color="#FF9085"/>
<stop offset="1" stop-color="#FB6FBB"/>
</linearGradient>
<linearGradient id="paint19_linear_42_688" x1="444.267" y1="1712.4" x2="1040.49" y2="3159.12" gradientUnits="userSpaceOnUse">
<stop stop-color="#FFC444"/>
<stop offset="0.9964" stop-color="#F36F56"/>
</linearGradient>
<linearGradient id="paint20_linear_42_688" x1="567.363" y1="2044.66" x2="296.47" y2="2608.32" gradientUnits="userSpaceOnUse">
<stop offset="0.0036" stop-color="#E38DDD"/>
<stop offset="1" stop-color="#9571F6"/>
</linearGradient>
<linearGradient id="paint21_linear_42_688" x1="456.45" y1="1858.51" x2="144.632" y2="2507.33" gradientUnits="userSpaceOnUse">
<stop offset="0.0036" stop-color="#E38DDD"/>
<stop offset="1" stop-color="#9571F6"/>
</linearGradient>
<linearGradient id="paint22_linear_42_688" x1="538.052" y1="2195.03" x2="322.228" y2="2644.11" gradientUnits="userSpaceOnUse">
<stop offset="0.0036" stop-color="#E38DDD"/>
<stop offset="1" stop-color="#9571F6"/>
</linearGradient>
<linearGradient id="paint23_linear_42_688" x1="475.139" y1="2462.17" x2="331.225" y2="2761.63" gradientUnits="userSpaceOnUse">
<stop offset="0.0036" stop-color="#E38DDD"/>
<stop offset="1" stop-color="#9571F6"/>
</linearGradient>
</defs>
</svg>
