<svg width="2869" height="2909" viewBox="0 0 2869 2909" fill="none" xmlns="http://www.w3.org/2000/svg">

<style>

.hero-screen{
animation:heroScreenGlow 4s ease-in-out infinite;
}

.hero-dot{
transform-box:fill-box;
transform-origin:center;
animation:heroDotPulse 2s ease-in-out infinite;
}

.hero-dot-2{animation-delay:.25s;}
.hero-dot-3{animation-delay:.5s;}

.hero-popup{
animation:heroPopupFloat 6s ease-in-out infinite;
}

/* КАРТОЧКИ */

.hero-card{
transform-box:fill-box;
transform-origin:center;
animation:heroCardSlide 7s ease-in-out infinite;
}

.hero-card-2{
animation-delay:2s;
}

.hero-card-3{
animation-delay:4s;
}

/* glow экрана */

@keyframes heroScreenGlow{
0%,100%{opacity:1}
50%{opacity:.85}
}

/* точки */

@keyframes heroDotPulse{
0%,100%{
transform:scale(1);
opacity:1;
}
50%{
transform:scale(1.5);
opacity:.5;
}
}

/* popup */

@keyframes heroPopupFloat{
0%,100%{
transform:translateY(0) rotate(0deg);
}

25%{
transform:translateY(-20px) rotate(.6deg);
}

75%{
transform:translateY(12px) rotate(-.6deg);
}
}

/* НОВАЯ АНИМАЦИЯ КАРТОЧЕК */

@keyframes heroCardSlide{

0%{
transform:translateX(-120px) rotate(-3deg);
}

25%{
transform:translateX(-40px) rotate(-1deg);
}

50%{
transform:translateX(80px) rotate(2deg);
}

75%{
transform:translateX(20px) rotate(1deg);
}

100%{
transform:translateX(-120px) rotate(-3deg);
}

}

</style>
<path d="M689.505 174.818C593.173 315.244 706.124 542.909 563.184 648.521C424.042 751.327 253.111 582.815 121.979 671.309C-72.5482 802.585 -37.0242 1403.28 247.385 1776.51C332.916 1888.75 404.383 1932.42 436.035 2059.36C504.001 2331.93 265.133 2494.07 310.59 2628.88C412.941 2932.42 1987.03 3187.13 2618.62 2274.89C2913.6 1848.83 2957.74 1233.61 2694.18 766.337C2217.94 -78.0094 905.658 -140.273 689.505 174.818Z" fill="#F4F7FA"/>
<path d="M171.828 2440.86C117.612 2444.03 73.2928 2406.13 73.2928 2356.36V562.693C73.2928 512.927 117.612 474.047 171.828 476.015L2730.97 568.88C2772.43 570.385 2806.03 606.784 2806.03 650.024V2208.53C2806.03 2251.77 2772.43 2288.92 2730.97 2291.34L171.828 2440.86Z" fill="url(#paint0_linear_42_792)"/>
<path d="M1840.28 2639.39C1799.38 2625.15 1768.81 2588.73 1760.19 2543.96L1700.65 2234.82L1191.38 2253.79L1128.7 2575.85C1119.92 2620.96 1155.06 2666.21 1195.53 2682.82L1408.6 2770.29C1448.23 2786.56 1490.83 2793.04 1533.17 2789.24L1983.46 2748.82C1996.62 2747.64 2007.18 2736.78 2008.71 2722.85C2010.24 2708.93 2019.47 2693.29 2006.92 2688.92L1840.28 2639.39Z" fill="url(#paint1_linear_42_792)"/>
<path d="M1845.32 2620.59C1804.46 2606.53 1773.92 2570.57 1765.31 2526.36L1705.83 2221.1L1208.97 2239.86L1146.36 2557.87C1137.59 2602.41 1160.79 2647.07 1201.22 2663.47L1414.07 2749.84C1453.66 2765.9 1496.22 2772.3 1538.52 2768.55L1988.35 2728.64C2001.5 2727.47 2012.05 2716.76 2013.58 2703C2015.11 2689.25 2007.2 2676.27 1994.66 2671.96L1845.32 2620.59Z" fill="url(#paint2_linear_42_792)"/>
<path d="M192.089 2440.86C137.873 2444.03 93.5537 2406.13 93.5537 2356.36V562.693C93.5537 512.927 137.873 474.047 192.089 476.015L2751.23 568.88C2792.69 570.385 2826.29 606.784 2826.29 650.024V2208.53C2826.29 2251.77 2792.69 2288.92 2751.23 2291.34L192.089 2440.86Z" fill="url(#paint3_linear_42_792)"/>
<path d="M2751.23 605.536L192.09 517.83C163.1 516.837 139.539 537.58 139.539 564.163V1959.67V2353.87C139.539 2380.46 163.099 2400.68 192.09 2399.04L2751.23 2254.68C2773.45 2253.43 2791.42 2233.61 2791.42 2210.42V1854.25V648.91C2791.42 625.717 2773.45 606.298 2751.23 605.536Z" fill="url(#paint4_linear_42_792)"/>
<path class="hero-screen" d="M192.089 2246.55C180.801 2247.1 171.61 2239.13 171.61 2228.79V565.187C171.61 554.846 180.801 546.731 192.089 547.102L2751.23 631.197C2759.9 631.482 2766.94 639.078 2766.94 648.127V2103.81C2766.94 2112.86 2759.9 2120.57 2751.23 2121L192.089 2246.55Z" fill="url(#paint5_linear_42_792)"/>
<path opacity="0.68" d="M2664.08 2031.3L304.346 2134.93V795.733L2664.08 845.262V2031.3Z" fill="white"/>
<path d="M2664.08 804.746L304.346 749.984V635.612L2664.08 703.454V804.746Z" fill="url(#paint6_linear_42_792)"/>
<path class="hero-dot" d="M2484.85 749.444C2484.85 756.676 2479.16 762.396 2472.13 762.218C2465.09 762.041 2459.39 756.025 2459.39 748.783C2459.39 741.54 2465.09 735.821 2472.13 736.009C2479.16 736.197 2484.85 742.212 2484.85 749.444Z" fill="url(#paint7_linear_42_792)"/>
<path class="hero-dot hero-dot-2" d="M2537.08 750.801C2537.08 758.014 2531.42 763.717 2524.43 763.54C2517.43 763.363 2511.75 757.365 2511.75 750.143C2511.75 742.921 2517.43 737.218 2524.43 737.405C2531.42 737.591 2537.08 743.589 2537.08 750.801Z" fill="url(#paint8_linear_42_792)"/>
<path class="hero-dot hero-dot-3" d="M2589.01 752.15C2589.01 759.342 2583.38 765.029 2576.43 764.853C2569.47 764.678 2563.83 758.697 2563.83 751.495C2563.83 744.293 2569.47 738.606 2576.43 738.792C2583.38 738.978 2589.01 744.958 2589.01 752.15Z" fill="url(#paint9_linear_42_792)"/>
<path opacity="0.68" d="M2186.48 1817.56L355.815 1875.04V830.521L2186.48 865.948V1817.56Z" fill="white"/>
<g class="hero-card">
<path opacity="0.68" d="M2638.87 1142.59L2218.5 1140.61V866.567L2638.87 874.702V1142.59Z" fill="white"/>
<path d="M2638.87 1191.67L2218.5 1190.81V1170.29L2638.87 1171.61V1191.67Z" fill="white"/>
<path d="M2482.46 1226.29L2218.5 1226.26V1205.74L2482.46 1206.06V1226.29Z" fill="white"/>
</g>
<g class="hero-card hero-card-2">
<path opacity="0.68" d="M2638.87 1535.58L2218.5 1542.63V1268.58L2638.87 1267.69V1535.58Z" fill="white"/>
<path d="M2638.87 1584.65L2218.5 1592.83V1572.31L2638.87 1564.59V1584.65Z" fill="white"/>
<path d="M2482.46 1622.64L2218.5 1628.27V1607.75L2482.46 1602.41V1622.64Z" fill="white"/>
</g>
<g class="hero-card hero-card-3">
<path opacity="0.68" d="M2638.87 1928.57L2218.5 1944.64V1670.6L2638.87 1660.68V1928.57Z" fill="white"/>
<path d="M2638.87 1977.64L2218.5 1994.84V1974.32L2638.87 1957.58V1977.64Z" fill="white"/>
<path d="M2482.46 2018.99L2218.5 2030.29V2009.77L2482.46 1998.76V2018.99Z" fill="white"/>
</g>
<path d="M1622.69 1945.7L355.815 1992.73V1924.06L1622.69 1881.26V1945.7Z" fill="white"/>
<path d="M2186.48 1924.78L2005.73 1931.49V1868.32L2186.48 1862.22V1924.78Z" fill="white"/>
<path d="M1977.81 1932.52L1792.99 1939.38V1875.51L1977.81 1869.27V1932.52Z" fill="white"/>
<path d="M935.414 2051.86L355.815 2075.71V2041.38L935.414 2018.49V2051.86Z" fill="white"/>
<g class="hero-popup">
<path opacity="0.5" d="M2385.53 173.845L679.023 150.089C611.772 149.152 557.064 200.154 557.064 264.014V876.079C557.064 939.94 611.772 991.148 679.023 990.467L2385.53 973.171C2446.14 972.556 2495.11 923.159 2495.11 862.829V284.602C2495.11 224.272 2446.14 174.689 2385.53 173.845Z" fill="url(#paint10_linear_42_792)"/>
<path opacity="0.5" d="M679.027 910.773C658.351 910.935 641.511 895.112 641.511 875.502V264.911C641.511 245.301 658.352 229.541 679.027 229.782L2385.53 249.646C2404.21 249.864 2419.39 265.184 2419.39 283.797V863.346C2419.39 881.958 2404.21 897.223 2385.53 897.369L679.027 910.773Z" fill="url(#paint11_linear_42_792)"/>
<path opacity="0.61" d="M1239.08 290.351L756.265 285.49C731.982 285.245 712.271 303.762 712.271 326.846V792.61C712.271 815.694 731.982 834.298 756.265 834.16L1239.08 831.421C1262.67 831.287 1281.76 812.77 1281.76 790.062V331.898C1281.76 309.19 1262.67 290.588 1239.08 290.351Z" fill="white"/>
<path d="M2308.36 498.655L1443.37 495.077V440.513L2308.36 445.471V498.655Z" fill="white"/>
<path d="M2308.36 589.827L1443.37 588.617V534.053L2308.36 536.643V589.827Z" fill="white"/>
<path d="M2067.14 681.322L1443.37 682.157V627.592L2067.14 627.753V681.322Z" fill="white"/>
</g>
<path d="M2528.27 843.36C2518.58 856.929 2508.89 870.498 2499.2 884.066C2541.79 915.717 2593.07 964.573 2592.24 1023.63C2590.98 1112.87 2471.93 1141.74 2464.3 1232.98C2456.58 1325.41 2566.83 1438.79 2638.76 1424.88C2730.43 1407.14 2811.95 1172.55 2725.99 1006.18C2671.29 900.328 2566.89 857.155 2528.27 843.36Z" fill="url(#paint12_linear_42_792)"/>
<path d="M2521.2 879.006C2521.2 879.006 2489.89 868.226 2480.79 857.642C2471.69 847.057 2479.39 810.151 2479.75 780.746C2480.12 751.34 2493.64 793.954 2496.77 803.589C2499.89 813.225 2497.71 835.571 2521.71 852.987L2521.2 879.006Z" fill="url(#paint13_linear_42_792)"/>
<path d="M2448.39 1058.95C2437.06 1036.64 2432.39 1036.77 2429.61 1024.99C2423.27 998.155 2439.64 964.07 2453.52 963.597C2462.46 963.292 2463.2 977.203 2482.15 998.887C2505.36 1025.45 2519.44 1021.96 2533.1 1045.02C2536.29 1050.41 2550.67 1074.69 2541.83 1092.81C2530.54 1115.93 2486.05 1119.6 2467.46 1101.76C2458.64 1093.3 2462.34 1086.43 2448.39 1058.95Z" fill="url(#paint14_linear_42_792)"/>
<path d="M2481.74 1083.02C2481.74 1083.02 2473.79 1125.42 2479.45 1159.9C2484.56 1191.06 2542.28 1223.43 2553.35 1232.71C2564.41 1241.99 2524 1252.06 2486.93 1247.21C2449.87 1242.36 2348.38 1209.89 2332.96 1191.79C2317.54 1173.69 2350.92 1182.61 2378.99 1179.18C2407.06 1175.75 2433.86 1128.7 2434.68 1104.69C2435.5 1080.68 2481.74 1083.02 2481.74 1083.02Z" fill="url(#paint15_linear_42_792)"/>
<path d="M2469.65 1114.67C2469.65 1114.67 2441.28 1127.13 2416.14 1107.03C2393.64 1089.03 2427.1 1033.75 2449.99 1033.05C2457.63 1032.81 2468.77 1038.28 2475.36 1046.29C2479.24 1051.02 2479.47 1054.17 2485.98 1061.77C2491.97 1068.78 2494.61 1069.41 2495.52 1072.82C2496.66 1077.07 2494.7 1084.19 2479.29 1096.43C2486.97 1095.01 2493.59 1097.03 2496.15 1101.51C2496.56 1102.22 2497.41 1104.46 2497.16 1106.76C2496.24 1115.1 2485.34 1118.96 2469.65 1114.67Z" fill="url(#paint16_linear_42_792)"/>
<path d="M1642.85 993.63C1642.85 993.63 1625.83 997.029 1620.08 964.275C1615.57 938.6 1609.72 931.479 1605.49 937.784C1601.26 944.09 1605.34 958.41 1605.34 958.41C1605.34 958.41 1578.21 947.867 1561.44 927.495C1544.67 907.123 1546 928.739 1548.24 941.071C1550.47 953.403 1577.27 984.762 1587.63 988.739C1597.99 992.716 1620.08 1018.46 1620.08 1018.46L1642.85 993.63Z" fill="url(#paint17_linear_42_792)"/>
<path d="M2196.69 2811.38C2205.53 2829.41 2203.05 2837.16 2200.85 2840.57C2194.39 2850.58 2178.86 2841.13 2138.3 2845.93C2133.54 2846.5 2124.47 2847.72 2113.14 2845.06C2103.43 2842.77 2091.99 2837.6 2092.48 2835C2092.66 2834.06 2094.38 2833.68 2095.04 2833.54C2106.29 2831.14 2176.75 2809.52 2176.75 2809.52L2196.69 2811.38Z" fill="url(#paint18_linear_42_792)"/>
<path d="M2211.95 2775.3L2200.01 2807.1C2198.18 2811.97 2193.69 2815.37 2188.49 2815.76C2183.22 2816.15 2177.48 2814.64 2176.73 2806.5C2175.69 2795.37 2181.63 2767.17 2181.63 2767.17L2211.95 2775.3Z" fill="url(#paint19_linear_42_792)"/>
<path d="M2685.03 2722.16L2702.03 2768.58L2726.74 2764.65L2721.01 2721.66L2685.03 2722.16Z" fill="url(#paint20_linear_42_792)"/>
<path d="M2709.73 2794.15C2721.68 2779.96 2732.36 2781.25 2734.52 2771.5C2736.21 2763.83 2731.52 2754.44 2724.44 2750.87C2714.49 2745.85 2702.44 2753.69 2699.71 2755.45C2681.22 2767.48 2686.26 2786.28 2668.82 2794.43C2665.3 2796.07 2659.74 2797.81 2653.88 2803.31C2651.39 2805.64 2645.22 2811.42 2646.67 2815.4C2648.34 2820 2659.34 2819.84 2669.79 2819.69C2682.33 2819.51 2688.61 2819.43 2694.64 2815.66C2703 2810.44 2700.5 2805.1 2709.73 2794.15Z" fill="url(#paint21_linear_42_792)"/>
<path d="M2646.14 1753.02C2660.56 1845.8 2663.54 1926.91 2661.73 1993.91C2659.78 2065.98 2653.43 2079.54 2657.65 2128.35C2666.85 2234.58 2703.23 2243.35 2731.06 2360.22C2761.78 2489.26 2746.13 2599.18 2739.76 2641.18C2734.19 2677.9 2726.84 2708.07 2721.02 2729.16C2710.99 2741.77 2691.99 2741.12 2672.01 2740.74C2643.23 2623.86 2613.99 2514.26 2585.21 2397.38C2529.71 2223.79 2474.22 2050.2 2418.72 1876.61C2494.53 1835.41 2570.33 1794.22 2646.14 1753.02Z" fill="url(#paint22_linear_42_792)"/>
<path opacity="0.3" d="M2672.01 2740.73C2643.23 2623.85 2613.99 2514.26 2585.21 2397.38C2529.71 2223.79 2474.22 2050.2 2418.72 1876.61C2494.53 1835.41 2570.34 1794.22 2646.14 1753.02C2647.1 1759.17 2647.87 1765.12 2648.73 1771.16C2553.61 1890.18 2545.74 1972.09 2556.59 2024.98C2569.74 2089.13 2610.81 2114.59 2621.06 2209.22C2628.39 2276.89 2610.48 2292.33 2621.54 2352.57C2635.78 2430.14 2677.07 2467.65 2701.51 2509.5C2725.13 2549.95 2741.97 2610.29 2727.7 2703.12C2725.38 2712.87 2723.1 2721.62 2721.02 2729.16C2710.99 2741.76 2691.99 2741.12 2672.01 2740.73Z" fill="url(#paint23_linear_42_792)"/>
<path d="M2514.08 1865.83C2512.26 1910.34 2504.86 1977.67 2475.93 2052.92C2437.16 2153.79 2394.67 2177.96 2377.08 2262.27C2358.71 2350.3 2392.36 2384.76 2394.07 2465.82C2395.67 2541.74 2369.08 2650.27 2237.51 2785.63C2216.19 2783.69 2194.87 2781.75 2173.55 2779.82C2190.65 2714.21 2213.37 2611.89 2224.8 2483.86C2230.52 2419.72 2231.3 2372.86 2231.7 2355.31C2234.13 2248.89 2249.27 2067.93 2305.7 1741.44C2375.16 1782.9 2444.62 1824.37 2514.08 1865.83Z" fill="url(#paint24_linear_42_792)"/>
<path d="M1603.66 1006.18C1617.23 998.432 1630.79 990.677 1644.36 982.925C1794.58 1130.59 1925.49 1171.3 2017.57 1181.05C2156.65 1195.77 2253.78 1139.22 2439.28 1177.73C2497.71 1189.87 2599.57 1212.47 2656.05 1295.72C2670.89 1317.6 2676.17 1334.17 2700.82 1491.14C2732.34 1691.79 2733.46 1726.81 2729.01 1770.01C2720.88 1849.08 2715.96 1896.99 2679.5 1939.4C2582.69 2052.02 2376.94 1993.95 2351.14 1986.31C2303.49 1972.2 2229.42 1950.25 2199.99 1887.28C2178.18 1840.59 2201.6 1813.1 2208.9 1722.21C2212.58 1676.43 2224.08 1533.27 2156.1 1448.14C2107.25 1386.96 2039.33 1383.27 1972.86 1362.48C1867.66 1329.58 1732.09 1243.23 1603.66 1006.18Z" fill="url(#paint25_linear_42_792)"/>
<g opacity="0.3">
<path d="M2592.49 1885.77C2535.94 1834.75 2502.54 1850.4 2468.07 1809.89C2388.4 1716.23 2506.95 1562.1 2437.04 1488.18C2381.06 1429 2274.14 1495.11 2213.04 1424.96C2172.51 1378.43 2209.01 1337.26 2173.03 1289.12C2116.07 1212.94 1988.34 1267.51 1821.24 1219.73C1781.9 1208.47 1747.05 1193.42 1716.63 1177.12C1808.39 1288.87 1898.26 1339.15 1972.86 1362.48C2039.33 1383.27 2107.25 1386.96 2156.1 1448.14C2224.07 1533.27 2212.58 1676.43 2208.9 1722.21C2201.6 1813.1 2178.18 1840.59 2199.99 1887.28C2229.42 1950.25 2303.49 1972.2 2351.14 1986.31C2374.73 1993.3 2548.65 2042.33 2652.3 1964.69C2638.23 1937.2 2619.06 1909.74 2592.49 1885.77Z" fill="url(#paint26_linear_42_792)"/>
</g>
<path d="M911.198 2803.25C911.198 2803.25 1017.37 2851.51 1019.11 2859.21C1020.84 2866.91 950.826 2856.63 922.243 2857.74C893.66 2858.85 870.147 2850.4 872.733 2838.3C875.322 2826.19 885.327 2795.74 885.327 2795.74L911.198 2803.25Z" fill="url(#paint27_linear_42_792)"/>
<path d="M915.082 2764.09L908.624 2811.89C908.624 2811.89 891.815 2817.88 880.523 2810.8L875.705 2758.37L915.082 2764.09Z" fill="url(#paint28_linear_42_792)"/>
<path d="M415.054 2765.24L402.704 2785.06C399.249 2790.61 398.22 2797.28 399.876 2803.6C404.195 2820.09 412.82 2852.22 416.582 2860.6C421.703 2872.01 490.415 2878.79 490.415 2878.79C490.415 2878.79 496.541 2870.17 482.276 2859.75C468.011 2849.34 458.841 2847.7 453.806 2832.33C448.773 2816.96 445.413 2773.49 445.413 2773.49L415.054 2765.24Z" fill="url(#paint29_linear_42_792)"/>
<path d="M466.46 2714.85C461.948 2718.45 439.881 2785.43 439.881 2785.43C439.881 2785.43 432.738 2794.57 419.167 2781.08C405.599 2767.6 413.026 2775.04 413.026 2775.04L415.571 2709.16L466.46 2714.85Z" fill="url(#paint30_linear_42_792)"/>
<path d="M973.501 1803.66C979.103 1946.26 979.331 2101.19 971.125 2266.7C961.888 2453.08 943.323 2625.34 919.926 2781.49C911.228 2781.77 902.088 2781.82 892.542 2781.55C886.095 2781.37 879.848 2781.06 873.811 2780.64C861.67 2748.26 847.319 2705.68 834.468 2654.82C820.957 2601.34 812.806 2553.37 807 2507.5C786.553 2345.98 810.515 2331.89 793.921 2212.19C779.226 2106.18 758.326 2102.04 733.792 1951.53C707.173 1788.22 726.989 1763.72 736.626 1754.87C777.651 1717.19 874.014 1742.84 973.501 1803.66Z" fill="url(#paint31_linear_42_792)"/>
<path opacity="0.3" d="M736.627 1754.87C775.754 1718.93 865.237 1740.68 959.747 1795.53C851.021 1913 839.168 1989.21 852.203 2038.65C866.934 2094.53 911.72 2110.63 911.55 2171.73C911.34 2246.82 843.568 2266.72 845.009 2346.18C845.962 2398.72 875.743 2398.18 882.775 2463.07C891.096 2539.86 852.19 2566.32 864.792 2623.13C870.213 2647.57 885.687 2679.51 929.756 2712.41C926.578 2735.74 923.321 2758.84 919.925 2781.5C911.231 2781.77 902.09 2781.82 892.543 2781.55C886.096 2781.37 879.847 2781.06 873.814 2780.64C861.672 2748.26 847.32 2705.68 834.469 2654.82C820.958 2601.34 812.807 2553.37 807.001 2507.49C786.555 2345.98 810.516 2331.89 793.922 2212.19C779.227 2106.18 758.327 2102.04 733.795 1951.52C707.176 1788.21 726.99 1763.71 736.627 1754.87Z" fill="url(#paint32_linear_42_792)"/>
<path d="M906.154 1801.26C812.538 1938.24 711.561 2108.72 621.259 2312.78C553.017 2466.98 503.523 2611.77 467.184 2740.8C462.267 2743.08 450.668 2747.62 435.846 2745.66C415.629 2742.99 403.513 2730.08 400.346 2726.48C385.557 2633.98 387.186 2555.64 392.206 2499.1C395.421 2462.9 401.108 2402.62 424.183 2328.19C450.028 2244.83 467.797 2240.15 501.515 2151.95C536.512 2060.41 528.035 2037.56 561.549 1923C575.317 1875.94 598.365 1805.91 636.395 1722.13C726.315 1748.51 816.235 1774.88 906.154 1801.26Z" fill="url(#paint33_linear_42_792)"/>
<path d="M1338.37 1975.11C1320.37 2003.1 1258.4 1999.83 1216.08 1984.7C1117.13 1949.32 1053.8 1823.47 1048.23 1723.33C1047.03 1701.83 1047.79 1680.81 1043.43 1680.17C1032.47 1678.55 1004.32 1808.56 982.227 1918.79C964.463 1925.29 937.532 1932.19 906.756 1927.15C856.387 1918.9 850.389 1887.61 794.055 1867.2C761.186 1855.3 728.981 1855.27 664.569 1855.21C591.858 1855.15 589.855 1864.12 575.849 1857.61C575.849 1857.61 572.386 1855.71 569.405 1853.57C517.624 1816.4 665.759 1533.84 623.109 1273.14C618.368 1244.16 611.1 1214.41 627.284 1185.4C669.106 1110.45 834.394 1099.88 936.795 1149.21C964.862 1162.73 1011.87 1192.31 1053.85 1223.48C1070.63 1235.94 1088.08 1249.89 1106.28 1265.79C1150.43 1304.35 1181.17 1331.19 1206.49 1368.45C1308.6 1518.69 1190.59 1643.9 1283.22 1836.03C1315.07 1902.09 1357.23 1945.79 1338.37 1975.11Z" fill="url(#paint34_linear_42_792)"/>
<path d="M1063.82 1122.13C1063.82 1122.13 1037.24 1152.32 1008.66 1167.96C982.842 1182.1 925.92 1158.28 912.748 1155.49C899.578 1152.69 915.381 1188.16 940.23 1212.6C965.076 1237.04 1047.21 1292.94 1069.36 1293.87C1091.51 1294.81 1065.79 1275.41 1052.19 1252.82C1038.59 1230.23 1057.76 1183.53 1074.92 1169.14C1092.09 1154.75 1063.82 1122.13 1063.82 1122.13Z" fill="url(#paint35_linear_42_792)"/>
<path d="M1298.56 1974.1C1298.56 1974.1 1336.76 1992.34 1363.79 1996.16C1390.82 1999.98 1396.7 2021.58 1389.2 2029.51C1381.69 2037.45 1338.67 2028.76 1324.28 2020.67C1309.9 2012.57 1298.56 1974.1 1298.56 1974.1Z" fill="url(#paint36_linear_42_792)"/>
<path d="M1124.91 1145.74C1155.07 1143.45 1185.55 1106.3 1179.39 1090.09C1177.63 1085.45 1173.71 1084.72 1114.66 1074.99C1085.34 1070.16 1070.68 1068.17 1060.55 1076.27C1054.36 1081.22 1049.53 1090.04 1048.01 1098.37C1047.22 1102.66 1047.18 1108.56 1047.92 1120.32C1048.57 1130.76 1048.38 1130.3 1048.65 1133.39C1049.3 1140.79 1051.32 1153.82 1058.54 1171.87C1061.54 1168.58 1065.53 1164.64 1070.55 1160.76C1072.49 1159.26 1080.14 1153.48 1088.84 1149.97C1103.82 1143.94 1115.12 1146.49 1124.91 1145.74Z" fill="url(#paint37_linear_42_792)"/>
<path d="M1047.52 1151.75C1047.52 1151.75 1048.86 1180.61 1076.05 1193.28C1100.41 1204.63 1132.73 1153.79 1123.84 1134.37C1120.87 1127.89 1111.68 1120.85 1102.27 1118.67C1096.71 1117.38 1093.99 1118.49 1084.94 1116.21C1076.6 1114.1 1074.98 1112.16 1071.76 1112.81C1067.73 1113.62 1062.6 1118.2 1058.76 1136.14C1056.76 1129.14 1052.33 1124.45 1047.53 1124.16C1046.77 1124.12 1044.55 1124.33 1042.73 1125.5C1036.14 1129.72 1037.43 1140.42 1047.52 1151.75Z" fill="url(#paint38_linear_42_792)"/>
<path d="M1693.68 1573.71L357.155 1587.01C343.162 1587.18 331.808 1597.95 331.808 1611.07V2008.89C331.808 2022.01 343.162 2032.33 357.155 2031.95L1693.68 1990.92C1705.98 1990.58 1715.93 1980.36 1715.93 1968.08V1595.67C1715.93 1583.39 1705.98 1573.56 1693.68 1573.71Z" fill="url(#paint39_linear_42_792)"/>
<path opacity="0.48" d="M1655.05 1614.67L400.97 1629.54C388.202 1629.71 377.845 1639.57 377.845 1651.55V1966.6C377.845 1978.59 388.202 1988.04 400.97 1987.71L1655.05 1951.47C1666.33 1951.18 1675.47 1941.83 1675.47 1930.58V1634.76C1675.47 1623.51 1666.33 1614.52 1655.05 1614.67Z" fill="white"/>
<path d="M396.821 1734.22C356.048 1714.24 268.024 1663.06 240.96 1568.77C195.902 1411.81 356.148 1262.09 438.878 1206.07C533.73 1141.84 629.042 1131.47 686.964 1125.16C758.826 1117.34 802.687 1112.57 835.631 1139.55C920.83 1209.33 869.617 1439.56 785.276 1463.26C757.665 1471.02 747.216 1450.83 689.361 1436.89C670.52 1432.35 529.895 1398.47 456.769 1472.85C405.589 1524.92 399.051 1618.22 435.188 1705.45C422.398 1715.04 409.609 1724.63 396.821 1734.22Z" fill="url(#paint40_linear_42_792)"/>
<path d="M405.05 1728.05L426.637 1711.86C426.637 1711.86 440.18 1721.24 456.734 1719.96C465.755 1719.26 477.728 1724.68 480.426 1727.54C483.124 1730.41 495.698 1737.29 477.699 1735.49C459.703 1733.7 456.814 1738.71 459.321 1747.7C461.828 1756.7 476.846 1781.87 484.474 1787.27C492.102 1792.66 470.22 1796.26 461.228 1792.96C452.237 1789.67 437.849 1783.67 427.359 1764.19C423.534 1757.08 405.05 1728.05 405.05 1728.05Z" fill="url(#paint41_linear_42_792)"/>
<defs>
<linearGradient id="paint0_linear_42_792" x1="358.83" y1="1497.33" x2="812.66" y2="1449.92" gradientUnits="userSpaceOnUse">
<stop offset="0.0036" stop-color="#26264F"/>
<stop offset="1" stop-color="#444B8C"/>
</linearGradient>
<linearGradient id="paint1_linear_42_792" x1="1326.25" y1="2883.8" x2="1422.41" y2="2746.07" gradientUnits="userSpaceOnUse">
<stop stop-color="#444B8C"/>
<stop offset="0.9964" stop-color="#26264F"/>
</linearGradient>
<linearGradient id="paint2_linear_42_792" x1="1617.33" y1="2848.5" x2="1470.17" y2="2049.63" gradientUnits="userSpaceOnUse">
<stop stop-color="#444B8C"/>
<stop offset="0.9964" stop-color="#26264F"/>
</linearGradient>
<linearGradient id="paint3_linear_42_792" x1="1980.35" y1="643.174" x2="2716.78" y2="-407.884" gradientUnits="userSpaceOnUse">
<stop stop-color="#444B8C"/>
<stop offset="0.9964" stop-color="#26264F"/>
</linearGradient>
<linearGradient id="paint4_linear_42_792" x1="1660.49" y1="767.971" x2="739.313" y2="3693.76" gradientUnits="userSpaceOnUse">
<stop stop-color="#444B8C"/>
<stop offset="0.9964" stop-color="#26264F"/>
</linearGradient>
<linearGradient id="paint5_linear_42_792" x1="2106.6" y1="279.205" x2="-74.4128" y2="3890.77" gradientUnits="userSpaceOnUse">
<stop stop-color="#FF9085"/>
<stop offset="1" stop-color="#FB6FBB"/>
</linearGradient>
<linearGradient id="paint6_linear_42_792" x1="1482.38" y1="735.362" x2="1431.42" y2="1157.18" gradientUnits="userSpaceOnUse">
<stop stop-color="#444B8C"/>
<stop offset="0.9964" stop-color="#26264F"/>
</linearGradient>
<linearGradient id="paint7_linear_42_792" x1="2585.21" y1="509.632" x2="2480.03" y2="732.373" gradientUnits="userSpaceOnUse">
<stop stop-color="#FF9085"/>
<stop offset="1" stop-color="#FB6FBB"/>
</linearGradient>
<linearGradient id="paint8_linear_42_792" x1="2627.47" y1="532.249" x2="2522.63" y2="754.258" gradientUnits="userSpaceOnUse">
<stop stop-color="#FF9085"/>
<stop offset="1" stop-color="#FB6FBB"/>
</linearGradient>
<linearGradient id="paint9_linear_42_792" x1="2669.5" y1="554.717" x2="2565" y2="776.002" gradientUnits="userSpaceOnUse">
<stop stop-color="#FF9085"/>
<stop offset="1" stop-color="#FB6FBB"/>
</linearGradient>
<linearGradient id="paint10_linear_42_792" x1="1021.46" y1="-27.9287" x2="2382.05" y2="1612.14" gradientUnits="userSpaceOnUse">
<stop offset="0.0036" stop-color="#E38DDD"/>
<stop offset="1" stop-color="#9571F6"/>
</linearGradient>
<linearGradient id="paint11_linear_42_792" x1="2518.29" y1="-495.674" x2="-774.54" y2="3037.03" gradientUnits="userSpaceOnUse">
<stop offset="0.0036" stop-color="#E38DDD"/>
<stop offset="1" stop-color="#9571F6"/>
</linearGradient>
<linearGradient id="paint12_linear_42_792" x1="2599.9" y1="1134.3" x2="2742.01" y2="1713.24" gradientUnits="userSpaceOnUse">
<stop stop-color="#AA80F9"/>
<stop offset="0.9964" stop-color="#6165D7"/>
</linearGradient>
<linearGradient id="paint13_linear_42_792" x1="2597.56" y1="1047.12" x2="2490.95" y2="831.957" gradientUnits="userSpaceOnUse">
<stop offset="0.0036" stop-color="#F36F56"/>
<stop offset="1" stop-color="#FFC444"/>
</linearGradient>
<linearGradient id="paint14_linear_42_792" x1="2487.53" y1="1083.66" x2="2482.71" y2="919.571" gradientUnits="userSpaceOnUse">
<stop stop-color="#AB316D"/>
<stop offset="1" stop-color="#792D3D"/>
</linearGradient>
<linearGradient id="paint15_linear_42_792" x1="2452.01" y1="840.217" x2="2439.14" y2="1322.34" gradientUnits="userSpaceOnUse">
<stop offset="0.0036" stop-color="#F36F56"/>
<stop offset="1" stop-color="#FFC444"/>
</linearGradient>
<linearGradient id="paint16_linear_42_792" x1="2577.68" y1="1006.69" x2="2418.47" y2="1104.38" gradientUnits="userSpaceOnUse">
<stop offset="0.0036" stop-color="#F36F56"/>
<stop offset="1" stop-color="#FFC444"/>
</linearGradient>
<linearGradient id="paint17_linear_42_792" x1="1681.37" y1="1104" x2="1601.89" y2="976.062" gradientUnits="userSpaceOnUse">
<stop offset="0.0036" stop-color="#F36F56"/>
<stop offset="1" stop-color="#FFC444"/>
</linearGradient>
<linearGradient id="paint18_linear_42_792" x1="2114.41" y1="2950.59" x2="2196.86" y2="2664.55" gradientUnits="userSpaceOnUse">
<stop stop-color="#444B8C"/>
<stop offset="0.9964" stop-color="#26264F"/>
</linearGradient>
<linearGradient id="paint19_linear_42_792" x1="2173.42" y1="2892.27" x2="2260.14" y2="2442.93" gradientUnits="userSpaceOnUse">
<stop stop-color="#FFC444"/>
<stop offset="0.9964" stop-color="#F36F56"/>
</linearGradient>
<linearGradient id="paint20_linear_42_792" x1="2707.04" y1="2826.9" x2="2700.72" y2="2369.27" gradientUnits="userSpaceOnUse">
<stop stop-color="#FFC444"/>
<stop offset="0.9964" stop-color="#F36F56"/>
</linearGradient>
<linearGradient id="paint21_linear_42_792" x1="2675.46" y1="2844.63" x2="2757.91" y2="2558.6" gradientUnits="userSpaceOnUse">
<stop stop-color="#444B8C"/>
<stop offset="0.9964" stop-color="#26264F"/>
</linearGradient>
<linearGradient id="paint22_linear_42_792" x1="2548.24" y1="1873.97" x2="2792.6" y2="2788.47" gradientUnits="userSpaceOnUse">
<stop stop-color="#311944"/>
<stop offset="1" stop-color="#893976"/>
</linearGradient>
<linearGradient id="paint23_linear_42_792" x1="2548.24" y1="1873.97" x2="2792.6" y2="2788.47" gradientUnits="userSpaceOnUse">
<stop stop-color="#AA80F9"/>
<stop offset="0.9964" stop-color="#6165D7"/>
</linearGradient>
<linearGradient id="paint24_linear_42_792" x1="1773.03" y1="2293.1" x2="2704.76" y2="2237.85" gradientUnits="userSpaceOnUse">
<stop stop-color="#311944"/>
<stop offset="1" stop-color="#893976"/>
</linearGradient>
<linearGradient id="paint25_linear_42_792" x1="2156.09" y1="1243.23" x2="2298.2" y2="1822.18" gradientUnits="userSpaceOnUse">
<stop stop-color="#AA80F9"/>
<stop offset="0.9964" stop-color="#6165D7"/>
</linearGradient>
<linearGradient id="paint26_linear_42_792" x1="2015.82" y1="1238.68" x2="2550.81" y2="2052.81" gradientUnits="userSpaceOnUse">
<stop stop-color="#AA80F9"/>
<stop offset="0.9964" stop-color="#6165D7"/>
</linearGradient>
<linearGradient id="paint27_linear_42_792" x1="962.64" y1="2635.83" x2="936.263" y2="2971.53" gradientUnits="userSpaceOnUse">
<stop stop-color="#311944"/>
<stop offset="1" stop-color="#A03976"/>
</linearGradient>
<linearGradient id="paint28_linear_42_792" x1="894.545" y1="2822.73" x2="899.341" y2="2475.04" gradientUnits="userSpaceOnUse">
<stop stop-color="#FFC444"/>
<stop offset="0.9964" stop-color="#F36F56"/>
</linearGradient>
<linearGradient id="paint29_linear_42_792" x1="464.179" y1="2596.67" x2="437.803" y2="2932.37" gradientUnits="userSpaceOnUse">
<stop stop-color="#311944"/>
<stop offset="1" stop-color="#A03976"/>
</linearGradient>
<linearGradient id="paint30_linear_42_792" x1="437.728" y1="2816.43" x2="442.524" y2="2468.73" gradientUnits="userSpaceOnUse">
<stop stop-color="#FFC444"/>
<stop offset="0.9964" stop-color="#F36F56"/>
</linearGradient>
<linearGradient id="paint31_linear_42_792" x1="977.523" y1="2259.48" x2="720.449" y2="2259.48" gradientUnits="userSpaceOnUse">
<stop stop-color="#AA80F9"/>
<stop offset="0.9964" stop-color="#6165D7"/>
</linearGradient>
<linearGradient id="paint32_linear_42_792" x1="977.523" y1="2259.49" x2="720.451" y2="2259.49" gradientUnits="userSpaceOnUse">
<stop stop-color="#444B8C"/>
<stop offset="0.9964" stop-color="#3E4177"/>
</linearGradient>
<linearGradient id="paint33_linear_42_792" x1="906.154" y1="2234.14" x2="388.638" y2="2234.14" gradientUnits="userSpaceOnUse">
<stop stop-color="#AA80F9"/>
<stop offset="0.9964" stop-color="#6165D7"/>
</linearGradient>
<linearGradient id="paint34_linear_42_792" x1="870.003" y1="2213.17" x2="1060.63" y2="1134.13" gradientUnits="userSpaceOnUse">
<stop stop-color="#311944"/>
<stop offset="1" stop-color="#893976"/>
</linearGradient>
<linearGradient id="paint35_linear_42_792" x1="994.225" y1="1314.79" x2="994.225" y2="1107.07" gradientUnits="userSpaceOnUse">
<stop stop-color="#FFC444"/>
<stop offset="0.9964" stop-color="#F36F56"/>
</linearGradient>
<linearGradient id="paint36_linear_42_792" x1="1392.2" y1="2003.37" x2="1298.56" y2="2003.37" gradientUnits="userSpaceOnUse">
<stop stop-color="#FFC444"/>
<stop offset="0.9964" stop-color="#F36F56"/>
</linearGradient>
<linearGradient id="paint37_linear_42_792" x1="961.193" y1="1227.77" x2="1145.58" y2="1072.94" gradientUnits="userSpaceOnUse">
<stop stop-color="#444B8C"/>
<stop offset="0.9964" stop-color="#3E4177"/>
</linearGradient>
<linearGradient id="paint38_linear_42_792" x1="1141.05" y1="1254.93" x2="1043.94" y2="1066.1" gradientUnits="userSpaceOnUse">
<stop stop-color="#FFC444"/>
<stop offset="0.9964" stop-color="#F36F56"/>
</linearGradient>
<linearGradient id="paint39_linear_42_792" x1="1012.62" y1="1803.81" x2="1794.27" y2="812.799" gradientUnits="userSpaceOnUse">
<stop stop-color="#FFC444"/>
<stop offset="0.9964" stop-color="#F36F56"/>
</linearGradient>
<linearGradient id="paint40_linear_42_792" x1="424.941" y1="2134.55" x2="615.572" y2="1055.5" gradientUnits="userSpaceOnUse">
<stop stop-color="#311944"/>
<stop offset="1" stop-color="#893976"/>
</linearGradient>
<linearGradient id="paint41_linear_42_792" x1="433.124" y1="1829.19" x2="453.852" y2="1711.86" gradientUnits="userSpaceOnUse">
<stop stop-color="#FFC444"/>
<stop offset="0.9964" stop-color="#F36F56"/>
</linearGradient>
</defs>
</svg>
