<svg width="1395" height="1024" viewBox="0 0 1395 1024" fill="none" xmlns="http://www.w3.org/2000/svg">
<path d="M527.926 686.308C528.076 688.877 527.886 693.571 529.425 695.022L530.774 693.939C532.749 694.845 531.925 694.927 533.56 694.566C544.846 699.103 566.657 686.179 561.534 707.844C560.778 708.485 560.056 709.166 559.212 709.656L558.122 712.954C557.448 717.164 556.862 721.906 556.167 726.369C553.817 741.507 554.614 748.784 536.393 747.755C528.001 747.278 513.622 749.342 506 745.834C500.701 740.451 498.753 720.932 497.738 712.893L497.649 712.116C497.179 709.227 495.129 709.397 494.448 707.156C488.678 688.168 511.347 697.849 521.374 694.654L522.661 695.247L524.146 694.504L525.045 694.865L526.101 693.421L526.503 693.905L527.347 693.877C527.668 691.234 527.79 688.945 527.926 686.308Z" fill="#6D4BE2"/>
<path d="M527.926 686.308C528.076 688.877 527.886 693.571 529.425 695.022L530.774 693.939C532.749 694.845 531.925 694.927 533.56 694.566C544.846 699.103 566.657 686.179 561.534 707.844C560.778 708.485 560.056 709.166 559.212 709.656L558.122 712.954C537.674 713.213 518.506 712.484 497.738 712.893L497.649 712.116C497.179 709.227 495.129 709.397 494.448 707.156C488.678 688.168 511.347 697.849 521.374 694.654L522.661 695.247L524.146 694.504L525.045 694.865L526.101 693.421L526.503 693.905L527.347 693.877C527.668 691.234 527.79 688.945 527.926 686.308Z" fill="#6D4BE2"/>
<path d="M497.649 712.116L497.956 709.915C498.515 709.704 553.272 709.602 559.212 709.656L558.122 712.954C537.674 713.213 518.506 712.484 497.738 712.893L497.649 712.116Z" fill="#5A43B7"/>
<path d="M526.019 650.049C525.284 646.997 520.515 643.106 519.058 639.972C508.554 617.367 513.479 584.255 534.929 569.58C540.841 565.935 545.991 568.974 548.245 574.84C556.473 596.239 552.339 621.911 538.941 640.32C535.78 644.66 533.178 647.147 528.342 649.32C528.131 661.652 527.995 673.983 527.926 686.308C527.79 688.945 527.668 691.234 527.347 693.877L526.503 693.904L526.101 693.421C525.284 682.588 525.658 661.147 526.019 650.049Z" fill="#A374FA"/>
<path d="M526.019 650.049C526.387 648.768 526.884 639.23 527.013 637.486C527.96 624.725 528.961 612.536 534.022 600.62C531.141 616.835 528.205 632.785 528.342 649.32C528.131 661.652 527.994 673.983 527.926 686.308C527.79 688.945 527.667 691.234 527.347 693.877L526.503 693.904L526.101 693.421C525.283 682.588 525.658 661.147 526.019 650.049Z" fill="#3E398F"/>
<path d="M515.025 674.814C491.43 671.36 473.429 649.3 476.302 624.384C477.48 614.131 488.59 617.81 494.849 621.611C506.122 628.404 514.187 639.455 517.212 652.27C517.838 655.35 518.39 657.68 518.499 660.834C518.322 666.08 518.138 668.853 517.259 674.004C520.406 681.416 522.184 686.567 524.146 694.504L522.661 695.247L521.374 694.654C519.446 686.867 517.825 682.431 515.025 674.814Z" fill="#A374FA"/>
<path d="M495.537 641.104C500.435 645.246 503.248 649.252 506.776 654.512C511.469 654.593 513.179 654.225 517.211 652.27C517.838 655.35 518.39 657.68 518.499 660.834C518.322 666.08 518.138 668.853 517.259 674.004C520.406 681.416 522.184 686.567 524.146 694.504L522.661 695.247L521.373 694.654C519.446 686.867 517.824 682.431 515.025 674.815C510.679 664.036 501.027 651.616 495.537 641.104Z" fill="#5A43B7"/>
<path d="M506.776 654.512C511.47 654.593 513.179 654.225 517.212 652.27C517.838 655.35 518.39 657.68 518.499 660.834C515.788 661.236 514.405 661.216 512.123 662.735C511.769 662.374 507.369 655.424 506.776 654.512Z" fill="#8960F2"/>
<path d="M512.124 662.735C514.406 661.215 515.789 661.236 518.5 660.834C518.322 666.08 518.139 668.853 517.26 674.004C515.577 669.316 514.494 667.163 512.124 662.735Z" fill="#A374FA"/>
<path d="M535.814 679.945C531.169 661.1 543.027 641.083 562.42 635.932C575.539 632.451 575.525 649.804 570.512 657.06C564.518 669.371 550.963 682.023 537.135 681.634C536.052 685.79 534.929 690.546 533.559 694.565C531.925 694.927 532.749 694.845 530.773 693.939C532.361 689.238 534.043 684.577 535.814 679.945Z" fill="#6D4BE2"/>
<path d="M535.814 679.945C538.743 673.159 547.83 658.552 553.722 655.213L554.048 655.758C547.598 664.152 541.386 671.571 537.135 681.634C536.052 685.79 534.929 690.546 533.559 694.566C531.925 694.927 532.749 694.845 530.773 693.939C532.361 689.238 534.043 684.578 535.814 679.945Z" fill="#3E398F"/>
<path d="M332.131 549.205L332.142 395.765L332.014 355.95C331.954 341.844 329.771 326.682 340.64 315.927C348.506 308.144 354.341 307.65 364.946 307.647C401.431 307.637 437.911 307.69 474.394 307.686L702.118 307.692L816.729 307.673C833.717 307.649 850.725 307.56 867.7 307.664C877.992 307.726 883.06 308.519 890.648 315.785C901.621 326.29 899.332 342.213 899.319 356.07L899.237 404.657L899.285 582.946L897.984 584.59C901.88 586.801 902.983 587.351 907.67 587.597C907.527 590.532 907.241 594.236 907.234 597.106C907.976 598.404 908.868 599.735 909.25 601.158L907.54 603.825C890.975 604.176 872.985 603.727 856.29 603.726L832.879 603.729L805.013 603.675C799.605 603.638 775.404 603.006 774.075 604.424C759.328 620.177 790.947 616.676 794.898 616.603L808.296 616.695L808.324 617.299C806.668 620.477 805.456 631.879 804.938 635.907L804.278 636.581L803.31 634.413C799.135 633.708 798.495 633.576 794.401 634.504C793.352 635.591 793.352 636.015 792.882 637.453C791.499 647.827 788.625 665.204 787.957 675.121C778.619 675.08 764.927 674.622 755.895 675.31L653.449 675.386C657.914 695.496 661.107 716.984 665.589 736.285C678.209 736.244 692.214 735.951 704.857 736.578C709.965 736.837 714.502 743.282 713.916 748.085C713.521 754.258 709.863 756.023 704.441 756.104C690.811 756.302 677.207 756.207 663.589 756.207L584.6 756.2L533.646 756.207C524.269 756.227 496.273 760.444 500.631 744.652C504.045 732.286 539.568 736.251 550.298 736.34C553.371 717.318 559.449 693.54 561.536 675.458L448.612 675.417C446.065 682.013 438.138 707.807 433.269 709.871C431.344 710.682 428.876 710.811 426.808 711.057C410.716 711.302 393.592 712.555 377.467 712.991C370.055 713.189 335.586 713.353 331.015 716.003C319.652 720.758 311.453 722.986 299.425 725.759C294.388 726.917 285.577 728.982 281.082 730.733C273.429 736.892 262.677 741.913 253.257 744.536C247.937 741.095 243.562 735.4 239.192 730.542C237.006 727.946 234.751 725.412 232.431 722.939L231.063 716.262C228.226 698.357 231.568 675.176 236.978 657.975C239.526 646.126 246.143 636.478 247.559 630.011C243.502 626.454 240.031 621.662 241.576 615.87C241.168 609.646 255.584 601.364 256.29 599.426C260.832 586.939 264.572 585.78 282.066 592.215C286.318 593.948 287.866 594.822 291.793 597.264C295.658 593.335 297.356 591.411 300.593 586.966C299.143 577.079 291.93 559.235 303.074 551.179C315.286 542.351 317.715 542.419 332.131 549.205Z" fill="#21215C"/>
<rect x="444" y="373" width="435" height="64" rx="10" fill="#191B24"/>
<rect x="444" y="445" width="98" height="37" rx="5" fill="#6D4BE2"/>
<rect x="554" y="445" width="98" height="37" rx="5" fill="#6D4BE2"/>
<rect x="444" y="487" width="159" height="56" rx="5" fill="#4628AC"/>
<rect x="612" y="487" width="131" height="56" rx="5" fill="#4628AC"/>
<rect x="750" y="487" width="131" height="107" rx="5" fill="#4628AC"/>
<rect x="762" y="501" width="37" height="36" rx="5" fill="#6D4BE2"/>
<rect x="833" y="501" width="37" height="36" rx="5" fill="#6D4BE2"/>
<rect x="762" y="544" width="37" height="36" rx="5" fill="#6D4BE2"/>
<rect x="833" y="544" width="37" height="36" rx="5" fill="#6D4BE2"/>
<rect x="444" y="546" width="159" height="78" rx="5" fill="#4628AC"/>
<rect x="672" y="445" width="98" height="37" rx="5" fill="#6D4BE2"/>
<rect x="781" y="445" width="98" height="37" rx="5" fill="#6D4BE2"/>
<path d="M372.431 423.76C365.857 422.262 372.422 416.978 379.165 417.024C383.033 417.05 386.909 417.089 390.509 417.089C393.693 417.089 397.925 417.089 402.041 417.408C408.599 417.916 413.241 424.238 406.673 424.602C400.854 424.664 381.871 425.911 372.431 423.76Z" fill="#4D4CA6"/>
<path d="M372.431 443.76C365.857 442.262 372.422 436.978 379.165 437.024C383.033 437.05 386.909 437.089 390.509 437.089C393.693 437.089 397.925 437.089 402.041 437.408C408.599 437.916 413.241 444.238 406.673 444.602C400.854 444.664 381.871 445.911 372.431 443.76Z" fill="#4D4CA6"/>
<path d="M372.431 463.76C365.857 462.262 372.422 456.978 379.165 457.024C383.033 457.05 386.909 457.089 390.509 457.089C393.693 457.089 397.925 457.089 402.041 457.408C408.599 457.916 413.241 464.238 406.673 464.602C400.854 464.664 381.871 465.911 372.431 463.76Z" fill="#4D4CA6"/>
<path d="M372.431 483.76C365.857 482.262 372.422 476.978 379.165 477.024C383.033 477.05 386.909 477.089 390.509 477.089C393.693 477.089 397.925 477.089 402.041 477.408C408.599 477.916 413.241 484.238 406.673 484.602C400.854 484.664 381.871 485.911 372.431 483.76Z" fill="#4D4CA6"/>
<path d="M372.431 503.76C365.857 502.262 372.422 496.978 379.165 497.024C383.033 497.05 386.909 497.089 390.509 497.089C393.693 497.089 397.925 497.089 402.041 497.408C408.599 497.916 413.241 504.238 406.673 504.602C400.854 504.664 381.871 505.911 372.431 503.76Z" fill="#4D4CA6"/>
<path d="M367.073 627.545C360.575 623.379 370.915 616.97 378.633 617.019C385.468 617.062 392.442 617.166 398.828 617.167C403.929 617.167 410.85 617.167 417.403 617.922C426.454 618.964 434.671 629.942 425.617 630.968C424.765 631.064 423.82 631.149 422.774 631.222C412.939 631.356 377.723 634.373 367.073 627.545Z" fill="#4D4CA6"/>
<path d="M340.24 579.057C343.028 582.469 341.947 603.644 342.155 609.883C342.454 618.871 341.924 628.395 342.413 637.529L587.356 637.628C655.348 637.634 725.005 638.346 792.882 637.453C791.499 647.827 788.625 665.204 787.957 675.121C778.619 675.08 764.927 674.622 755.895 675.31L653.449 675.386C657.914 695.496 661.107 716.984 665.589 736.285C678.209 736.244 692.214 735.951 704.857 736.578C709.965 736.837 714.502 743.282 713.916 748.085C713.521 754.258 709.863 756.023 704.441 756.104C690.811 756.302 677.207 756.207 663.589 756.207L584.6 756.2L533.646 756.207C524.269 756.227 496.273 760.444 500.631 744.652C504.045 732.286 539.568 736.251 550.298 736.34C553.371 717.318 559.449 693.54 561.536 675.458L448.612 675.417C446.065 682.013 438.138 707.807 433.269 709.871C431.344 710.682 428.876 710.811 426.808 711.057C410.716 711.302 393.592 712.555 377.467 712.991C370.055 713.189 335.586 713.353 331.015 716.003C319.652 720.758 311.453 722.986 299.425 725.759C294.388 726.917 285.577 728.982 281.082 730.733C273.429 736.892 262.677 741.913 253.257 744.536C247.937 741.095 243.562 735.4 239.192 730.542C237.006 727.946 234.751 725.412 232.431 722.938L231.063 716.262C228.226 698.357 231.568 675.176 236.978 657.975C239.526 646.126 246.143 636.478 247.559 630.011C243.502 626.454 240.031 621.662 241.576 615.87C241.168 609.647 255.584 601.364 256.29 599.426C260.832 586.939 264.572 585.78 282.066 592.215C286.318 593.948 287.866 594.822 291.793 597.264C295.658 593.335 297.356 591.411 300.593 586.966C303.116 585.552 304.422 584.314 306.606 582.468C309.099 585.004 308.593 590.865 308.664 594.633C309.966 596.553 311.264 598.616 312.795 600.341C322.43 605.369 323.881 604.822 332.159 598.225C337.247 591.414 337.289 587.112 340.24 579.057Z" fill="#303187"/>
<path d="M306.606 582.468C309.099 585.004 308.593 590.865 308.664 594.633C309.966 596.553 311.264 598.616 312.795 600.341L308.499 605.88C312.603 609.311 315.757 611.128 315.404 616.874C329.192 634.37 326 656.197 331.367 676.632C333.242 682.272 339.43 683.273 344.765 685.181C346.526 685.29 349.811 685.617 351.552 685.957C352.597 686.979 353.5 687.77 354.391 688.928L354.195 690.107C348.273 692.539 343.741 696.654 337.705 697.853C337.771 700.803 337.394 704.339 339.004 706.526C341.012 707.705 342.014 707.453 344.458 707.446C338.695 707.63 335.013 709.967 329.47 711.799C329.885 712.985 330.206 713.864 330.706 715.035L331.015 716.003C319.652 720.758 311.453 722.986 299.425 725.759C294.388 726.917 285.577 728.982 281.082 730.733C273.429 736.892 262.677 741.913 253.257 744.536C247.937 741.095 243.562 735.4 239.192 730.542C237.006 727.946 234.751 725.412 232.431 722.939L231.063 716.262C228.226 698.357 231.568 675.176 236.978 657.975C239.526 646.126 246.143 636.478 247.559 630.011C243.502 626.454 240.031 621.662 241.576 615.87C241.168 609.647 255.584 601.364 256.29 599.426C260.832 586.939 264.572 585.78 282.066 592.215C286.318 593.948 287.866 594.822 291.793 597.265C295.658 593.335 297.356 591.411 300.593 586.966C303.116 585.552 304.422 584.314 306.606 582.468Z" fill="#713CC9"/>
<path d="M306.606 582.468C309.099 585.004 308.593 590.865 308.664 594.633C309.966 596.553 311.264 598.616 312.795 600.341L308.499 605.88C312.603 609.311 315.757 611.128 315.404 616.874C312.965 620.344 312.572 621.428 308.743 623.243C293.942 626.877 279.969 604.327 261.784 615.388C254.654 619.724 250.381 627.861 247.559 630.011C243.502 626.454 240.031 621.662 241.576 615.87C241.167 609.647 255.584 601.364 256.29 599.426C260.832 586.939 264.572 585.78 282.066 592.215C286.318 593.948 287.866 594.822 291.793 597.265C295.658 593.335 297.356 591.411 300.593 586.966C303.116 585.552 304.422 584.314 306.606 582.468Z" fill="#5A43B7"/>
<path d="M306.606 582.468C309.099 585.004 308.593 590.865 308.664 594.633C309.966 596.553 311.265 598.616 312.796 600.341L308.5 605.88C312.603 609.311 315.757 611.128 315.404 616.874C312.965 620.344 312.572 621.428 308.744 623.243L306.058 622.394L305.482 621.159C299.865 614.697 292.356 606.487 285.016 601.94L291.793 597.265C295.658 593.335 297.356 591.411 300.593 586.966C303.116 585.552 304.422 584.314 306.606 582.468Z" fill="#FB8F4F"/>
<path d="M308.5 605.88C312.603 609.311 315.757 611.128 315.404 616.874C312.965 620.344 312.572 621.428 308.743 623.243L306.058 622.394L305.481 621.159C310.709 614.39 306.193 614.437 308.5 605.88Z" fill="#3E398F"/>
<path d="M282.066 592.215C286.318 593.948 287.866 594.822 291.792 597.265L285.015 601.94C282.2 600.511 272.845 596.466 271.415 594.639L271.861 593.661C275.617 591.945 277.787 592.536 282.066 592.215Z" fill="#2F236F"/>
<path d="M316.209 694.372C314.985 693.459 314.791 693.683 314.37 692.464C312.785 687.858 317.542 664.327 319.405 660.7C322.551 666.485 321.824 675.762 321.839 682.633C325.231 680.713 328.117 678.793 331.367 676.632C333.242 682.272 339.43 683.273 344.765 685.181C346.526 685.29 349.811 685.617 351.552 685.958C352.597 686.979 353.501 687.77 354.391 688.928L354.195 690.107C348.273 692.539 343.741 696.654 337.705 697.853C333.592 695.019 321.337 694.242 316.209 694.372Z" fill="#3E398F"/>
<path d="M239.191 730.542C246.008 730.242 253.534 732.32 260.037 732.368C266.593 732.416 274.356 730.999 281.082 730.733C273.429 736.892 262.677 741.913 253.257 744.536C247.937 741.095 243.562 735.4 239.191 730.542Z" fill="#3E398F"/>
<path d="M316.209 694.371C321.337 694.242 333.591 695.019 337.704 697.853C337.771 700.803 337.393 704.339 339.004 706.526C341.012 707.705 342.014 707.452 344.458 707.446C338.695 707.63 335.012 709.966 329.47 711.799C329.884 712.985 330.206 713.864 330.706 715.035C327.625 714.497 328.769 713.135 324.312 713.026L327.024 712.331C328.338 708.256 329.26 701.055 326.464 697.512C324.147 694.576 318.658 694.937 315.2 694.753L316.209 694.371Z" fill="#6D4BE2"/>
<path d="M283.729 647.875C284.017 648.237 287.899 674.935 290.492 679.578C294.661 687.047 302.338 688.056 304.409 692.028C300.751 692.001 287.664 691.115 286.039 688.744C280.626 680.83 283.21 656.584 283.729 647.875Z" fill="#3E398F"/>
<path d="M246.759 666.124C251.043 688.301 235.798 722.346 271.833 723.865C259.542 730.644 246.048 715.219 245.945 703.889C245.868 695.421 244.551 673.58 246.759 666.124Z" fill="#3E398F"/>
<path d="M312.795 600.341C322.43 605.369 323.88 604.821 332.159 598.225C332.07 608.975 331.059 647.128 333.172 655.165C334.525 660.174 337.146 664.749 340.784 668.448C342.112 669.803 343.385 670.904 344.881 672.081L350.22 674.317C350.618 678.244 350.999 682.047 351.552 685.957C349.811 685.617 346.526 685.29 344.765 685.181C339.429 683.273 333.241 682.271 331.367 676.632C326 656.197 329.191 634.37 315.403 616.874C315.757 611.128 312.602 609.311 308.499 605.88L312.795 600.341Z" fill="#FEFEFF"/>
<path d="M344.881 672.081L350.22 674.317C350.619 678.244 351 682.047 351.553 685.957C349.812 685.617 346.526 685.29 344.766 685.181C345.827 682.735 345.182 675.035 344.881 672.081Z" fill="#5A43B7"/>
<path d="M350.22 674.317C359.91 676.506 378.618 675.114 389.342 675.425C387.258 680.775 384.615 688.117 382.089 693.023C381.396 694.399 380.494 696.34 379.637 697.533C378.962 698.459 378.307 699.406 377.671 700.367C376.781 702.159 376.433 702.983 374.542 703.535L373.23 702.479L373.587 701.702L372.704 701.593C372.475 696.926 370.53 695.857 367.195 692.982C361.489 691.026 360.3 690.113 354.195 690.107L354.39 688.928C353.5 687.77 352.596 686.979 351.552 685.957C350.999 682.047 350.618 678.244 350.22 674.317Z" fill="#FEFEFF"/>
<path d="M372.589 686.141C377.239 688.294 378.421 689.255 382.089 693.023C381.397 694.399 380.494 696.341 379.638 697.533C378.963 698.459 378.308 699.406 377.671 700.367C376.782 702.159 376.434 702.983 374.542 703.535L373.23 702.479L373.588 701.702L372.704 701.593C372.476 696.926 370.531 695.857 367.195 692.982L367.558 692.253C370.324 690.59 369.994 689.234 372.589 686.141Z" fill="#3E398F"/>
<path d="M372.588 686.141C377.238 688.294 378.42 689.255 382.089 693.023C381.396 694.399 380.493 696.341 379.637 697.533C375.158 691.272 375.375 691.762 367.558 692.253C370.323 690.59 369.993 689.234 372.588 686.141Z" fill="#D88888"/>
<path d="M354.391 688.928C361.395 688.812 363.011 682.142 372.588 686.141C369.993 689.234 370.324 690.59 367.558 692.253L367.195 692.982C361.489 691.026 360.3 690.113 354.195 690.107L354.391 688.928Z" fill="#D28393"/>
<path d="M354.195 690.106C360.3 690.113 361.489 691.026 367.195 692.982C370.53 695.857 372.475 696.926 372.704 701.593L373.587 701.702L373.23 702.479L374.541 703.535C376.433 702.983 376.781 702.159 377.671 700.367C377.729 702.888 378.188 704.189 377.061 706.11C372.223 707.759 357.715 707.65 352.457 706.451C350.019 707.255 347.069 707.269 344.458 707.446C342.014 707.452 341.012 707.705 339.004 706.526C337.393 704.339 337.771 700.803 337.704 697.853C343.74 696.654 348.272 692.539 354.195 690.106Z" fill="#FAC6B9"/>
<path d="M359.083 700.387C363.236 701.777 365.522 702.86 369.93 702.186L367.827 699.331C369.706 700.013 370.926 700.701 372.704 701.593L373.588 701.702L373.23 702.479L374.542 703.535C376.434 702.983 376.782 702.159 377.671 700.367C377.729 702.888 378.188 704.189 377.062 706.11C372.224 707.759 357.716 707.65 352.458 706.451L351.417 705.783L351.431 704.959C353.245 702.983 356.571 701.641 359.083 700.387Z" fill="#2F236F"/>
<path d="M422.288 674.115C424.535 674.313 424.604 674.443 426.463 675.858C428.248 680.053 425.885 682.285 422.57 684.731C420.132 684.656 419.457 683.92 418.289 681.965C418.269 678.072 419.659 676.784 422.288 674.115Z" fill="#5A43B7"/>
<path d="M332.131 549.205L332.142 395.765L332.014 355.95C331.954 341.844 329.771 326.682 340.64 315.927C348.506 308.144 354.341 307.65 364.946 307.647C401.431 307.637 437.911 307.69 474.394 307.686L702.118 307.692L816.729 307.673C833.717 307.649 850.725 307.56 867.7 307.664C877.992 307.726 883.06 308.519 890.648 315.785C901.621 326.29 899.332 342.213 899.319 356.07L899.237 404.657L899.285 582.946L897.984 584.59C896.09 583.885 890.702 580.629 888.659 579.454C889.224 576.532 888.999 562.992 888.992 559.327L888.897 517.683L888.809 347.906L342.353 348.076L342.366 502.557C342.349 517.452 342.289 536.365 342.415 551.629C342.448 555.577 351.044 550.388 356.782 553.752C360.687 557.953 359.056 565.774 356.237 570.332C353.252 575.159 343.336 574.918 340.599 576.678L340.24 579.057C337.289 587.112 337.247 591.414 332.159 598.225C323.881 604.822 322.43 605.369 312.795 600.341C311.264 598.616 309.966 596.553 308.664 594.633C308.593 590.865 309.099 585.004 306.606 582.468C304.422 584.314 303.116 585.551 300.593 586.966C299.143 577.079 291.93 559.235 303.074 551.179C315.286 542.351 317.715 542.42 332.131 549.205Z" fill="#303187"/>
<path d="M322.648 567.49C326.974 569.833 337.781 574.481 340.599 576.678L340.24 579.057C337.289 587.112 337.247 591.414 332.159 598.225C323.881 604.822 322.43 605.369 312.795 600.341C311.264 598.616 309.966 596.553 308.664 594.633C308.593 590.865 309.099 585.004 306.606 582.468C304.686 579.649 304.568 575.643 306.775 572.961C309.068 572.013 307.935 572.111 310.277 572.519C312.112 574.316 311.782 576.851 312.708 579.986L313.685 580.29C316.859 576.988 318.818 571.549 322.648 567.49Z" fill="#FDB152"/>
<path d="M393.999 323.315C397.458 322.23 401.16 324.049 402.418 327.45C403.675 330.851 402.046 334.64 398.714 336.068C396.404 337.058 393.736 336.694 391.775 335.12C389.815 333.547 388.881 331.021 389.346 328.55C389.812 326.08 391.6 324.067 393.999 323.315Z" fill="#8960F2"/>
<path d="M368.566 323.331C372.082 322.247 375.823 324.162 377 327.649C378.177 331.137 376.362 334.927 372.908 336.197C370.591 337.049 367.993 336.575 366.126 334.96C364.258 333.346 363.413 330.844 363.92 328.427C364.428 326.01 366.206 324.059 368.566 323.331Z" fill="#8960F2"/>
<path d="M419.888 323.321C423.443 322.194 427.239 324.157 428.376 327.709C429.512 331.262 427.56 335.065 424.011 336.211C420.449 337.362 416.629 335.4 415.489 331.834C414.348 328.267 416.319 324.453 419.888 323.321Z" fill="#8960F2"/>
<path d="M805.013 603.675C799.203 597.156 794.013 575.061 790.301 566.052C788.23 561.02 779.784 541.535 781.5 537.401C783.217 535.669 785.519 534.495 787.951 534.332C805.306 533.165 823.398 534.716 840.754 534.002C845.488 538.736 853.539 563.569 854.533 570.816C858.981 572.519 857.142 572.66 858.089 576.996C856.767 582.642 858.525 597.283 856.291 603.726L832.879 603.729L805.013 603.675Z" fill="#3E398F"/>
<path d="M831.367 575.676C831.374 574.757 831.384 574.288 831.449 573.853C831.626 572.687 832.442 571.688 833.571 571.346C838.391 569.886 847.718 571.286 853.263 570.938C854.1 570.885 854.953 570.96 855.719 571.3C858.327 572.458 857.483 572.991 857.889 575.883C857.992 576.62 857.991 577.369 857.883 578.106C857.113 583.351 857.989 593.531 857.06 600.259C856.769 602.369 854.863 603.726 852.733 603.726L837.205 603.729C834.721 603.729 832.6 601.907 832.317 599.44C831.633 593.469 831.591 589.08 831.585 582.215L831.367 575.676Z" fill="#5A43B7"/>
<path d="M420.847 870.01C420.853 869.09 420.863 868.621 420.929 868.187C421.105 867.021 421.922 866.022 423.051 865.68C427.871 864.22 437.197 865.62 442.743 865.272C443.579 865.219 444.433 865.293 445.199 865.634C447.806 866.791 446.963 867.325 447.368 870.216C447.471 870.954 447.47 871.703 447.362 872.439C446.593 877.685 447.468 887.865 446.54 894.593C446.249 896.703 444.342 898.06 442.212 898.06L426.684 898.062C424.201 898.063 422.079 896.241 421.796 893.774C421.112 887.803 421.07 883.414 421.065 876.549L420.847 870.01Z" fill="#5A43B7"/>
<path d="M849.736 586.67C848.709 585.399 849.882 583.926 851.232 584.848C851.824 585.253 852.304 585.717 852.649 586.275C852.926 586.722 852.934 587.276 852.78 587.778C852.358 589.158 852.072 589.271 850.948 590.19C850.358 590.671 849.639 591.052 848.94 591.351C847.946 591.778 847.591 591.359 848.305 590.547C848.856 589.919 849.395 589.267 849.867 588.572C850.256 587.999 850.171 587.208 849.736 586.67Z" fill="#DCCEFC"/>
<path d="M439.216 881.004C438.188 879.732 439.362 878.259 440.711 879.182C441.304 879.587 441.784 880.051 442.129 880.608C442.405 881.055 442.413 881.609 442.26 882.112C441.837 883.492 441.552 883.605 440.427 884.523C439.838 885.005 439.119 885.385 438.419 885.685C437.425 886.112 437.07 885.693 437.784 884.881C438.336 884.253 438.874 883.601 439.347 882.905C439.736 882.332 439.651 881.542 439.216 881.004Z" fill="#FF6C36"/>
<path d="M839.264 588.358C840.291 589.629 839.118 591.102 837.768 590.179C837.176 589.774 836.696 589.311 836.351 588.753C836.074 588.306 836.066 587.752 836.22 587.25C836.642 585.869 836.928 585.756 838.052 584.838C838.642 584.357 839.361 583.976 840.06 583.676C841.054 583.25 841.409 583.668 840.695 584.481C840.144 585.109 839.605 585.761 839.133 586.456C838.744 587.029 838.829 587.819 839.264 588.358Z" fill="#DCCEFC"/>
<rect x="549" y="161" width="259" height="111" rx="25" fill="#303187"/>
<path d="M428.743 882.691C429.771 883.963 428.597 885.436 427.248 884.513C426.655 884.108 426.175 883.644 425.83 883.087C425.554 882.64 425.546 882.086 425.699 881.583C426.122 880.203 426.407 880.09 427.532 879.172C428.121 878.691 428.84 878.31 429.54 878.01C430.533 877.583 430.889 878.002 430.175 878.815C429.623 879.443 429.085 880.094 428.612 880.79C428.223 881.363 428.308 882.153 428.743 882.691Z" fill="#FF6C36"/>
<path d="M844.565 582.505C844.676 582.072 845.216 581.921 845.533 582.236C845.643 582.345 845.705 582.493 845.701 582.647C845.616 585.482 844.405 589.34 843.577 592.268C843.498 592.546 843.179 592.676 842.929 592.531C842.792 592.452 842.708 592.306 842.712 592.148C842.781 589.274 843.793 585.539 844.565 582.505Z" fill="#CEB6FC"/>
<path d="M434.045 876.839C434.155 876.405 434.696 876.255 435.013 876.569C435.123 876.678 435.185 876.826 435.18 876.981C435.096 879.816 433.885 883.674 433.057 886.602C432.978 886.88 432.658 887.01 432.408 886.865C432.272 886.785 432.187 886.64 432.191 886.482C432.26 883.607 433.273 879.872 434.045 876.839Z" fill="#FF6C36"/>
<path d="M831.585 582.215L831 579L829 580C827.086 581.668 824.5 594.5 828.5 591.5L832.001 590L832 596L823 597C821.617 594.446 823.554 581.934 824.692 579.2C827.553 577.094 829.433 577.916 831.367 575.676L831.585 582.215Z" fill="#5A43B7"/>
<path d="M421.065 876.549L420.479 873.334L418.479 874.334C416.565 876.002 413.979 888.834 417.979 885.834L421.48 884.334L421.479 890.334L412.479 891.334C411.096 888.78 413.034 876.268 414.171 873.534C417.032 871.428 418.912 872.25 420.847 870.01L421.065 876.549Z" fill="#5A43B7"/>
<path d="M840.753 534.002C854.73 535.482 854.682 572.054 863.503 576.704L864.743 577.09C865.227 580.481 862.945 580.367 865.84 587.621C865.819 590.658 865.315 591.533 864.021 594.178C865.193 596.647 867.733 595.673 870.036 595.201C871.262 594.054 871.078 594.678 871.289 593.402C872.352 591.009 874.129 587.89 875.41 585.503C878.564 582.078 884.285 580.569 888.658 579.454C890.702 580.629 896.09 583.885 897.983 584.59C901.879 586.801 902.983 587.351 907.669 587.597C907.526 590.532 907.24 594.236 907.233 597.106C907.976 598.404 908.868 599.735 909.25 601.158L907.54 603.825C890.974 604.176 872.985 603.727 856.29 603.726C858.524 597.283 856.767 582.642 858.088 576.996C857.141 572.66 858.981 572.519 854.533 570.816C853.538 563.569 845.487 538.736 840.753 534.002Z" fill="#303187"/>
<path d="M888.658 579.455C890.702 580.629 896.09 583.885 897.983 584.59C901.88 586.801 902.983 587.351 907.669 587.597C907.526 590.532 907.24 594.236 907.233 597.106C903.528 597.506 900.545 598.52 897.745 595.875C896.151 596.433 885.682 595.725 883.23 595.478C881.799 595.334 881.738 594.49 880.716 592.923C877.501 593.732 874.531 594.105 871.289 593.402C872.352 591.009 874.129 587.89 875.41 585.503C878.564 582.078 884.285 580.569 888.658 579.455Z" fill="#FAC6B9"/>
<path d="M880.717 592.923C889.327 587.902 890.212 592.722 897.746 595.875C896.152 596.433 885.682 595.725 883.23 595.478C881.8 595.334 881.739 594.49 880.717 592.923Z" fill="#2F236F"/>
<path d="M794.898 616.603L808.297 616.695L808.324 617.299C806.669 620.477 805.456 631.879 804.939 635.907L804.278 636.581L803.311 634.413C799.135 633.708 798.495 633.576 794.401 634.504C793.352 635.591 793.352 636.015 792.882 637.452C792.705 633.94 794.531 621.431 794.898 616.603Z" fill="#5A43B7"/>
<path d="M864.744 577.09C866.964 578.192 866.985 578.516 868.286 580.767C868.258 583.016 868.585 586.759 867.339 588.343L865.84 587.621C862.945 580.367 865.227 580.481 864.744 577.09Z" fill="#2F236F"/>
<path d="M434.147 368.306C436.13 370.037 435.642 375.132 435.667 377.819C435.817 393.831 435.857 409.849 435.853 425.863L435.841 563.106C435.847 569.871 436.34 613.569 435.14 618.132C432.759 615.299 433.637 567.497 433.651 559.799L433.655 474.562C433.495 450.933 433.476 427.303 433.598 403.674C433.656 393.297 433.32 378.394 434.147 368.306Z" fill="#303187"/>
<path d="M395.111 370.15C396.428 370.524 396.858 370.86 398.036 371.543C398.885 374.148 389.12 398.712 387.265 403.343C384.904 402.155 384.883 402.625 383.838 400.734C385.219 394.787 392.322 375.752 395.111 370.15Z" fill="#8960F2"/>
<path d="M354.968 414.546C358.262 413.117 362.095 414.588 363.586 417.856C365.077 421.123 363.679 424.983 360.441 426.537C358.292 427.568 355.752 427.359 353.802 425.987C351.851 424.616 350.792 422.297 351.034 419.924C351.276 417.552 352.781 415.495 354.968 414.546Z" fill="#5A43B7"/>
<path d="M354.968 434.546C358.262 433.117 362.095 434.588 363.586 437.856C365.077 441.123 363.679 444.983 360.441 446.537C358.292 447.568 355.752 447.359 353.802 445.987C351.851 444.616 350.792 442.297 351.034 439.924C351.276 437.552 352.781 435.495 354.968 434.546Z" fill="#5A43B7"/>
<path d="M354.968 454.546C358.262 453.117 362.095 454.588 363.586 457.856C365.077 461.123 363.679 464.983 360.441 466.537C358.292 467.568 355.752 467.359 353.802 465.987C351.851 464.616 350.792 462.297 351.034 459.924C351.276 457.552 352.781 455.495 354.968 454.546Z" fill="#5A43B7"/>
<path d="M354.968 474.546C358.262 473.117 362.095 474.588 363.586 477.856C365.077 481.123 363.679 484.983 360.441 486.537C358.292 487.568 355.752 487.359 353.802 485.987C351.851 484.616 350.792 482.297 351.034 479.924C351.276 477.552 352.781 475.495 354.968 474.546Z" fill="#5A43B7"/>
<path d="M354.968 494.546C358.262 493.117 362.095 494.588 363.586 497.856C365.077 501.123 363.679 504.983 360.441 506.537C358.292 507.568 355.752 507.359 353.802 505.987C351.851 504.616 350.792 502.297 351.034 499.924C351.276 497.552 352.781 495.495 354.968 494.546Z" fill="#5A43B7"/>
<path d="M350.419 615.745C354.916 613.794 360.149 615.803 362.185 620.264C364.222 624.723 362.312 629.993 357.892 632.114C354.956 633.523 351.489 633.236 348.825 631.364C346.162 629.492 344.716 626.327 345.047 623.087C345.377 619.849 347.431 617.041 350.419 615.745Z" fill="#5A43B7"/>
<path d="M871.968 355.546C875.262 354.117 879.095 355.588 880.586 358.856C882.077 362.123 880.679 365.983 877.441 367.537C875.292 368.568 872.752 368.359 870.802 366.987C868.851 365.616 867.792 363.297 868.034 360.924C868.276 358.552 869.781 356.495 871.968 355.546Z" fill="#5A43B7"/>
<path d="M856.968 355.546C860.262 354.117 864.095 355.588 865.586 358.856C867.077 362.123 865.679 365.983 862.441 367.537C860.292 368.568 857.752 368.359 855.802 366.987C853.851 365.616 852.792 363.297 853.034 360.924C853.276 358.552 854.781 356.495 856.968 355.546Z" fill="#535158"/>
<path d="M841.968 355.546C845.262 354.117 849.095 355.588 850.586 358.856C852.077 362.123 850.679 365.983 847.441 367.537C845.292 368.568 842.752 368.359 840.802 366.987C838.851 365.616 837.792 363.297 838.034 360.924C838.276 358.552 839.781 356.495 841.968 355.546Z" fill="#BABABA"/>
<path d="M377 376C379.097 376.352 378.803 375.494 380 377C378.828 380.78 371.499 384.686 367.823 387.001C371.196 388.636 375.814 391.712 378 394.5C378.37 396.845 377.806 395.987 376.5 398.5C372.305 396.24 365.23 389.789 361 387C365.124 383.037 372.079 378.937 377 376Z" fill="#8960F2"/>
<path d="M403.5 376C408.222 376.681 417.788 386.936 421.499 390C416.991 392.926 410.907 396.425 406.499 399.5C404.88 400.649 402.956 400.758 400.5 400.5C399.392 396.059 409.98 390.619 413 389C410.489 387.418 407.327 383.099 405.108 381.185C402.975 379.345 403.446 378.412 403.5 376Z" fill="#8960F2"/>
<path d="M162.483 840.845C161.258 839.455 158.929 835.183 158.089 833.46C140.77 797.936 145.746 754.817 157.979 718.612C165.163 697.349 179.669 668.864 200.579 659.09C213.849 652.888 223.595 653.366 236.978 657.975C231.568 675.176 228.226 698.357 231.063 716.262L232.431 722.939C234.751 725.412 237.006 727.946 239.192 730.542C243.562 735.4 247.937 741.095 253.257 744.536C262.677 741.913 273.429 736.892 281.082 730.733C285.577 728.982 294.388 726.917 299.425 725.759C311.453 722.986 319.652 720.758 331.015 716.003C335.586 713.353 370.055 713.189 377.467 712.991C393.592 712.555 410.716 711.302 426.808 711.057C439.932 714.749 439.823 719.178 447.149 730.147C454.805 741.613 485.757 816.1 484.491 824.991L483.073 826.517L483.704 829.869L486.517 836.478C494.121 840.504 516.459 848.612 519.436 852.454L519.429 853.64C513.994 857.571 486.474 855.473 476.719 856.215C482.096 858.395 500.02 862.96 498.316 869.221C492.302 872.144 457.835 871.545 451.672 870.032C448.825 866.816 450.055 856.699 451.466 852.863C451.028 851.324 450.612 850.254 450.038 848.782L447.342 845.553L445.124 845.9C440.751 844.66 428.206 825.42 423.863 820.372C423.654 828.847 421.71 848.721 414.026 853.885C389.377 885.178 326.888 878.875 290.621 879.843C269.365 880.415 209.23 880.885 192.664 868.315C179.589 862.456 170.156 852.713 162.483 840.845Z" fill="#8E62F0"/>
<path d="M331.015 716.003C335.586 713.353 370.055 713.189 377.467 712.992C393.593 712.555 410.716 711.302 426.808 711.057C439.932 714.749 439.823 719.178 447.15 730.147C454.805 741.613 485.757 816.1 484.491 824.991L483.074 826.517L483.704 829.869L486.517 836.478C494.121 840.504 516.459 848.612 519.436 852.454L519.429 853.64C513.994 857.571 486.475 855.473 476.719 856.215C482.096 858.395 500.02 862.96 498.316 869.221C492.302 872.144 457.836 871.545 451.672 870.032C448.825 866.816 450.055 856.699 451.466 852.863C451.028 851.324 450.612 850.254 450.038 848.782L447.342 845.553L445.124 845.9C440.752 844.66 428.206 825.42 423.863 820.372C412.318 802.113 397.272 785.101 388.171 764.777C383.667 763.251 377.303 761.943 372.555 760.826C368.825 760.192 340.872 765.445 334.324 766.447C302.968 759.668 283.557 767.952 253.257 744.536C262.677 741.913 273.429 736.892 281.082 730.733C285.578 728.982 294.388 726.917 299.425 725.759C311.453 722.986 319.652 720.758 331.015 716.003Z" fill="#441C5D"/>
<path d="M483.704 829.869L486.516 836.478C494.12 840.504 516.458 848.612 519.436 852.454L519.429 853.64C513.993 857.571 486.474 855.472 476.718 856.215C482.095 858.395 500.019 862.96 498.316 869.221C492.301 872.144 457.835 871.544 451.671 870.032C448.825 866.816 450.054 856.699 451.465 852.863C451.027 851.323 450.611 850.254 450.037 848.782C454.171 847.753 458.653 846.956 461.312 843.475C461.896 844.524 464.502 850.008 464.774 850.363C467.481 851.841 470.42 853.292 473.178 854.709C472.777 849.382 473.313 843.829 474.202 838.576C473.604 837.193 471.526 834.045 470.639 832.608C475.992 834.352 479.248 832.649 483.704 829.869Z" fill="#2F236F"/>
<path d="M483.704 829.869L486.517 836.478C482.814 841.172 479.236 842.133 474.202 838.576C473.604 837.193 471.527 834.045 470.64 832.608C475.992 834.352 479.249 832.649 483.704 829.869Z" fill="#F0916E"/>
<path d="M461.312 843.475C461.896 844.524 464.502 850.009 464.775 850.363C460.782 854.716 456.998 856.283 451.465 852.863C451.027 851.323 450.611 850.254 450.037 848.782C454.171 847.753 458.653 846.956 461.312 843.475Z" fill="#F0916E"/>
<path d="M461.489 840.096L462.108 839.176C462.018 833.971 456.95 820.242 455.113 815.092C458.999 820.29 462.65 826.674 467.263 831.3C468.381 832.424 468.149 832.077 469.815 831.975L470.639 832.608C471.526 834.046 473.604 837.193 474.202 838.576C473.314 843.829 472.778 849.382 473.179 854.71C470.42 853.293 467.482 851.841 464.775 850.363C464.502 850.009 461.896 844.524 461.312 843.475L461.489 840.096Z" fill="#FEFEFF"/>
<path d="M372.555 760.826C375.048 758.141 380.489 757.092 384.117 756.145L388.17 764.777C383.666 763.251 377.302 761.943 372.555 760.826Z" fill="#21215C"/>
<path d="M447.342 845.553C453.149 843.891 456.251 843.162 461.489 840.096L461.312 843.475C458.653 846.956 454.171 847.754 450.037 848.782L447.342 845.553Z" fill="#A663B5"/>
<path d="M469.815 831.974C474.015 830.646 478.983 828.35 483.073 826.517L483.704 829.869C479.249 832.649 475.992 834.352 470.64 832.608L469.815 831.974Z" fill="#D28393"/>
<path d="M334.324 766.447C340.872 765.445 368.825 760.192 372.555 760.826C377.303 761.943 383.667 763.251 388.171 764.777C397.272 785.101 412.318 802.113 423.863 820.372C423.654 828.847 421.71 848.721 414.027 853.885L413.385 853.115C414.854 851.003 420.156 844.585 418.212 842.405C412.497 845.144 414.401 844.551 408.993 843.052C399.626 840.457 403.99 834.025 399.056 828.016C397.453 826.067 391.722 823.765 389.137 823.519C386.394 825.155 388.114 826.245 386.283 829.917C386.498 809.852 382.441 797.112 366.877 783.118C356.561 773.839 347.077 770.834 334.324 766.447Z" fill="#5A43B7"/>
<path d="M162.482 840.845L163.531 840.613C166.161 844.108 170.961 850.935 174.185 853.388C182.205 853.892 183.695 853.013 190.682 857.271C192.736 860.841 194.857 862.756 192.675 866.687C192.842 867.797 193.011 867.525 192.664 868.315C179.588 862.456 170.156 852.713 162.482 840.845Z" fill="#6D4BE2"/>
<path d="M232.431 722.939C229.257 720.104 219.602 711.82 218.27 708.447L219.243 708.141C224.407 709.803 227.041 712.671 231.063 716.262L232.431 722.939Z" fill="#6D4BE2"/>
<path d="M994.415 220.366L1093.22 220.326C1106.84 220.312 1120.46 220.304 1134.08 220.306C1139.32 220.307 1150.79 220.358 1155.25 223.212C1167.84 231.274 1165.54 244.395 1165.55 257.35L1165.56 298.473L1165.55 369.163C1165.55 381.838 1165.69 394.423 1165.22 407.097C1164.77 419.29 1157.33 425.93 1145.62 427.724L1041.05 427.748C1024.85 427.749 1008.32 428.088 992.167 427.316C987.862 427.232 978.237 421.438 976.643 417.436C972.611 407.283 973.932 390.611 973.939 379.577L974.014 323.832L973.96 271.016C973.837 251.46 967.932 223.004 994.415 220.366Z" fill="#6D4BE2"/>
<path d="M1117.2 248.014C1122.46 247.82 1133.93 246.8 1138.42 248.872C1140.05 251.89 1139.91 346.457 1139.02 356.251L1117.16 356.229C1116.33 328.923 1117.31 301.211 1116.84 273.862C1116.7 265.401 1116.69 256.433 1117.2 248.014Z" fill="#FDB152"/>
<path d="M1039.78 316.693C1046.82 316.505 1053.34 316.54 1060.39 316.626C1060.94 321.311 1061.58 355.215 1059.5 357.5C1052.38 357.562 1045.26 357.573 1038.15 357.531C1038.07 346.651 1037.53 329.272 1038.52 318.059C1039.01 317.522 1039.43 317.067 1039.78 316.693Z" fill="#A374FA"/>
<path d="M1077.51 281.312C1084.24 281.022 1093.38 280.532 1100.01 281.429L1100.13 291.433C1100.14 298.051 1100.49 308.879 1100.03 315.16C1099.52 317.257 1099.58 319.286 1097.47 320.355C1092.47 322.88 1081.4 323.358 1077.37 319.129L1077.34 290.502L1077.51 281.312Z" fill="#FDB152"/>
<path d="M1077.51 281.312C1084.24 281.022 1093.38 280.532 1100.01 281.429L1100.13 291.433C1095.91 291.035 1081.48 290.331 1077.34 290.502L1077.51 281.312Z" fill="#FC9F5C"/>
<path d="M1039 308.581C1045.8 308.249 1054.19 307.556 1060.88 308.581L1061 320C1056.74 319.545 1042.68 318.643 1038.5 318.838L1039 308.581Z" fill="#FC9F5C"/>
<path d="M1077.37 319.129C1081.4 323.358 1092.47 322.88 1097.47 320.355C1099.58 319.286 1099.52 317.257 1100.03 315.16C1100.13 328.859 1100.13 342.558 1100.03 356.256C1092.53 356.4 1085.03 356.396 1077.54 356.242L1077.37 319.129Z" fill="#B578DB"/>
<path d="M1002.68 323.872C1009.45 323.729 1014.88 323.636 1021.64 324.064C1021.99 329.536 1023.08 352.115 1021.1 355.867L1019.17 356.258C1012.57 356.337 1005.95 356.308 999.346 356.169C999.203 349.038 998.27 332.824 999.925 325.421C1000.14 324.481 1001.5 324.297 1002.68 323.872Z" fill="#A374FA"/>
<path d="M1001.36 377.675C1023.05 376.984 1047.78 377.448 1069.53 377.625C1069.74 380.076 1070.23 382.288 1069.27 384.456L1067.54 384.828C1058.93 385.273 1004.9 386.605 1000.76 384.525C999.373 383.827 999.332 383.266 998.821 381.899C999.571 378.846 998.951 379.978 1001.36 377.675Z" fill="#A374FA"/>
<path d="M1000.74 396.522L1046.09 396.418C1051.42 396.424 1057.93 396.322 1063.31 396.687C1064.7 396.781 1065.45 398.244 1066.17 399.281C1066.4 401.576 1066.09 401.776 1064.84 403.876C1050.3 405.306 1017.72 403.951 1001.65 403.941C1000.44 403.94 999.57 402.166 999.066 401.259C999.114 398.95 999.516 398.606 1000.74 396.522Z" fill="#A374FA"/>
<path d="M1084.16 377.658C1093.69 377.349 1133.31 375.533 1139.4 379.578C1140.51 381.735 1140.36 380.607 1139.7 383.096C1137.55 385.275 1138.64 384.639 1135.31 385.26C1119.71 385.365 1103.66 385.604 1088.04 385.368C1084.78 385.318 1081.18 384.656 1078.99 382.154L1079.14 380.701C1080.76 378.526 1081.44 378.56 1084.16 377.658Z" fill="#A374FA"/>
<path d="M945.638 496.431L947.592 496.841C949.793 501.081 954.697 507.645 959.519 508.867L960.112 509.019C989.674 507.933 1000.82 547.946 1003.2 570.989L1011.9 571.068C1018.22 570.954 1022.75 570.874 1029.06 571.43C1032.8 572.806 1036.71 576.838 1038.82 580.321C1044 588.875 1031.24 597.661 1033.23 603.315C1042.01 606.744 1071.84 596.183 1065.83 613.968C1063.86 619.82 1047.95 614.385 1044.41 617.795C1042.41 615.407 1035.41 616.129 1032.54 617.132C1031.87 618.429 1032.06 618.534 1032.27 620.036C1023.4 644.816 1035.9 678.868 1004.88 690.87C1001.41 691.394 997.821 692.007 994.333 692.219C989.592 692.191 956.372 691.605 954.601 692.818C952.429 691.789 946.291 692.185 943.553 692.232L926.388 692.26C920.367 692.321 917.124 692.103 911.294 690.72C917.594 713.673 915.592 745.136 913.923 768.954C913.882 769.472 913.01 769.833 912.608 770.064C908.821 770.609 904.653 771.121 900.913 771.788C898.263 771.74 897.589 772.142 895.484 770.923C895.014 768.899 894.994 768.211 894.885 766.12C887.542 746.6 882.788 726.202 875.99 707.943C872.672 717.999 865.091 731.625 863.225 739.222C862.503 740.36 859.029 745.79 858.688 746.709C855.828 752.207 848.151 769.158 844.268 772.129L842.096 772.306C839.037 771.195 832.907 770.017 829.624 769.479L827.975 768.204C825.945 758.475 841.959 688.621 845.406 675.432L807.99 675.293C805.313 675.1 801.914 675.125 799.169 675.075C800.756 663.732 804.101 647.734 804.278 636.581L804.939 635.907C805.456 631.879 806.669 620.477 808.324 617.299L808.297 616.695L794.898 616.603C790.948 616.676 759.329 620.177 774.076 604.424C775.404 603.006 799.605 603.638 805.014 603.675L832.88 603.729L856.291 603.726C872.986 603.727 890.975 604.176 907.541 603.825L909.25 601.158C908.869 599.735 907.977 598.404 907.234 597.106C907.241 594.236 907.527 590.532 907.67 587.597C902.984 587.351 901.88 586.801 897.984 584.59L899.285 582.946C901.737 582.387 904.373 581.906 906.621 580.766C907.166 580.611 911.309 579.022 911.5 579C916.887 578.357 918.473 579.659 920.423 575.944C921.198 574.467 922.304 572.889 923.149 571.451C923.521 570.818 923.84 570.227 924 570C926.091 567.062 924.256 558.121 924.747 554.747C926.286 538.459 927.703 523.97 941.871 513.889C941.19 512.779 940.154 510.544 939.528 509.297C945.998 505.94 943.206 501.353 945.638 496.431Z" fill="#8757E5"/>
<path d="M940.658 624.144C945.365 624.408 952.088 626.72 956.965 627.736C970.152 630.481 991.717 629.607 1004.2 624.25C1006.66 626.686 1006.78 631.512 1007.34 634.973C1010.89 656.789 1000.7 671.053 979.422 675.668C966.555 676.756 953.763 676.307 940.883 676.914C938.764 677.014 936.496 677.245 934.391 677.186C930.856 678.317 927.941 681.166 925.243 683.757C925.468 686.652 925.564 689.466 926.388 692.259C920.366 692.321 917.124 692.103 911.294 690.72C917.594 713.673 915.592 745.135 913.923 768.954C913.882 769.472 913.01 769.833 912.608 770.064C908.821 770.609 904.652 771.12 900.913 771.788C898.263 771.74 897.589 772.142 895.484 770.923C895.014 768.899 894.994 768.211 894.885 766.12C887.542 746.6 882.787 726.202 875.989 707.943C872.672 717.999 865.091 731.625 863.225 739.222C862.503 740.36 859.029 745.79 858.688 746.709C855.827 752.207 848.151 769.158 844.268 772.129L842.095 772.306C839.037 771.195 832.906 770.017 829.623 769.479L827.975 768.204C825.945 758.475 841.959 688.621 845.406 675.432C846.414 673.259 849.472 661.932 850.923 658.347C856.284 645.158 860.534 643.714 872.584 638.164C876.609 637.608 885.26 634.798 889.435 633.516C892.855 632.718 895.995 632.536 899.387 631.615C911.845 629.051 924.603 628.919 937.068 626.772C938.267 626.565 939.827 625.007 940.658 624.144Z" fill="#441C5D"/>
<path d="M912.294 677.695C919.91 677.177 926.748 677.18 934.391 677.186C930.856 678.317 927.94 681.166 925.243 683.757C925.468 686.652 925.563 689.466 926.387 692.259C920.366 692.321 917.124 692.103 911.293 690.72C910.36 688.601 909.229 683.675 908.609 681.25L912.294 677.695Z" fill="#5A43B7"/>
<path d="M804.938 635.907L805.681 637.224C808.01 637.853 841.319 637.885 844.922 637.317L845.93 636.574C846.693 630.775 844.431 622.728 845.208 618.229C848.253 617.798 849.683 617.425 852.742 618.15C854.894 620.062 854.049 622.68 854.683 625.714C855.527 629.785 856.413 633.594 857.625 637.568C861.44 637.631 869.137 637.548 872.584 638.164C860.534 643.714 856.284 645.158 850.923 658.347C849.472 661.932 846.414 673.259 845.406 675.432L807.99 675.293C805.313 675.1 801.914 675.125 799.169 675.075C800.756 663.732 804.1 647.734 804.278 636.581L804.938 635.907Z" fill="#303187"/>
<path d="M808.297 616.695C817.519 616.665 896.376 615.984 899.271 617.181L899.387 631.615C895.995 632.536 892.855 632.718 889.435 633.516C885.26 634.798 876.609 637.608 872.584 638.164C869.137 637.548 861.44 637.631 857.626 637.568C856.413 633.595 855.528 629.785 854.683 625.714C854.05 622.68 854.894 620.062 852.742 618.15C849.683 617.425 848.253 617.798 845.208 618.229C844.432 622.728 846.693 630.775 845.93 636.575L844.922 637.317C841.319 637.885 808.01 637.853 805.681 637.224L804.938 635.907C805.456 631.879 806.669 620.477 808.324 617.299L808.297 616.695Z" fill="#21215C"/>
<path d="M808.296 616.695C817.519 616.665 896.376 615.984 899.271 617.181L899.386 631.615C895.994 632.536 892.854 632.718 889.435 633.516C888.583 630.893 888.849 620.734 888.842 617.386C863.517 617.155 833.185 618.369 808.323 617.299L808.296 616.695Z" fill="#2F236F"/>
<path d="M925.732 554.65C927.096 554.119 928.662 554.933 928.554 556.392C928.275 560.144 928.1 564.241 928.818 567.348C930.269 574.103 934.548 577.843 936.29 583.546C936.348 583.736 936.524 583.867 936.723 583.863C937.139 583.854 937.373 584.428 937.137 584.771C935.302 587.434 936.119 592.081 936.514 595.595C936.56 596.012 936.215 596.365 935.796 596.335C935.436 596.309 935.118 596.571 935.073 596.93L935.03 597.282C934.837 599.548 934.942 598.729 934.039 599.535C933.547 599.974 933.058 600.427 932.468 600.72C928.344 602.769 923.737 604.076 918.955 603.5C914.85 603.293 913.613 601.323 909.754 600.329C909.608 600.291 909.457 600.374 909.41 600.517C909.319 600.791 908.9 600.788 908.79 600.521C908.385 599.541 907.796 598.6 907.257 597.677C907.146 597.487 907.089 597.271 907.091 597.052C907.104 595.685 907.174 594.15 907.258 592.61C907.402 589.993 905.357 587.966 902.837 587.25C901.667 586.917 900.631 586.422 899.244 585.66C898.502 585.252 898.313 584.272 898.838 583.608C899.033 583.362 899.307 583.189 899.614 583.12C901.772 582.638 904.042 582.18 906.043 581.256C906.334 581.122 906.629 580.998 906.927 580.882C908.477 580.279 913.189 578.301 913.355 578.281C918.708 577.642 918.877 579.281 920.369 575.762C921.02 574.227 922.264 572.807 923.307 571.506C923.545 571.208 923.741 570.944 923.855 570.781C925.765 568.097 924.4 559.99 924.522 556.034C924.541 555.417 925.157 554.874 925.732 554.65Z" fill="#6D4BE2"/>
<path d="M1012 571.989C1018.32 571.875 1022.19 571.945 1028.5 572.5C1034.67 581.567 1032.25 591.161 1031 604C1029.43 604.347 1026.6 603.761 1025 604L1027.5 588.5C1027.45 585.056 1029.27 579.877 1030.15 576.41C1026.78 584.929 1024.64 595.412 1023.61 604.519C1018.02 604.638 1012.26 604.614 1006.65 604.658C1006.42 593.736 1004.37 582.937 1003.95 571.989C1007.29 571.843 1008.71 572.638 1012 571.989Z" fill="#6D4BE2"/>
<path d="M1004.2 624.25C1006.92 622.144 1006.6 622.037 1006.33 618.411C1009.07 615.88 1017.01 616.614 1021.08 616.649C1019.86 623.013 1018.7 629.389 1017.6 635.776C1015.57 648.067 1014.65 664.319 1003.6 671.909C997.282 676.243 986.71 677.021 979.422 675.668C1000.7 671.053 1010.89 656.789 1007.34 634.973C1006.78 631.512 1006.66 626.686 1004.2 624.25Z" fill="#3E398F"/>
<path d="M899.271 617.181C902.724 616.198 936.577 616.508 941.325 617.025C942.156 620.791 938.655 621.743 940.657 624.144C939.826 625.007 938.266 626.565 937.068 626.772C924.603 628.919 911.845 629.051 899.386 631.615L899.271 617.181Z" fill="#FEFEFF"/>
<path d="M945.637 496.431L947.592 496.841C949.792 501.081 954.697 507.645 959.519 508.867L960.112 509.019C957.224 514.263 950.651 524.504 943.716 521.576C941.537 519.118 941.959 517.423 941.871 513.889C941.189 512.779 940.154 510.544 939.527 509.297C945.998 505.94 943.206 501.353 945.637 496.431Z" fill="#FC9F5C"/>
<path d="M930.1 559.398L930.393 560.247C932.382 565.938 937.593 575.889 940.611 581.541C944.554 588.927 948.294 593.623 936.728 598.316L935.175 597.001L935.298 596.008L936.742 596.111C936.367 592.101 935.025 586.081 938.145 583.554L936.53 583.589C934.855 577.702 930.441 573.949 928.963 567.067C929.058 564.142 928.881 562.039 930.1 559.398Z" fill="#3E398F"/>
<path d="M938.144 583.554C943.818 587.497 942.122 592.956 936.741 596.111C936.366 592.101 935.024 586.081 938.144 583.554Z" fill="#8960F2"/>
<path d="M929.031 551.9C929.855 546.565 931.326 542.779 933.444 537.813C931.769 545.406 930.522 551.518 930.1 559.398C928.881 562.039 929.058 564.142 928.963 567.067C927.961 562.729 928.697 556.463 929.031 551.9Z" fill="#5A43B7"/>
<path d="M909.25 601.158L909.638 599.983C913.704 600.954 914.903 603.008 919.099 603.219C914.495 603.813 912.213 603.876 907.54 603.825L909.25 601.158Z" fill="#FEFEFF"/>
<path d="M993.89 555.247C995.838 574.17 996.39 585.566 989.81 603.845L979.055 603.838C984.511 600.875 985.839 598.714 987.583 592.339C989.374 585.777 992.507 568.513 992.535 562.406L993.89 555.247Z" fill="#5A43B7"/>
<path d="M1034.91 580.121C1038.73 582.77 1036.91 590.443 1034.88 593.909L1034.04 593.609C1033.09 591.386 1034.54 583.054 1034.91 580.121Z" fill="#FEFEFF"/>
<path d="M992.534 562.405C992.575 557.858 992.548 554.02 993.12 549.48C993.924 551.379 993.808 553.16 993.89 555.247L992.534 562.405Z" fill="#8960F2"/>
<path d="M255.662 90.8825C289.199 90.3675 323.028 90.6556 356.566 91.1087C366.079 91.4058 375.258 99.2605 377.51 108.37C378.562 114.16 378.448 120.656 378.373 126.537C378.063 150.76 378.95 175.077 378.056 199.271C377.585 212.025 369.45 218.318 357.985 221.436C324.206 222.444 289.021 221.225 255.152 221.254C245.126 221.263 234.668 212.469 233.862 202.274C232.997 191.356 233.452 178.966 233.428 167.772L233.377 133.055C233.372 113.255 230.738 94.7721 255.662 90.8825Z" fill="#6D4BE2"/>
<path d="M289.814 123.3C292.585 123.26 294.102 122.899 295.349 125.572C294.232 128.5 291.771 129.605 288.995 131.362C283.712 141.436 293.775 144.263 282.63 156.382C290.652 164.814 287.507 170.936 288.059 182.304C289.092 182.576 290.12 182.867 291.141 183.181C293.64 183.97 294.268 184.452 295.317 186.509C294.488 189.29 295.046 188.248 292.718 190.467C272.998 186.063 283.501 178.13 279.291 164.044C278.363 160.941 274.559 161.018 272.802 157.722C272.434 151.235 277.324 154.042 278.769 150.514C283.931 137.914 272.637 129.714 289.814 123.3Z" fill="#FEFEFF"/>
<path d="M317.318 123.198C337.116 123.306 328.923 136.484 331.941 148.799C332.922 152.802 335.962 151.731 337.592 153.788C339.951 156.766 338.537 159.805 334.962 160.841C328.019 163.841 333.016 175.945 331.106 181.549C329.639 186.066 328.066 187.002 324.311 189.073C321.965 189.542 320.44 190.053 318.098 189.595C316.261 187.677 316.414 188.432 316.411 186.393C319.863 181.371 325.137 184.024 323.985 174.051C323.656 171.206 324.051 165.115 324.298 162.267C325.626 160.349 327.195 158.372 328.615 156.501C320.6 144.761 325.082 149.282 323.762 134.489C323.367 130.065 320.462 130.477 317.293 128.357C316.4 126.261 316.804 125.565 317.318 123.198Z" fill="#FEFEFF"/>
<path d="M1100.65 726.801C1101.33 725.091 1106.48 721.555 1107.71 718.673C1109.37 714.783 1107.53 708.706 1111.19 706.955C1112.03 708.713 1113.17 711.431 1114.39 712.828L1115.22 712.733C1116.86 717.761 1119.77 726.032 1126.03 726.611C1132.28 726.699 1136.28 729.561 1141.65 731.094C1173.67 740.25 1178.12 769.771 1183.75 797.95C1183.84 798.4 1183.6 799.251 1183.48 799.701C1182.13 800.662 1180.94 801.466 1179.54 802.351C1179.84 811.297 1180.51 823.063 1180.34 831.797C1179.59 835.851 1178.99 840.293 1176.8 843.836C1169.68 844.831 1166.49 845.471 1159.89 847.188C1153.84 848.762 1135.4 855.874 1130.92 855.772C1127.3 858.572 1122.55 861.223 1117.98 861.959C1114.79 861.829 1110.98 861.345 1107.74 861.012L1106.67 859.669L1106.88 854.144C1095.38 852.877 1097.62 855.677 1085.42 848.312C1080.97 849.47 1072.7 852.543 1068.93 850.158C1068.69 846.425 1070.76 844.878 1073.33 841.901L1067.24 841.533C1062.92 841.697 1060.9 842.078 1056.86 843.918C1056.44 838.365 1052.54 829.685 1050.39 824.323L1057 820.651C1058.84 815.16 1060.67 808.115 1062.31 802.447L1062.81 798.454C1058.56 796.914 1060.17 796.553 1059.31 793.058L1059.12 792.254C1061.58 788.752 1064.11 779.051 1065.15 774.711C1073.97 748.099 1072.93 740.795 1101.68 730.467L1100.65 726.801Z" fill="#6D4BE2"/>
<path d="M1178.9 802.426L1179.54 802.351C1179.84 811.297 1180.51 823.063 1180.34 831.797C1179.59 835.851 1178.99 840.293 1176.8 843.836C1169.67 844.831 1166.49 845.471 1159.89 847.188C1153.84 848.762 1135.4 855.875 1130.92 855.772C1127.3 858.572 1122.55 861.223 1117.98 861.959C1114.79 861.829 1110.98 861.345 1107.74 861.012L1106.67 859.669L1106.88 854.144C1095.38 852.877 1097.62 855.677 1085.42 848.312C1080.97 849.47 1072.7 852.543 1068.93 850.158C1068.69 846.425 1070.76 844.878 1073.33 841.901C1077.14 838.917 1079.18 837.05 1084.11 836.376C1089.95 836.437 1096.71 840.47 1103.34 842.446C1114.44 839.843 1125.92 837.35 1136.65 833.521C1142.63 832.233 1148.37 830.005 1154.14 827.948C1153.81 822.77 1152.86 816.175 1152.23 810.902L1151.58 806.725C1161.68 806.105 1169.03 804.756 1178.9 802.426Z" fill="#FC9F5C"/>
<path d="M1151.58 806.725C1161.68 806.105 1169.03 804.756 1178.9 802.426C1179.03 805.042 1179.55 806.589 1178.54 808.681C1173.26 810.943 1157.93 811.964 1152.23 810.902L1151.58 806.725Z" fill="#F0916E"/>
<path d="M1106.88 854.144C1114.72 854.689 1123.12 855.432 1130.92 855.772C1127.3 858.573 1122.55 861.223 1117.98 861.959C1114.79 861.829 1110.98 861.345 1107.74 861.012L1106.67 859.669L1106.88 854.144Z" fill="#3E398F"/>
<path d="M1062.81 798.454C1066.46 800.083 1071.15 802.365 1074.92 803.333C1077.73 804.007 1080.61 804.743 1083.41 805.342C1083.58 806.964 1083.79 809.934 1084.06 811.42C1086.55 822.13 1086.63 825.672 1084.12 836.376C1079.18 837.05 1077.14 838.917 1073.33 841.901L1067.24 841.533C1062.92 841.697 1060.9 842.078 1056.86 843.918C1056.44 838.365 1052.54 829.685 1050.39 824.324L1057 820.651C1058.84 815.16 1060.67 808.115 1062.31 802.447L1062.81 798.454Z" fill="#FA8D4B"/>
<path d="M1062.81 798.454C1066.46 800.083 1071.15 802.365 1074.92 803.333C1077.73 804.007 1080.61 804.743 1083.41 805.342C1083.58 806.964 1083.79 809.934 1084.06 811.42C1082.81 814.288 1082.02 816.495 1081.02 819.459C1079.76 820.297 1079.71 820.576 1078.76 821.769C1076 821.067 1075.51 820.719 1074.5 817.892C1071.79 810.323 1068.21 807.591 1062.31 802.447L1062.81 798.454Z" fill="#F0916E"/>
<path d="M1081.02 819.459C1082.02 816.495 1082.81 814.288 1084.06 811.419C1086.55 822.13 1086.63 825.672 1084.12 836.376C1079.18 837.05 1077.14 838.917 1073.33 841.901L1067.24 841.533C1076.94 835.347 1077.25 830.401 1081.02 819.459Z" fill="#FEFEFF"/>
<path d="M1100.65 726.801C1101.33 725.091 1106.48 721.555 1107.71 718.673C1109.37 714.783 1107.53 708.706 1111.19 706.955C1112.03 708.713 1113.17 711.431 1114.39 712.828L1115.22 712.733C1116.86 717.761 1119.77 726.032 1126.03 726.611C1130.69 737.416 1103.02 756.861 1100.23 736.83C1100.91 734.459 1101.25 732.899 1101.68 730.467L1100.65 726.801Z" fill="#FC9F5C"/>
<path d="M1100.65 726.801C1101.33 725.091 1106.48 721.555 1107.71 718.673C1109.37 714.783 1107.53 708.706 1111.19 706.955C1112.03 708.713 1113.17 711.431 1114.39 712.828C1113.68 713.387 1112.85 714.041 1111.89 714.804C1109.38 723.633 1110.68 726.883 1103.32 733.587L1103.07 735.556C1102.15 735.979 1101.16 736.449 1100.23 736.83C1100.91 734.459 1101.25 732.899 1101.68 730.467L1100.65 726.801Z" fill="#FA8D4B"/>
<path d="M1141.11 777.143C1145.51 785.946 1144.59 797.044 1148.37 805.696C1148.76 806.589 1150.3 806.521 1151.58 806.725L1152.23 810.902C1152.86 816.175 1153.81 822.77 1154.14 827.948C1148.37 830.005 1142.63 832.233 1136.65 833.521C1138.54 831.273 1140.44 830.986 1143.33 829.985C1146.73 824.248 1142.2 808.156 1141.67 800.464C1141.18 792.704 1141 784.924 1141.11 777.143Z" fill="#3E398F"/>
<path d="M1077.78 771.352C1078.73 785.285 1080.23 791.764 1083.41 805.342C1080.61 804.743 1077.73 804.007 1074.92 803.332C1074.44 791.144 1075.87 783.581 1077.78 771.352Z" fill="#3E398F"/>
<path d="M983.652 851.732C983.454 849.382 979.592 841.479 978.618 838.481C973.591 823.043 966.841 808.047 962.114 792.561C961.419 790.299 962.325 788.78 963.517 787.124C968.054 784.78 978.312 786.709 983.693 787.165L1016.46 789.918C1019.36 790.742 1022.53 790.279 1025.64 790.647C1040.15 791.907 1040.98 795.579 1045.13 808.865C1046.59 813.579 1048.42 819.8 1050.39 824.323C1052.54 829.685 1056.44 838.365 1056.86 843.918C1060.9 842.078 1062.92 841.697 1067.24 841.533L1073.33 841.901C1070.76 844.878 1068.69 846.425 1068.93 850.158C1072.7 852.543 1080.97 849.47 1085.42 848.312C1097.62 855.677 1095.38 852.877 1106.88 854.144L1106.67 859.669L1107.74 861.012C1110.98 861.345 1114.79 861.829 1117.98 861.959C1113.88 864.725 1108.21 866.632 1103.21 868.969C1081.99 878.889 1060.59 889.177 1039.72 899.757C1038.8 900.221 1038.4 902.769 1038.21 903.811L1038.1 904.424C1035.06 905.412 1032.48 906.489 1029.31 906.543C1026.95 904.976 1022.78 904.199 1019.98 904.165L1019.11 903.961C1007.71 901.188 982.194 890.907 976.234 880.006C970.662 869.835 973.108 857.993 983.652 851.732Z" fill="#3E398F"/>
<path d="M983.653 851.732C988.012 854.839 1002.32 855.037 1008.44 855.643C1022.03 856.999 1035.73 858.736 1049.32 859.949C1068.2 861.632 1088.78 861.448 1107.74 861.012C1110.98 861.346 1114.79 861.829 1117.98 861.959C1113.88 864.725 1108.21 866.632 1103.22 868.969C1081.99 878.889 1060.59 889.177 1039.72 899.758C1038.8 900.221 1038.4 902.769 1038.21 903.811L1038.1 904.424C1035.06 905.412 1032.48 906.489 1029.31 906.543C1026.95 904.976 1022.78 904.2 1019.99 904.166L1019.11 903.961C1007.71 901.188 982.195 890.907 976.235 880.007C970.663 869.835 973.108 857.994 983.653 851.732Z" fill="#21215C"/>
<path d="M1067.24 841.533L1073.33 841.901C1070.76 844.878 1068.69 846.425 1068.93 850.158C1072.7 852.543 1080.97 849.47 1085.42 848.312C1097.62 855.677 1095.38 852.877 1106.88 854.144L1106.67 859.67C1106.59 859.138 1106.15 856.426 1105.73 856.29C1097.35 853.517 1084.75 855.234 1076.19 854.825C1066.3 854.355 1057.54 856.638 1056.86 843.918C1060.9 842.078 1062.92 841.697 1067.24 841.533Z" fill="#2F236F"/>
<path d="M1005.27 818.096C1014.48 820.031 1018.08 825.298 1010.05 830.843C1001.16 828.97 998.545 823.615 1005.27 818.096Z" fill="#5A43B7"/>
<path d="M815.791 562C825.002 563.935 828.602 569.201 820.574 574.747C811.676 572.874 809.064 567.519 815.791 562Z" fill="#5A43B7"/>
<path d="M1180.34 831.797C1181.15 836.621 1181.66 840.116 1182.04 844.994C1214.41 853.803 1205.26 892.706 1181.21 905.283C1172.2 909.997 1164.48 911.748 1154.83 914.222C1155.12 917.247 1156.58 917.56 1156.24 921.375C1152 929.047 1125.85 922.445 1117.53 922.322L1114.06 919.461C1112.8 919.338 1104.07 918.514 1103.68 918.323C1093.78 913.404 1050.37 925.838 1044.55 921.811C1043.52 920.285 1042.98 919.631 1042.35 917.86C1040.32 913.268 1038.98 909.35 1038.1 904.424L1038.21 903.811C1038.4 902.769 1038.8 900.221 1039.72 899.757C1060.59 889.177 1081.99 878.889 1103.21 868.969C1108.21 866.632 1113.88 864.725 1117.98 861.959C1122.55 861.223 1127.3 858.573 1130.92 855.772C1135.4 855.875 1153.84 848.762 1159.89 847.188C1166.49 845.471 1169.67 844.831 1176.8 843.836C1178.99 840.293 1179.59 835.851 1180.34 831.797Z" fill="#441C5D"/>
<path d="M1032.27 620.036C1032.06 618.534 1031.87 618.429 1032.54 617.132C1035.41 616.129 1042.41 615.407 1044.41 617.795C1044.95 621.497 1046.2 628.608 1046.37 632.087C1048.01 645.427 1049.51 658.126 1051.35 671.493L1061.86 748.917C1062.97 757.092 1063.78 766.753 1065.15 774.711C1064.11 779.051 1061.58 788.753 1059.12 792.254L1059.31 793.058C1060.17 796.554 1058.56 796.915 1062.81 798.454L1062.31 802.447C1060.67 808.115 1058.84 815.16 1057 820.651L1050.39 824.324C1048.42 819.8 1046.59 813.579 1045.13 808.865C1040.98 795.579 1040.15 791.907 1025.64 790.647C1022.53 790.279 1019.37 790.742 1016.46 789.918L1017.34 789.563C1018.65 787.336 1004 730.951 1002.4 724.001C1000.05 719.266 995.43 697.969 994.333 692.219C997.821 692.007 1001.41 691.394 1004.88 690.87C1035.9 678.868 1023.4 644.816 1032.27 620.036Z" fill="#FEFEFF"/>
<path d="M1051.35 671.493L1061.86 748.917C1062.97 757.092 1063.78 766.753 1065.14 774.711C1064.11 779.051 1061.58 788.753 1059.12 792.254C1052.65 753.298 1047.39 713.475 1040.75 674.259C1044.64 672.159 1047.01 672.096 1051.35 671.493Z" fill="#6D4BE2"/>
<path d="M994.333 692.219C997.821 692.007 1001.41 691.394 1004.88 690.87C1006.35 701.675 1009.1 710.702 1010.76 720.724C1015.95 740.489 1018.94 761.078 1023.8 780.965C1024.56 784.092 1025.27 787.451 1025.64 790.647C1022.53 790.279 1019.37 790.742 1016.46 789.918L1017.34 789.563C1018.65 787.336 1004 730.951 1002.4 724.001C1000.05 719.266 995.43 697.969 994.333 692.219Z" fill="#6D4BE2"/>
<path d="M994.333 692.219C997.821 692.007 1001.41 691.394 1004.88 690.87C1006.35 701.675 1009.1 710.702 1010.76 720.724C1009.79 726.699 1013.07 730.399 1012.56 735.073L1007.48 735.08C1004.48 731.448 1005.59 727.388 1002.4 724.001C1000.05 719.266 995.43 697.969 994.333 692.219Z" fill="#5A43B7"/>
<path d="M1046.37 632.087C1048.01 645.427 1049.51 658.126 1051.35 671.493C1047.01 672.096 1044.64 672.159 1040.75 674.259C1038.75 662.527 1036.97 650.758 1035.4 638.961C1039.47 637.893 1041.52 638.795 1045.07 637.329C1046.73 635.439 1046.22 635.05 1046.37 632.087Z" fill="#5A43B7"/>
<path d="M1032.27 620.036C1032.06 618.534 1031.87 618.429 1032.54 617.132C1035.41 616.129 1042.41 615.407 1044.41 617.795C1044.95 621.497 1046.2 628.608 1046.37 632.087C1046.22 635.05 1046.73 635.439 1045.07 637.329C1041.52 638.796 1039.47 637.893 1035.4 638.961C1034.54 632.834 1033.29 626.183 1032.27 620.036Z" fill="#3E398F"/>
<path d="M584.549 177.976C596.644 177.909 608.77 177.808 620.864 177.788C632.741 177.768 636.285 177.168 634.211 190.155C647.903 190.121 653.144 189.478 646.978 205.729C641.999 218.852 635.996 218.75 624.591 223.267C622.42 224.127 618.35 229.311 612.3 231.767L612.258 241.319C618.818 244.379 621.267 247.403 627.597 250.657C627.172 253.639 627.332 253.785 625.512 255.486C619.945 256.158 596.215 256.322 589.87 254.54C589.258 254.369 589.377 253.223 589.275 252.278C591.229 247.551 599.058 243.912 603.619 241.205L603.802 232.216C598.456 229.375 595.465 227.837 591.782 223.049C586.448 221.836 579.805 219.772 575.521 215.988C571.067 212.054 564.071 197.719 568.05 192.006C569.739 189.583 578.627 190.236 581.718 190.241C581.406 184.652 580.191 181.948 584.549 177.976Z" fill="#FDB152"/>
<path d="M572.35 196.314L582.804 196.386C583.919 203.88 585.695 209.372 587.985 216.482C577.885 213.709 574.533 205.579 572.35 196.314Z" fill="#303187"/>
<path d="M633.038 196.237L643.508 196.345C641.796 205.133 641.369 207.08 634.805 213.159C632.788 214.404 630.017 215.856 627.896 217.038C630.945 208.698 632.125 205.274 633.038 196.237Z" fill="#303187"/>
<path d="M937.939 452.833C947.632 441.777 957.291 440.011 968.619 450.458C971.827 453.418 975.348 458.008 979.674 459.043C987.882 460.765 996.532 456.43 1003.06 463.753C1012.36 472.745 1005.48 486.606 1011.52 493.652C1019.26 500.208 1035.46 496.333 1035.46 510.885C1035.04 516.484 1032.35 523.479 1028.39 527.517C1023.88 532.11 1018.14 522.625 1014.21 521.786C1002.99 519.393 994.686 523.55 986.41 512.687C978.89 502.815 986.172 487.78 973.645 481.323C972.236 480.604 967.992 479.737 966.139 479.255C961.044 474.596 955.268 465.108 951.188 462.808C950.132 462.235 938.219 453.288 937.939 452.833Z" fill="#441C5D"/>
<path d="M734.391 858.396C734.541 860.964 734.35 865.658 735.89 867.109L737.238 866.026C739.214 866.932 738.39 867.014 740.024 866.653C751.311 871.19 773.122 858.266 767.999 879.932C767.243 880.572 766.521 881.253 765.677 881.744L764.587 885.041C763.912 889.252 763.327 893.994 762.632 898.456C760.282 913.595 761.079 920.871 742.858 919.842C734.466 919.365 720.087 921.43 712.465 917.921C707.166 912.539 705.217 893.019 704.203 884.98L704.114 884.203C703.644 881.315 701.594 881.485 700.913 879.243C695.143 860.255 717.812 869.937 727.839 866.741L729.126 867.334L730.611 866.592L731.51 866.953L732.566 865.508L732.968 865.992L733.812 865.965C734.132 863.321 734.255 861.032 734.391 858.396Z" fill="#6D4BE2"/>
<path d="M734.391 858.396C734.541 860.964 734.35 865.658 735.89 867.109L737.238 866.026C739.214 866.932 738.39 867.014 740.024 866.653C751.311 871.19 773.122 858.266 767.999 879.932C767.243 880.572 766.521 881.253 765.677 881.744L764.587 885.041C744.139 885.3 724.971 884.571 704.203 884.98L704.114 884.203C703.644 881.315 701.594 881.485 700.913 879.243C695.143 860.255 717.812 869.937 727.839 866.741L729.126 867.334L730.611 866.592L731.51 866.953L732.566 865.508L732.968 865.992L733.812 865.965C734.132 863.321 734.255 861.032 734.391 858.396Z" fill="#6D4BE2"/>
<path d="M704.114 884.203L704.421 882.003C704.979 881.791 759.737 881.689 765.677 881.744L764.587 885.041C744.139 885.3 724.971 884.571 704.203 884.98L704.114 884.203Z" fill="#5A43B7"/>
<path d="M1074.53 696.511L1073.67 696.368C1063.55 694.603 1054.57 683.089 1064.83 674.92C1067.05 673.15 1072.96 674.148 1075.62 673.015C1085.47 667.625 1091.76 660.917 1104.3 664.646C1110.46 666.497 1115.63 670.729 1118.65 676.403C1123.19 684.929 1121.71 707.364 1115.22 712.733L1114.39 712.828C1113.17 711.431 1112.03 708.713 1111.19 706.955C1107.53 708.706 1109.37 714.783 1107.71 718.674C1106.48 721.555 1101.33 725.091 1100.65 726.802C1094.65 728.028 1093.64 729.125 1087.73 725.596C1079.12 720.452 1076.38 706.008 1074.53 696.511Z" fill="#441C5D"/>
<path d="M1074.53 696.511C1084.2 696.027 1088.59 693.765 1097.26 689.35C1098.87 692.682 1102.44 700.081 1105.2 702.254L1106.09 701.825C1106.72 699.236 1106.94 696.94 1108.76 695.141C1110.69 694.399 1110.58 694.433 1112.61 694.917C1115.78 698.5 1114.6 703.883 1111.19 706.955C1107.53 708.706 1109.37 714.783 1107.71 718.674C1106.48 721.556 1101.33 725.092 1100.65 726.802C1094.65 728.028 1093.64 729.125 1087.73 725.596C1079.12 720.452 1076.38 706.008 1074.53 696.511Z" fill="#FDB152"/>
<path d="M732.484 822.136C731.748 819.084 726.98 815.194 725.523 812.06C715.019 789.454 719.944 756.343 741.393 741.667C747.306 738.023 752.455 741.061 754.71 746.927C762.938 768.327 758.804 793.998 745.405 812.407C742.245 816.747 739.643 819.234 734.807 821.407C734.596 833.739 734.459 846.071 734.391 858.395C734.255 861.032 734.132 863.321 733.812 865.965L732.968 865.992L732.566 865.508C731.748 854.675 732.123 833.235 732.484 822.136Z" fill="#A374FA"/>
<path d="M732.484 822.136C732.852 820.855 733.349 811.317 733.478 809.573C734.425 796.812 735.426 784.624 740.487 772.708C737.606 788.923 734.67 804.872 734.807 821.407C734.595 833.739 734.459 846.071 734.391 858.395C734.255 861.032 734.132 863.321 733.812 865.965L732.967 865.992L732.565 865.508C731.748 854.675 732.123 833.235 732.484 822.136Z" fill="#3E398F"/>
<path d="M937.94 452.833C938.22 453.288 950.133 462.235 951.189 462.808C956.29 473.069 958.014 489.189 947.592 496.841L945.637 496.431C943.206 501.353 945.998 505.94 939.527 509.297L936.925 505.081C934.97 505.368 932.287 508.852 929.119 508.478C923.711 507.838 919.399 502.391 915.646 498.644C915.462 495.174 915.598 491.337 913.099 488.864C912.295 488.197 911.498 487.521 910.755 486.777C907.677 483.639 906.028 479.372 906.192 474.979C906.764 459.859 923.077 453.03 936.38 453.652L937.266 453.699L937.94 452.833Z" fill="#441C5D"/>
<path d="M914.679 473.948C915.912 475.094 919.208 478.179 920.782 478.95C924.481 480.757 930.652 481.159 934.153 483.277C934.936 484.748 935.583 485.948 936.081 486.879L937.061 486.733C938.832 482.88 938.008 482.756 940.924 480.586C946.107 480.73 946.209 488.152 942.517 491.055C944.152 492.699 945.045 494.114 945.637 496.431C943.205 501.353 945.998 505.94 939.527 509.297L936.925 505.081C934.97 505.368 932.287 508.852 929.119 508.478C923.711 507.838 919.399 502.392 915.646 498.644C915.462 495.175 915.598 491.337 913.099 488.864C911.954 481.843 912.015 480.244 914.679 473.948Z" fill="#FDB152"/>
<path d="M936.925 505.081C940.188 500.652 941.1 498.288 941.482 492.71L941.536 491.861L942.517 491.055C944.152 492.699 945.044 494.114 945.637 496.431C943.205 501.353 945.998 505.94 939.527 509.297L936.925 505.081Z" fill="#FA8D4B"/>
<path d="M792.882 637.453C793.352 636.015 793.352 635.591 794.401 634.504C798.495 633.576 799.135 633.708 803.311 634.413L804.278 636.581C804.101 647.734 800.756 663.732 799.169 675.075C801.914 675.125 805.313 675.1 807.99 675.293C805.885 675.578 801.349 675.628 799.033 675.711L784.967 764.219C784.095 769.962 783.911 799.456 774.348 794.006C773.238 792.118 772.815 790.449 773.033 788.255C774.627 772.374 776.991 755.703 779.225 739.944L787.692 675.722C777.134 675.336 766.569 675.893 755.896 675.31C764.928 674.623 778.619 675.08 787.957 675.121C788.625 665.204 791.499 647.827 792.882 637.453Z" fill="#6D4BE2"/>
<path d="M721.49 846.902C697.895 843.448 679.894 821.387 682.766 796.472C683.945 786.218 695.054 789.897 701.314 793.699C712.587 800.491 720.652 811.542 723.677 824.357C724.303 827.437 724.855 829.767 724.964 832.921C724.787 838.168 724.603 840.94 723.724 846.091C726.871 853.504 728.649 858.654 730.611 866.591L729.126 867.334L727.838 866.741C725.911 858.954 724.29 854.519 721.49 846.902Z" fill="#A374FA"/>
<path d="M702.002 813.191C706.899 817.333 709.713 821.339 713.241 826.599C717.934 826.681 719.644 826.313 723.676 824.358C724.303 827.437 724.855 829.767 724.964 832.922C724.786 838.168 724.603 840.94 723.724 846.091C726.871 853.504 728.649 858.654 730.61 866.592L729.125 867.334L727.838 866.741C725.91 858.954 724.289 854.519 721.49 846.902C717.144 836.124 707.492 823.703 702.002 813.191Z" fill="#5A43B7"/>
<path d="M713.241 826.599C717.934 826.681 719.644 826.313 723.677 824.357C724.303 827.437 724.855 829.767 724.964 832.921C722.253 833.323 720.87 833.303 718.588 834.822C718.234 834.461 713.834 827.512 713.241 826.599Z" fill="#8960F2"/>
<path d="M718.589 834.822C720.871 833.303 722.253 833.323 724.964 832.921C724.787 838.167 724.603 840.94 723.725 846.091C722.042 841.404 720.959 839.251 718.589 834.822Z" fill="#A374FA"/>
<path d="M742.279 852.032C737.633 833.187 749.492 813.17 768.885 808.02C782.004 804.538 781.99 821.891 776.977 829.147C770.983 841.458 757.428 854.11 743.6 853.722C742.517 857.878 741.393 862.633 740.024 866.653C738.389 867.014 739.214 866.932 737.238 866.026C738.825 861.325 740.508 856.665 742.279 852.032Z" fill="#6D4BE2"/>
<path d="M742.279 852.032C745.208 845.246 754.294 830.639 760.186 827.301L760.513 827.846C754.063 836.239 747.851 843.659 743.6 853.722C742.517 857.878 741.393 862.633 740.024 866.653C738.389 867.014 739.214 866.932 737.238 866.026C738.825 861.325 740.508 856.665 742.279 852.032Z" fill="#3E398F"/>
<path d="M678.846 214.192C713.738 212.853 750.35 214.774 785.389 214.246C788.822 214.195 789.66 214.78 791.764 217.226C792.337 219.944 792.452 218.852 791.369 221.35C789.428 223.046 789.367 223.164 786.901 223.539C752.196 223.559 717.491 223.59 682.794 223.57C678.249 223.567 674.768 224.486 672.252 220.177C671.969 215.176 674.475 214.433 678.846 214.192Z" fill="#DCCEFC"/>
<path d="M674.099 190.738C687.289 189.871 787.071 189.759 790.082 191.289C791.335 191.925 792.119 193.205 792.234 194.578C792.405 196.624 791.076 198.08 789.85 199.536C770.049 200.744 744.404 199.262 724.106 199.82C715.23 200.064 681.942 200.315 674.447 199.172C671.017 196.291 671.497 194.26 674.099 190.738Z" fill="#DCCEFC"/>
<path d="M1019.98 904.166C1022.78 904.2 1026.95 904.976 1029.31 906.543C1032.48 906.489 1035.06 905.412 1038.1 904.424C1038.98 909.35 1040.32 913.268 1042.35 917.86C1038.94 918.132 1035.63 918.357 1032.25 918.848L1031.93 919.291C1031.5 919.856 1029.75 922.166 1028.17 922.384C1021.82 923.276 977.774 930.614 986.343 914.092C990.082 906.891 1010.6 905.978 1019.98 904.166Z" fill="#2F236F"/>
<path d="M1038.1 904.424C1038.98 909.35 1040.32 913.268 1042.35 917.86C1038.94 918.132 1035.63 918.357 1032.25 918.848L1031.93 919.29C1025.47 917.274 1025.47 911.285 1029.31 906.543C1032.48 906.489 1035.06 905.412 1038.1 904.424Z" fill="#F0916E"/>
<path d="M161.696 490.186C160.291 485.551 167.305 483.844 172.147 483.751C194.313 483.327 216.874 484.227 238.987 483.752C241.214 483.705 243.711 483.694 246.018 484.157C248.479 484.65 251.111 486.482 251.137 488.992C251.177 492.807 245.9 493.584 242.086 493.682C217.515 494.313 191.844 493.348 167.373 493.617C164.412 493.65 162.298 492.173 161.696 490.186Z" fill="#DCCEFC"/>
<path d="M1185.27 702.486C1201.42 701.886 1219.81 702.663 1236.14 702.336C1243.04 702.193 1269 701.982 1273.84 703.187C1277.1 706.206 1276.28 708.42 1273.39 711.568C1264.63 712.371 1190.46 712.821 1186.03 711.2C1184.29 710.566 1184.05 709.428 1183.46 707.888C1183.69 705.136 1183.71 704.741 1185.27 702.486Z" fill="#DCCEFC"/>
<path d="M162.338 521.001C161.218 516.861 167.06 515.007 171.348 514.936C190.166 514.624 236.843 514.397 247.665 515.595C248.98 515.74 250.399 516.299 251.182 517.365C252.002 518.48 251.714 519.999 251.187 521.279C251.159 521.348 251.13 521.415 251.1 521.481C250.089 523.686 247.489 524.619 245.066 524.731C237.317 525.091 223.49 524.67 217.505 524.743C201.22 524.699 184.891 525.014 168.612 524.687C165.973 524.634 163.097 523.803 162.338 521.001Z" fill="#DCCEFC"/>
<path d="M161.735 553.588C162.466 551.122 165.283 550.197 167.855 550.159C183.815 549.922 232.374 549.614 245.81 550.644C248.032 550.814 250.465 552.026 250.99 554.191C251.931 558.077 246.331 559.394 242.333 559.441C226.817 559.62 210.948 559.33 195.474 559.561C189.276 559.654 173.791 559.991 166.514 559.344C165.061 559.215 163.576 558.797 162.506 557.805C162.414 557.719 162.341 557.631 162.272 557.523C161.559 556.409 161.359 554.856 161.735 553.588Z" fill="#DCCEFC"/>
<path d="M673.788 237.734C693.358 237.272 713.166 237.902 732.763 237.61C738.457 237.525 745.637 237.226 751.127 238.065C754.778 241.09 754.11 243.125 751.358 246.784C727.43 248.483 698.773 247.041 674.729 246.381C671.001 246.279 672.226 240.141 673.788 237.734Z" fill="#DCCEFC"/>
<path d="M950.827 720.179C948.777 733.192 946.911 746.232 945.235 759.307C944.234 767.639 943.355 775.999 942.279 784.324C941.584 789.74 941.782 797.521 933.894 794.373C931.53 791.117 934.071 780.005 934.459 775.324C936.005 755.048 938.185 734.827 941.019 714.695C946.073 716.378 946.168 719.239 950.827 720.179Z" fill="#5A43B7"/>
<path d="M1186.6 725.732C1196.14 725.568 1251.39 724.499 1256.15 727.19C1258.78 730.671 1257.49 732.838 1254.27 735.243C1244.62 735.325 1189.8 736.435 1184.98 733.976C1182.21 730.596 1183.43 728.328 1186.6 725.732Z" fill="#DCCEFC"/>
<path d="M1186.18 749.341C1192.74 749.18 1230.75 748.129 1234.03 750.773C1235.84 754.194 1234.95 756.322 1232.73 758.685C1226.1 758.766 1188.38 759.857 1185.06 757.44C1183.16 754.12 1183.99 751.891 1186.18 749.341Z" fill="#DCCEFC"/>
<path d="M900.912 771.788C904.652 771.12 908.821 770.609 912.608 770.064C912.015 774.118 912.029 778.124 913.146 782.103L913.922 782.968C916.082 786.218 918.418 793.869 916.593 797.576C911.402 799.633 877.563 801.902 874.034 796.915C876.193 792.888 885.845 790.606 890.6 788.739C894.441 787.022 896.928 785.305 901.199 783.656L899.979 782.784C899.414 780.284 900.803 776.23 900.906 772.463L900.912 771.788Z" fill="#2F236F"/>
<path d="M900.913 771.788C904.652 771.12 908.821 770.609 912.608 770.064C912.016 774.118 912.029 778.124 913.146 782.103L913.923 782.968C907.077 788.426 906.621 783.363 901.199 783.656L899.98 782.784C899.414 780.284 900.804 776.23 900.906 772.463L900.913 771.788Z" fill="#FC9F5C"/>
<path d="M130.781 509.511C135.445 508.188 140.46 509.476 143.908 512.884C147.357 516.292 148.705 521.292 147.437 525.972C146.17 530.652 142.483 534.288 137.786 535.489C130.656 537.313 123.384 533.065 121.467 525.958C119.551 518.85 123.701 511.521 130.781 509.511Z" fill="#8960F2"/>
<path d="M130.781 509.511C135.445 508.188 140.46 509.476 143.908 512.884C147.357 516.292 148.705 521.292 147.437 525.972C146.17 530.652 142.483 534.288 137.786 535.489C130.656 537.313 123.384 533.065 121.467 525.958C119.551 518.85 123.701 511.521 130.781 509.511Z" fill="#8960F2"/>
<path d="M130.781 542.511C135.445 541.188 140.46 542.476 143.908 545.884C147.357 549.292 148.705 554.292 147.437 558.972C146.17 563.652 142.483 567.288 137.786 568.489C130.656 570.313 123.384 566.065 121.467 558.958C119.551 551.85 123.701 544.521 130.781 542.511Z" fill="#8960F2"/>
<path d="M130.781 476.511C135.445 475.188 140.46 476.476 143.908 479.884C147.357 483.292 148.705 488.292 147.437 492.972C146.17 497.652 142.483 501.288 137.786 502.489C130.656 504.313 123.384 500.065 121.467 492.958C119.551 485.85 123.701 478.521 130.781 476.511Z" fill="#8960F2"/>
<path d="M139.73 516.904C140.189 517.067 141.094 517.641 141.557 517.911L141.498 519.138C139.664 522.267 137.462 525.842 133.771 527.398C132.774 527.818 131.903 527.036 130.632 526.408C129.054 524.856 128.242 524.423 127.968 522.372C129.679 521.857 131.136 522.979 133.17 523.867C135.581 522.816 137.989 519.145 139.73 516.904Z" fill="#FEFEFF"/>
<path d="M139.73 549.904C140.189 550.067 141.094 550.642 141.557 550.911L141.498 552.138C139.664 555.268 137.462 558.843 133.771 560.398C132.774 560.818 131.903 560.036 130.632 559.409C129.054 557.856 128.242 557.423 127.968 555.373C129.679 554.858 131.136 555.979 133.17 556.867C135.581 555.816 137.989 552.145 139.73 549.904Z" fill="#FEFEFF"/>
<path d="M139.73 483.904C140.189 484.067 141.094 484.642 141.557 484.911L141.498 486.138C139.664 489.268 137.462 492.843 133.771 494.398C132.774 494.818 131.903 494.036 130.632 493.409C129.054 491.856 128.242 491.423 127.968 489.373C129.679 488.858 131.136 489.979 133.17 490.867C135.581 489.816 137.989 486.145 139.73 483.904Z" fill="#FEFEFF"/>
<path d="M827.327 782.791C831.101 787.281 833.778 786.865 838.28 783.288C839.799 787.11 841.359 792.902 839.983 796.88C836.557 799.892 800.463 800.512 796.355 796.015L796.86 794.775C798.944 793.317 824.446 783.581 827.327 782.791Z" fill="#2F236F"/>
<path d="M442.667 124.162C443.218 124.037 443.784 124.001 444.348 124.019C444.879 124.036 445.402 124.062 445.926 124.096C448.722 124.276 453.414 124.387 454.288 127.048C454.91 128.95 455.715 131.002 456.347 133.019C459.129 141.892 446.4 149.039 438.752 143.748C432.673 139.545 433.494 132.659 437.502 127.276C438.804 125.527 440.649 124.617 442.667 124.162Z" fill="#DCCEFC"/>
<path d="M438.016 136.574C436.889 130.878 444.938 126.225 449.755 129.467C451.035 130.328 451.886 131.33 452.374 132.417C454.899 138.042 446.252 143.346 440.87 140.337C439.325 139.474 438.336 138.19 438.016 136.574Z" fill="#FEFEFF"/>
<path d="M164.223 355.07C169.935 354.41 175.102 358.503 175.768 364.216C176.433 369.928 172.344 375.1 166.634 375.771C160.915 376.442 155.737 372.347 155.071 366.627C154.405 360.907 158.504 355.731 164.223 355.07Z" fill="#DCCEFC"/>
<path d="M164.215 358.475C167.987 357.751 171.639 360.196 172.408 363.96C173.176 367.724 170.775 371.406 167.021 372.218C164.553 372.753 161.989 371.919 160.307 370.036C158.625 368.152 158.085 365.509 158.894 363.116C159.703 360.724 161.735 358.951 164.215 358.475Z" fill="#FEFEFF"/>
<path d="M567.042 809.178C572.424 807.822 577.905 811.004 579.39 816.352C580.876 821.707 577.822 827.26 572.512 828.874C568.962 829.951 565.106 829.024 562.437 826.442C559.769 823.867 558.708 820.045 559.664 816.454C560.62 812.871 563.444 810.084 567.042 809.178Z" fill="#DCCEFC"/>
<path d="M568.412 812.305C572.103 811.767 575.535 814.315 576.099 818.001C576.662 821.687 574.147 825.141 570.464 825.734C566.741 826.333 563.244 823.778 562.674 820.052C562.104 816.325 564.68 812.843 568.412 812.305Z" fill="#FEFEFF"/>
<path d="M943.552 692.232C946.291 692.185 952.428 691.789 954.601 692.818C953.804 701.668 952.155 711.322 950.827 720.179C946.168 719.239 946.073 716.378 941.019 714.695L943.552 692.232Z" fill="#3E398F"/>
<path d="M1227.33 636.645C1228.78 636.861 1229.15 637.144 1230.46 637.788C1230.69 638.289 1230.93 638.79 1231.17 639.291C1229.02 648.386 1219.44 673.464 1217.09 680.097C1214.37 679.508 1213.15 679.559 1212.4 676.781C1213.7 670.395 1224.2 641.827 1227.33 636.645Z" fill="#A374FA"/>
<path d="M1202.56 644.279C1204.56 645.501 1204.65 645.813 1205.14 647.981C1204.28 651.181 1194.52 656.267 1190.9 658.606C1194.92 660.898 1205.84 665.867 1204.95 671.091C1203.47 672.201 1202.95 672.106 1201.12 672.284C1196.34 668.331 1185.05 663.184 1184.39 657.479C1186.09 653.534 1197.89 647.296 1202.56 644.279Z" fill="#A374FA"/>
<path d="M1238.51 644.717C1242.65 645.124 1257.59 653.745 1257.84 658.96C1256.26 663.44 1246.97 668.112 1242.27 671.13C1240.05 672.311 1241.17 672.119 1238.84 671.967C1233.98 666.068 1246.56 661.533 1251 658.634C1246.18 654.186 1243.67 654.544 1239.19 650.579C1237.77 649.32 1238.36 646.691 1238.51 644.717Z" fill="#A374FA"/>
<path d="M940.27 149.866C944.908 149.467 949.029 152.814 949.595 157.439C950.16 162.064 946.966 166.306 942.361 167.036C939.234 167.532 936.088 166.28 934.153 163.774C932.225 161.267 931.81 157.905 933.084 155.007C934.357 152.109 937.116 150.137 940.27 149.866Z" fill="#DCCEFC"/>
<path d="M939.18 153.624C941.802 152.684 944.697 154.001 945.712 156.596C946.727 159.191 945.501 162.124 942.94 163.217C941.21 163.954 939.221 163.693 937.743 162.536C936.265 161.379 935.529 159.509 935.829 157.655C936.128 155.801 937.409 154.257 939.18 153.624Z" fill="#FEFEFF"/>
<path d="M829.624 769.479C832.907 770.017 839.037 771.195 842.096 772.306C840.141 776.108 839.378 778.506 838.022 782.6L838.281 783.288C833.779 786.865 831.102 787.281 827.328 782.791C828.159 778.478 829.167 773.818 829.624 769.479Z" fill="#FC9F5C"/>
<path d="M894.884 766.12C894.993 768.211 895.014 768.899 895.484 770.923C897.588 772.142 898.263 771.74 900.912 771.788L900.905 772.463C900.803 776.23 899.414 780.284 899.979 782.784L901.198 783.656C896.928 785.305 894.441 787.022 890.6 788.739C891.86 781.204 893.699 773.914 894.884 766.12Z" fill="#5A43B7"/>
<path d="M863.224 739.222C864.457 743.337 865.785 753.284 864.416 757.726C864.137 758.632 863.469 758.584 862.318 759.02C856.63 757.174 861.582 751.506 858.688 746.709C859.028 745.789 862.502 740.359 863.224 739.222Z" fill="#CEB6FC"/>
<path d="M1224.02 352.038C1225.48 352.513 1225.54 352.848 1226.72 353.969C1228.47 357.726 1227.55 360.432 1223.77 362.082C1220.6 360.772 1219.13 360.688 1218.86 357.15C1220.17 354.54 1221.66 353.78 1224.02 352.038Z" fill="#DCCEFC"/>
<path d="M666.163 116C667.621 116.475 667.675 116.81 668.86 117.931C670.611 121.688 669.685 124.394 665.904 126.044C662.737 124.734 661.272 124.65 661 121.112C662.308 118.502 663.8 117.742 666.163 116Z" fill="#DCCEFC"/>
<path d="M167.163 627C168.621 627.475 168.675 627.81 169.86 628.931C171.611 632.688 170.685 635.394 166.904 637.044C163.737 635.734 162.272 635.65 162 632.112C163.308 629.502 164.8 628.742 167.163 627Z" fill="#DCCEFC"/>
<path d="M1226.95 362.512C1230.37 362.529 1233.2 362.091 1235.6 364.35C1235.24 366.972 1234.76 366.787 1232.82 369.008C1230.52 370.804 1230.82 371.223 1228.56 371.217C1226.17 368.501 1226.78 366.29 1226.95 362.512Z" fill="#DCCEFC"/>
<path d="M669.091 126.474C672.504 126.491 675.338 126.053 677.742 128.312C677.374 130.934 676.897 130.749 674.956 132.97C672.661 134.766 672.96 135.185 670.699 135.179C668.308 132.463 668.921 130.251 669.091 126.474Z" fill="#DCCEFC"/>
<path d="M170.091 637.474C173.504 637.491 176.338 637.053 178.742 639.312C178.374 641.934 177.897 641.749 175.956 643.97C173.661 645.766 173.96 646.185 171.699 646.179C169.308 643.463 169.921 641.251 170.091 637.474Z" fill="#DCCEFC"/>
<path d="M407.223 209.489C412.691 212.334 406.345 217.643 403.831 220.097C401.734 218.608 402.082 219.334 401.685 217.336C402.568 214.178 404.977 212.023 407.223 209.489Z" fill="#DCCEFC"/>
<path d="M1240.78 490.776C1246.08 491.619 1245.21 497.37 1243.56 501.092C1241.73 500.819 1241.85 500.881 1240.49 499.624C1239.03 496.391 1239.56 494.062 1240.78 490.776Z" fill="#DCCEFC"/>
<path d="M1240.83 509.765C1246.23 510.758 1245.21 516.458 1243.38 520.227C1241.92 519.81 1242.16 519.82 1240.83 519.026C1239.02 515.691 1239.9 513.297 1240.83 509.765Z" fill="#DCCEFC"/>
<path d="M1240.54 529.005C1246.43 529.456 1245.03 534.609 1243.55 538.794C1242.27 538.538 1242.01 538.326 1240.83 537.742C1239 534.663 1239.81 532.483 1240.54 529.005Z" fill="#DCCEFC"/>
<path d="M1241.77 471.894C1245.63 474.315 1245.53 479.313 1242.76 482.512C1238.51 480.42 1238.72 475.017 1241.77 471.894Z" fill="#DCCEFC"/>
<path d="M1227.94 439.741C1232.35 440.079 1235.02 444.52 1233.88 448.725C1228.89 447.737 1227.42 444.411 1227.94 439.741Z" fill="#DCCEFC"/>
<path d="M1241.55 547.279C1245.92 549.419 1245.54 554.169 1242.81 557.511C1238.63 554.99 1239.02 550.894 1241.55 547.279Z" fill="#DCCEFC"/>
<path d="M1240.84 565.67C1246.07 566.837 1245.4 571.73 1243.11 575.391C1238.45 573.584 1239.52 569.583 1240.84 565.67Z" fill="#DCCEFC"/>
<path d="M1198.83 423.614C1201.68 423.443 1203.4 423.345 1206.01 424.467C1207.72 426.509 1207.29 425.498 1207.36 428.345C1204.82 428.689 1202.51 428.651 1200.17 427.621C1198.47 425.663 1198.92 426.6 1198.83 423.614Z" fill="#CEB6FC"/>
<path d="M958.102 232.553C962.23 233.149 965.145 235.807 963.694 240.117C958.933 239.7 956.44 237.24 958.102 232.553Z" fill="#CEB6FC"/>
<path d="M249.188 287.839C251.355 288.951 250.766 288.288 251.899 290.253C251.701 292.833 249.577 295.081 247.946 297.307C246.055 296.189 246.755 296.936 245.753 295C246.074 292.044 247.533 290.367 249.188 287.839Z" fill="#DCCEFC"/>
<path d="M396.792 229.155C398.903 230.331 398.379 229.65 399.234 231.623C398.952 234.305 397.333 236.118 395.767 238.418C393.563 237.373 394.173 238.029 393.066 236.071C393.289 233.435 395.175 231.417 396.792 229.155Z" fill="#CEB6FC"/>
<path d="M1183.73 422.407C1186.72 422.526 1187.6 422.403 1189.78 424.129C1189.85 426.417 1189.93 425.598 1188.47 427.823C1185.61 427.619 1184.03 427.713 1181.97 425.814C1182.06 423.609 1181.87 424.418 1183.73 422.407Z" fill="#CEB6FC"/>
<path d="M240.91 303.402C242.656 304.159 242.555 304.067 243.591 305.66C243.672 308.467 242.091 310.568 240.672 313.126C238.463 311.923 239.255 312.753 238.089 310.67C238.079 307.812 239.483 305.968 240.91 303.402Z" fill="#CEB6FC"/>
<path d="M234.053 408.973C239.885 410.18 238.147 413.736 237.264 418.802C235.514 418.349 235.523 418.188 234.23 416.994C233.112 414.287 233.714 411.962 234.053 408.973Z" fill="#CEB6FC"/>
<path d="M1162.76 538.537C1164.42 538.261 1166.01 539.289 1166.44 540.91C1166.87 542.532 1166 544.215 1164.42 544.799C1163.27 545.229 1161.96 544.965 1161.07 544.117C1160.17 543.269 1159.82 541.984 1160.18 540.801C1160.54 539.617 1161.54 538.74 1162.76 538.537Z" fill="#DCCEFC"/>
<path d="M289.22 258.669C291.3 258.761 292.173 259.062 293.323 260.717C292.354 263.234 292.752 262.406 289.979 264.144C287.684 264.476 286.484 264.854 285.354 262.661C286.571 259.887 286.392 260.608 289.22 258.669Z" fill="#CEB6FC"/>
<path d="M386.933 243.21C388.405 244.303 388.292 244.231 388.91 245.973C388.157 248.314 385.865 249.454 383.716 250.976C381.849 249.376 382.101 250.06 381.585 248.035C382.52 245.876 384.887 244.639 386.933 243.21Z" fill="#DCCEFC"/>
<path d="M926.326 217.347C929.139 217.141 931.346 216.894 933.921 217.961C935.515 219.889 935.127 218.942 934.888 222.022C930.454 221.63 926.939 222.348 926.326 217.347Z" fill="#CEB6FC"/>
<path d="M235.015 391.229C236.296 391.703 236.12 391.699 237.276 392.486C238.557 395.745 238.169 398.029 236.902 401.266C232.292 398.834 232.717 395.552 235.015 391.229Z" fill="#CEB6FC"/>
<path d="M1214.54 429.099C1219.43 429.044 1221.41 429.983 1222.56 434.727C1217.96 436.503 1215.17 433.542 1214.54 429.099Z" fill="#DCCEFC"/>
<path d="M234.001 338.802C235.699 339.02 235.635 338.96 237.145 339.734C238.57 342.256 237.863 345.065 237.57 348.123C235.85 347.807 235.368 347.87 234.142 346.609C233.031 344.138 233.679 341.613 234.001 338.802Z" fill="#CEB6FC"/>
<path d="M1241.75 583.754C1245.87 585.683 1245.27 589.712 1242.83 592.77C1240.24 591.391 1240.23 590.921 1239.47 588.355C1239.81 585.808 1239.9 585.524 1241.75 583.754Z" fill="#DCCEFC"/>
<path d="M234.868 356.539C236.286 356.922 235.963 356.847 237.268 357.582C238.502 360.45 238.568 363.497 236.401 365.916C232.162 364.177 233.196 359.865 234.868 356.539Z" fill="#CEB6FC"/>
<path d="M234.685 374.325C236.147 374.526 236.05 374.497 237.302 375.282C238.727 378.565 237.99 380.635 236.868 384.005L234.424 382.444C232.884 379.212 233.482 377.775 234.685 374.325Z" fill="#CEB6FC"/>
<path d="M944.588 221.947C947.176 222.975 947.721 223.17 949.908 224.863C951.1 227.454 950.957 226.286 950.207 229.33C947.605 228.306 945.882 227.883 943.886 225.926C943.246 223.587 943.232 224.568 944.588 221.947Z" fill="#CEB6FC"/>
<path d="M1145.65 538.637C1147.34 538.437 1148.89 539.599 1149.16 541.276C1149.44 542.954 1148.35 544.555 1146.69 544.912C1145.55 545.159 1144.36 544.754 1143.6 543.86C1142.84 542.966 1142.63 541.727 1143.06 540.635C1143.49 539.542 1144.49 538.775 1145.65 538.637Z" fill="#DCCEFC"/>
<path d="M856.896 216.859C859.539 216.602 861.419 216.168 863.912 216.986C865.247 218.866 864.872 218.105 864.784 220.844C862.059 220.888 859.573 221.226 857.175 220.106C856.099 218.161 856.269 219.198 856.896 216.859Z" fill="#CEB6FC"/>
<path d="M437.98 195.699C439.97 196.491 439.249 195.863 440.401 197.402L439.927 198.614C437.683 200.534 436.801 200.489 433.907 200.863C432.798 200.349 432.455 199.777 431.635 198.853L431.825 197.629C433.686 196.149 435.573 196.112 437.98 195.699Z" fill="#CEB6FC"/>
<path d="M449.571 195.657C452.114 195.556 454.73 195.219 456.887 196.408C457.766 198.46 457.701 197.408 456.851 199.677C454.224 199.906 452.174 200.383 449.839 199.326C448.807 197.406 449.03 198.227 449.571 195.657Z" fill="#CEB6FC"/>
<path d="M275.694 264.861C277.349 266.25 276.819 265.42 277.492 267.332C276.521 269.548 273.843 270.585 271.558 271.872C269.903 270.336 270.238 271.032 269.578 269.027C270.697 266.818 273.29 266.021 275.694 264.861Z" fill="#CEB6FC"/>
<path d="M500.594 195.748C503.005 195.638 505.525 195.304 507.51 196.508C508.279 198.431 508.158 197.634 507.26 200.058C504.624 200.105 502.6 200.471 500.398 199.19C499.64 196.987 499.659 198.098 500.594 195.748Z" fill="#CEB6FC"/>
<path d="M892.05 216.711C894.557 216.585 897.145 216.125 899.25 217.223C900.211 219.188 900.033 218.331 899.516 220.755C896.846 220.852 894.605 221.217 892.241 220.135C891.301 218.235 891.451 219.084 892.05 216.711Z" fill="#CEB6FC"/>
<path d="M260.571 274.984C262.155 275.123 261.627 275.067 263.149 275.815L263.515 276.949C262.602 279.175 260.662 280.626 258.85 282.319C257.195 281.86 256.909 281.415 256.4 280.01C257.151 277.756 258.775 276.647 260.571 274.984Z" fill="#DCCEFC"/>
<path d="M909.795 216.762C912.431 216.653 914.529 216.292 916.9 217.342C918.207 219.242 917.894 218.181 917.574 220.702C914.924 220.889 912.69 221.304 910.238 220.427C909.039 218.579 909.291 219.438 909.795 216.762Z" fill="#CEB6FC"/>
<path d="M1169.43 422.307C1171.66 422.824 1172.55 423.012 1173.45 425.067C1172.1 427.39 1172.52 426.67 1169.84 428.168C1167.62 427.489 1166.58 427.227 1165.82 424.943C1167.18 422.871 1166.8 423.504 1169.43 422.307Z" fill="#DCCEFC"/>
<path d="M1237.42 454.693C1241.48 456.841 1242.7 460.409 1240.57 464.416C1236.88 462.46 1235.9 458.456 1237.42 454.693Z" fill="#DCCEFC"/>
<path d="M235.442 321.129C236.491 321.341 236.879 321.54 237.882 321.916C239.393 325.065 238.36 326.994 237.359 330.411C232.488 328.141 234.011 325.58 235.442 321.129Z" fill="#DCCEFC"/>
<path d="M420.474 200.081C421.864 200.327 421.944 200.566 423.184 201.342L423.34 202.65C421.984 204.815 420.837 205.235 418.653 206.533C418.047 206.414 416.923 205.814 416.307 205.523L415.889 204.264C416.967 202.101 418.432 201.443 420.474 200.081Z" fill="#CEB6FC"/>
<path d="M873.714 216.649C876.547 216.497 878.08 216.217 880.818 217.039C882.303 218.84 881.949 217.945 881.915 220.504C879.279 220.83 877.896 221.18 875.281 220.614C873.564 218.885 874.095 219.565 873.714 216.649Z" fill="#CEB6FC"/>
<path d="M467.175 195.643C469.753 195.652 471.511 195.349 473.632 196.692C474.119 198.76 474.164 197.903 472.752 200.207C470.194 200.171 468.499 200.449 466.405 199.088C465.884 197.087 465.865 197.919 467.175 195.643Z" fill="#CEB6FC"/>
<path d="M482.922 195.621C485.41 195.47 487.138 195.167 489.522 195.882C490.91 197.725 490.529 196.938 490.351 199.79C487.507 199.871 486.269 200.077 483.518 199.239C482.229 197.392 482.49 198.29 482.922 195.621Z" fill="#CEB6FC"/>
<path d="M1145.66 557.117C1147.29 556.944 1148.77 558.071 1149.04 559.688C1149.31 561.305 1148.27 562.85 1146.67 563.214C1145.55 563.468 1144.38 563.081 1143.63 562.208C1142.89 561.335 1142.69 560.119 1143.11 559.051C1143.53 557.983 1144.51 557.239 1145.66 557.117Z" fill="#DCCEFC"/>
<path d="M372.358 251.931C374.328 253.683 373.971 252.866 374.433 255.118C373.356 256.937 371.555 257.525 369.588 258.532C367.716 257.368 367.4 257.339 367.27 255.245C368.566 253.391 370.25 252.912 372.358 251.931Z" fill="#CEB6FC"/>
<path d="M321.06 256.239C323.48 256.523 324.506 256.343 326.088 257.967C325.83 260.178 326.024 259.409 323.733 261.29C320.9 261.102 319.95 261.088 318.244 258.712C319.203 256.756 318.747 257.411 321.06 256.239Z" fill="#CEB6FC"/>
<path d="M1161.9 557.659C1162.9 557.141 1164.12 557.221 1165.04 557.867C1165.98 558.513 1166.47 559.62 1166.34 560.745C1166.21 561.87 1165.46 562.829 1164.4 563.239C1162.88 563.828 1161.17 563.126 1160.51 561.64C1159.84 560.153 1160.45 558.404 1161.9 557.659Z" fill="#DCCEFC"/>
<path d="M302.29 256.95C304.645 256.871 306.971 256.476 308.897 257.6C309.45 259.738 309.459 258.854 308.208 261.247C305.655 261.252 303.971 261.547 301.827 260.262C301.219 258.409 301.276 259.172 302.29 256.95Z" fill="#DCCEFC"/>
<path d="M234.013 426.697C235.867 426.885 235.982 426.749 237.455 427.96C238.561 430.454 237.868 432.441 237.389 435.223C235.458 434.794 235.54 434.742 234.125 433.499C233.086 431.074 233.638 429.365 234.013 426.697Z" fill="#DCCEFC"/>
<path d="M234.487 444C236.341 444.189 236.456 444.052 237.928 445.263C239.035 447.757 238.342 449.744 237.862 452.527C235.932 452.097 236.014 452.045 234.598 450.802C233.559 448.377 234.111 446.668 234.487 444Z" fill="#DCCEFC"/>
<path d="M234.96 461.303C236.814 461.492 236.929 461.356 238.402 462.566C239.508 465.061 238.815 467.047 238.336 469.83C236.406 469.401 236.487 469.348 235.072 468.105C234.033 465.681 234.585 463.971 234.96 461.303Z" fill="#DCCEFC"/>
<path d="M1127.72 538.795C1129.22 538.151 1130.96 538.8 1131.67 540.267C1132.37 541.734 1131.8 543.499 1130.36 544.268C1129.38 544.795 1128.18 544.74 1127.25 544.124C1126.32 543.508 1125.8 542.431 1125.9 541.319C1126 540.206 1126.69 539.237 1127.72 538.795Z" fill="#DCCEFC"/>
<path d="M1127.37 557.733C1128.81 556.888 1130.67 557.378 1131.51 558.825C1132.35 560.272 1131.84 562.125 1130.39 562.955C1128.96 563.78 1127.12 563.286 1126.29 561.848C1125.45 560.411 1125.94 558.571 1127.37 557.733Z" fill="#DCCEFC"/>
<path d="M337.726 256.031C340.094 256.355 340.454 256.255 342.233 257.686L342.304 259.25L340.511 261.158C337.928 260.805 336.076 260.817 334.54 258.65C335.639 256.687 335.376 257.272 337.726 256.031Z" fill="#DCCEFC"/>
<path d="M840.365 216.726C842.879 216.484 844.057 216.18 846.482 216.921C847.947 218.702 847.558 217.864 847.701 220.37C845.215 220.793 843.819 221.292 841.469 220.441C840.025 218.547 840.413 219.401 840.365 216.726Z" fill="#CEB6FC"/>
<path d="M824.014 217.273C826.527 217.03 827.706 216.726 830.131 217.467C831.595 219.248 831.207 218.41 831.35 220.916C828.864 221.339 827.467 221.838 825.117 220.988C823.673 219.093 824.062 219.947 824.014 217.273Z" fill="#CEB6FC"/>
<path d="M809.014 217.273C811.527 217.03 812.706 216.726 815.131 217.467C816.595 219.248 816.207 218.41 816.35 220.916C813.864 221.339 812.467 221.838 810.117 220.988C808.673 219.093 809.062 219.947 809.014 217.273Z" fill="#CEB6FC"/>
<path d="M352.23 256.326C354.681 256.166 355.708 255.906 357.971 256.789C358.83 258.705 358.698 257.878 357.808 260.377C355.554 260.372 352.715 260.631 351.045 259.34C350.929 257.469 350.831 258.175 352.23 256.326Z" fill="#CEB6FC"/>
<path d="M517.637 195.276C519.909 195.424 521.319 195.27 523.179 196.543C523.728 198.828 523.713 197.917 522.414 200.474C519.853 200.185 519.047 200.31 516.999 198.924C516.472 196.775 516.475 197.646 517.637 195.276Z" fill="#CEB6FC"/>
<path d="M532.976 196C535.248 196.148 536.658 195.994 538.518 197.267C539.067 199.552 539.052 198.641 537.753 201.198C535.192 200.909 534.386 201.034 532.338 199.648C531.811 197.499 531.814 198.37 532.976 196Z" fill="#CEB6FC"/>
</svg>
